<svg width="50" height="50" viewBox="0 0 50 50" fill="none" xmlns="http://www.w3.org/2000/svg">
<path d="M8.53261 11.9571C8.53261 10.7615 9.51087 9.78323 10.7065 9.78323H39.2391C40.4348 9.78323 41.413 10.7615 41.413 11.9571C41.413 13.1528 40.4348 14.1311 39.2391 14.1311H10.7065C9.51087 14.1311 8.53261 13.1528 8.53261 11.9571ZM14.2935 6.52237H35.7065C36.7391 6.52237 37.6087 5.6528 37.6087 4.62019C37.6087 3.58758 36.7391 2.71802 35.7065 2.71802H14.2935C13.2609 2.71802 12.3913 3.58758 12.3913 4.62019C12.3913 5.6528 13.2609 6.52237 14.2935 6.52237ZM50 14.4571V20.3811C50 20.5985 49.9457 20.8158 49.8913 20.9789L42.9348 46.2506C42.663 47.1745 41.8478 47.8267 40.8696 47.8267H9.02174C8.04348 47.8267 7.17391 47.1745 6.90217 46.1963L0.108696 20.9789C0.0543478 20.8702 0.0543478 20.7615 0 20.6528C0 20.5441 0 20.4354 0 20.3267V14.4571C0 13.2615 0.978261 12.2832 2.17391 12.2832C3.36957 12.2832 4.34783 13.2615 4.34783 14.4571V18.4789H45.6522V14.4571C45.6522 13.2615 46.6304 12.2832 47.8261 12.2832C49.0217 12.2832 50 13.2615 50 14.4571ZM44.9456 22.8267H5L10.6522 43.4789H25H39.1848L44.9456 22.8267ZM18.587 33.6963H31.413C32.6087 33.6963 33.587 32.718 33.587 31.5224C33.587 30.3267 32.6087 29.3485 31.413 29.3485H18.587C17.3913 29.3485 16.413 30.3267 16.413 31.5224C16.413 32.718 17.3913 33.6963 18.587 33.6963Z" fill="url(#paint0_radial_122_35294)"/>
<defs>
<radialGradient id="paint0_radial_122_35294" cx="0" cy="0" r="1" gradientUnits="userSpaceOnUse" gradientTransform="translate(2.6282 25.2724) scale(47.3718 42.7376)">
<stop stop-color="#ECB45D"/>
<stop offset="0.581399" stop-color="#FFD38D"/>
<stop offset="1" stop-color="#FFB644"/>
</radialGradient>
</defs>
</svg>
