<svg width="254" height="51" viewBox="0 0 254 51" fill="none" xmlns="http://www.w3.org/2000/svg">
<g clip-path="url(#clip0_85_7389)">
<path d="M15.9265 21.1989L25.759 11.4919L35.5955 21.2068L41.3134 15.5555L25.759 0.189453L10.2046 15.5516L15.9265 21.1989Z" fill="url(#paint0_linear_85_7389)"/>
<path d="M0.441895 25.1895L6.16175 19.5403L11.8816 25.1895L6.16175 30.8386L0.441895 25.1895Z" fill="url(#paint1_linear_85_7389)"/>
<path d="M15.9267 29.1797L25.7592 38.8907L35.5957 29.1758L41.3176 34.8191L41.3136 34.823L25.7592 50.1891L10.2048 34.8309L10.1968 34.823L15.9267 29.1797Z" fill="url(#paint2_linear_85_7389)"/>
<path d="M39.6265 25.1914L45.3463 19.5423L51.0662 25.1914L45.3463 30.8406L39.6265 25.1914Z" fill="url(#paint3_linear_85_7389)"/>
<path d="M31.5606 25.1873L25.7586 19.4531L21.4682 23.6905L20.9724 24.1763L19.9567 25.1794L19.9487 25.1873L19.9567 25.1991L25.7586 30.9254L31.5606 25.1912L31.5646 25.1873H31.5606Z" fill="url(#paint4_linear_85_7389)"/>
<path d="M59.9907 12.307H72.4343C75.5211 12.307 77.8563 13.0969 79.4397 14.6765C80.0363 15.26 80.5066 15.9572 80.8221 16.7256C81.1376 17.4941 81.2917 18.3179 81.2751 19.1469V19.222C81.2858 19.9012 81.19 20.5779 80.9912 21.2281C80.814 21.7879 80.5569 22.3198 80.2274 22.8078C79.9204 23.2679 79.5488 23.6828 79.1238 24.0399C78.7087 24.3929 78.2538 24.6976 77.7683 24.9482C79.1684 25.4299 80.4275 26.2435 81.435 27.3177C82.3254 28.3182 82.7705 29.7004 82.7705 31.4643V31.5393C82.7958 32.641 82.5531 33.7325 82.0628 34.7223C81.5877 35.6343 80.8912 36.4158 80.0355 36.997C79.0682 37.6376 77.9911 38.0992 76.8567 38.3595C75.5089 38.6751 74.1272 38.8277 72.7421 38.8136H59.9907V12.307ZM71.1867 23.025C72.2633 23.0764 73.3347 22.8476 74.2936 22.3615C74.6675 22.1458 74.9729 21.831 75.175 21.4527C75.3771 21.0744 75.4679 20.6478 75.4372 20.2211V20.1461C75.457 19.753 75.3761 19.3613 75.2021 19.0072C75.0281 18.6531 74.7665 18.348 74.4415 18.1202C73.7778 17.6542 72.8194 17.4212 71.5666 17.4212H65.7447V23.025H71.1867ZM72.7581 33.7074C73.8307 33.7668 74.8983 33.5244 75.837 33.0084C76.2027 32.7764 76.4987 32.4518 76.6942 32.0684C76.8897 31.685 76.9776 31.2568 76.9486 30.8285V30.7535C76.963 30.3463 76.8762 29.9419 76.6956 29.5757C76.5151 29.2094 76.2464 28.8924 75.913 28.6525C75.2252 28.126 74.1137 27.8627 72.5782 27.8627H65.7447V33.7074H72.7581Z" fill="url(#paint5_linear_85_7389)"/>
<path d="M90.1841 12.307H96.09V38.8215H90.1841V12.307Z" fill="url(#paint6_linear_85_7389)"/>
<path d="M105.027 12.307H110.473L123.06 28.6249V12.307H128.89V38.8215H123.864L110.864 21.9666V38.8215H105.027V12.307Z" fill="url(#paint7_linear_85_7389)"/>
<path d="M146.772 12.1175H152.21L163.713 38.8215H157.548L155.093 32.8741H143.741L141.286 38.8215H135.264L146.772 12.1175ZM152.985 27.7245L149.411 19.1232L145.852 27.7245H152.985Z" fill="url(#paint8_linear_85_7389)"/>
<path d="M170.099 12.307H175.545L188.125 28.6249V12.307H193.955V38.8215H188.929L175.929 21.9666V38.8215H170.099V12.307Z" fill="url(#paint9_linear_85_7389)"/>
<path d="M215.211 39.2872C213.329 39.3031 211.463 38.9431 209.725 38.2288C208.089 37.5617 206.605 36.5778 205.359 35.3353C204.114 34.0928 203.134 32.6167 202.475 30.994C201.781 29.2967 201.429 27.4816 201.44 25.6508V25.5758C201.409 21.9672 202.815 18.491 205.354 15.8965C206.604 14.6291 208.1 13.6243 209.753 12.9425C211.551 12.207 213.481 11.8402 215.427 11.8644C216.578 11.8559 217.727 11.9578 218.857 12.1685C219.825 12.3492 220.771 12.6285 221.68 13.0018C222.506 13.3448 223.29 13.7765 224.02 14.2892C224.732 14.7892 225.4 15.3466 226.019 15.9557L222.264 20.2366C221.305 19.3624 220.229 18.6223 219.065 18.0369C217.923 17.4973 216.669 17.2269 215.403 17.2471C214.349 17.236 213.305 17.4464 212.34 17.8645C211.374 18.2826 210.51 18.8986 209.805 19.6718C209.105 20.4431 208.557 21.3364 208.189 22.3059C207.804 23.3305 207.61 24.4157 207.618 25.5087V25.5837C207.614 26.6751 207.807 27.7584 208.189 28.7825C208.553 29.7555 209.095 30.6539 209.789 31.4324C210.489 32.2152 211.351 32.8403 212.317 33.2655C213.282 33.6906 214.329 33.9059 215.387 33.8966C216.733 33.9385 218.069 33.6523 219.277 33.0634C220.427 32.4444 221.491 31.6797 222.44 30.7887L226.199 34.5403C225.535 35.2518 224.817 35.9119 224.052 36.5149C223.299 37.1024 222.482 37.6044 221.617 38.0116C220.694 38.4406 219.722 38.7576 218.722 38.9555C217.566 39.1843 216.389 39.2955 215.211 39.2872Z" fill="url(#paint10_linear_85_7389)"/>
<path d="M233.169 12.307H253.373V17.4962H238.978V22.8749H251.654V28.0641H238.998V33.6324H253.573V38.8215H233.181L233.169 12.307Z" fill="url(#paint11_linear_85_7389)"/>
</g>
<defs>
<linearGradient id="paint0_linear_85_7389" x1="10.2046" y1="10.6981" x2="41.3134" y2="10.6981" gradientUnits="userSpaceOnUse">
<stop stop-color="white"/>
<stop offset="1" stop-color="#464646"/>
</linearGradient>
<linearGradient id="paint1_linear_85_7389" x1="3.30182" y1="28.014" x2="8.95053" y2="22.2946" gradientUnits="userSpaceOnUse">
<stop stop-color="white"/>
<stop offset="1" stop-color="#464646"/>
</linearGradient>
<linearGradient id="paint2_linear_85_7389" x1="10.1968" y1="39.6825" x2="41.3176" y2="39.6825" gradientUnits="userSpaceOnUse">
<stop stop-color="white"/>
<stop offset="1" stop-color="#464646"/>
</linearGradient>
<linearGradient id="paint3_linear_85_7389" x1="42.4864" y1="28.016" x2="48.1351" y2="22.2966" gradientUnits="userSpaceOnUse">
<stop stop-color="white"/>
<stop offset="1" stop-color="#464646"/>
</linearGradient>
<linearGradient id="paint4_linear_85_7389" x1="19.9487" y1="25.1892" x2="31.5646" y2="25.1892" gradientUnits="userSpaceOnUse">
<stop stop-color="white"/>
<stop offset="1" stop-color="#464646"/>
</linearGradient>
<linearGradient id="paint5_linear_85_7389" x1="233.169" y1="25.5639" x2="253.573" y2="25.5639" gradientUnits="userSpaceOnUse">
<stop stop-color="white"/>
<stop offset="1" stop-color="#464646"/>
</linearGradient>
<linearGradient id="paint6_linear_85_7389" x1="233.169" y1="25.5639" x2="253.573" y2="25.5639" gradientUnits="userSpaceOnUse">
<stop stop-color="white"/>
<stop offset="1" stop-color="#464646"/>
</linearGradient>
<linearGradient id="paint7_linear_85_7389" x1="233.169" y1="25.5639" x2="253.573" y2="25.5639" gradientUnits="userSpaceOnUse">
<stop stop-color="white"/>
<stop offset="1" stop-color="#464646"/>
</linearGradient>
<linearGradient id="paint8_linear_85_7389" x1="233.169" y1="25.5639" x2="253.573" y2="25.5639" gradientUnits="userSpaceOnUse">
<stop stop-color="white"/>
<stop offset="1" stop-color="#464646"/>
</linearGradient>
<linearGradient id="paint9_linear_85_7389" x1="233.169" y1="25.5639" x2="253.573" y2="25.5639" gradientUnits="userSpaceOnUse">
<stop stop-color="white"/>
<stop offset="1" stop-color="#464646"/>
</linearGradient>
<linearGradient id="paint10_linear_85_7389" x1="233.169" y1="25.5639" x2="253.573" y2="25.5639" gradientUnits="userSpaceOnUse">
<stop stop-color="white"/>
<stop offset="1" stop-color="#464646"/>
</linearGradient>
<linearGradient id="paint11_linear_85_7389" x1="233.169" y1="25.5639" x2="253.573" y2="25.5639" gradientUnits="userSpaceOnUse">
<stop stop-color="white"/>
<stop offset="1" stop-color="#464646"/>
</linearGradient>
<clipPath id="clip0_85_7389">
<rect width="253.125" height="50" fill="white" transform="translate(0.443848 0.189453)"/>
</clipPath>
</defs>
</svg>
