<svg width="60" height="60" viewBox="0 0 60 60" fill="none" xmlns="http://www.w3.org/2000/svg">
<path d="M22.6707 42.4202C23.2416 42.4202 23.709 42.8833 23.709 43.4556L23.7061 49.3314C23.7061 49.9023 24.067 50.0749 24.51 49.7125L32.6176 43.076C33.0605 42.7136 33.8889 42.4188 34.4598 42.4188L47.8724 42.4274C49.4657 42.3339 50.8203 40.4558 50.9167 38.9517L50.8994 20.2111C50.8994 19.6402 51.3668 19.2951 51.9391 19.2951H54.5362C55.1071 19.2951 55.5745 19.6388 55.5745 20.2111L55.6004 39.4248C55.6004 43.5793 52.4583 48.0559 47.7846 48.0559H36.1308C35.5599 48.0559 34.7301 47.8704 34.2886 48.2313L19.8306 59.8234C19.3877 60.1858 19.0267 59.8938 19.0267 59.3229L19.0325 48.1896C19.0325 47.6202 18.5651 47.1212 17.9942 47.1212L12.7842 47.114C8.72314 47.114 4.62185 43.145 4.40039 39.0811V30.9921C4.40039 30.4198 5.1453 30.798 5.71764 30.798H8.31474C8.88564 30.798 9.353 30.8425 9.353 31.4135L9.38033 38.9934C9.38033 40.4573 11.2095 42.2879 12.7209 42.5209L22.6707 42.4202ZM15.9493 26.4364C15.6833 26.9426 14.9988 27.3553 14.4264 27.3553H5.71764C5.14673 27.3553 4.67937 26.8879 4.67937 26.317V23.7199C4.67937 23.149 5.14673 22.6817 5.71764 22.6817H11.6021C12.173 22.6817 12.8589 22.2675 13.125 21.7628L21.004 6.79707C21.27 6.29232 21.736 6.27362 22.0394 6.7568L28.6903 17.3379C28.9952 17.8225 29.4698 17.8081 29.7459 17.3077L39.0227 0.521457C39.2988 0.0224572 39.7776 0.00663878 40.0868 0.486944L46.4473 10.3807C46.7564 10.861 47.4755 11.2536 48.0478 11.2536H54.5348C55.1057 11.2536 55.5731 11.7209 55.5731 12.2933V14.8889C55.5731 15.4598 55.1057 15.9286 54.5348 15.9286H45.4924C44.9215 15.9286 44.201 15.536 43.8919 15.0557L40.383 9.61275C40.0739 9.13245 39.5936 9.14826 39.3175 9.6487L30.0047 26.4925C29.7286 26.9915 29.254 27.0044 28.9492 26.5227L22.4032 16.1012C22.0998 15.618 21.6324 15.6353 21.3664 16.14L15.9493 26.4364Z" fill="url(#paint0_radial_122_35281)"/>
<defs>
<radialGradient id="paint0_radial_122_35281" cx="0" cy="0" r="1" gradientUnits="userSpaceOnUse" gradientTransform="translate(7.09167 30.0599) scale(48.5087 56.7005)">
<stop stop-color="#ECB45D"/>
<stop offset="0.581399" stop-color="#FFD38D"/>
<stop offset="1" stop-color="#FFB644"/>
</radialGradient>
</defs>
</svg>
