<svg width="260" height="225" viewBox="0 0 260 225" fill="none" xmlns="http://www.w3.org/2000/svg">
<g opacity="0.35">
<path d="M237.652 18.9655V28.634H236.481V20.1929H236.424L234.064 21.7603V20.5706L236.481 18.9655H237.652Z" fill="#4B4B4B"/>
</g>
<g opacity="0.35">
<path d="M20.61 64.0854V63.2357L23.8014 59.7422C24.1759 59.333 24.4844 58.9774 24.7267 58.6752C24.969 58.3699 25.1484 58.0835 25.2649 57.816C25.3845 57.5453 25.4443 57.2621 25.4443 56.9662C25.4443 56.6263 25.3625 56.332 25.1988 56.0834C25.0383 55.8348 24.818 55.6428 24.5379 55.5074C24.2577 55.3721 23.943 55.3044 23.5937 55.3044C23.2223 55.3044 22.8981 55.3816 22.6211 55.5358C22.3473 55.6868 22.1349 55.8993 21.9838 56.1731C21.8359 56.4469 21.7619 56.7679 21.7619 57.1362H20.6478C20.6478 56.5697 20.7784 56.0724 21.0396 55.6444C21.3008 55.2163 21.6565 54.8827 22.1066 54.6435C22.5598 54.4043 23.0681 54.2847 23.6314 54.2847C24.1979 54.2847 24.6999 54.4043 25.1374 54.6435C25.5749 54.8827 25.918 55.2053 26.1666 55.6113C26.4152 56.0173 26.5395 56.469 26.5395 56.9662C26.5395 57.3219 26.475 57.6697 26.346 58.0096C26.2201 58.3463 25.9998 58.7224 25.685 59.1379C25.3735 59.5502 24.9407 60.0537 24.3868 60.6486L22.2151 62.9713V63.0468H26.7095V64.0854H20.61Z" fill="#E0E0E0"/>
<path d="M59.1204 64.2176C58.4972 64.2176 57.9417 64.1106 57.4539 63.8966C56.9692 63.6826 56.5836 63.3852 56.2972 63.0043C56.014 62.6204 55.8598 62.175 55.8346 61.6683H57.0243C57.0494 61.9799 57.1564 62.249 57.3453 62.4756C57.5341 62.6991 57.7812 62.8722 58.0865 62.9949C58.3918 63.1177 58.7301 63.179 59.1015 63.179C59.5169 63.179 59.8852 63.1066 60.2062 62.9619C60.5272 62.8171 60.779 62.6157 60.9615 62.3576C61.1441 62.0995 61.2354 61.8005 61.2354 61.4606C61.2354 61.1049 61.1472 60.7918 60.971 60.5211C60.7947 60.2473 60.5367 60.0333 60.1967 59.8791C59.8568 59.7248 59.4414 59.6477 58.9504 59.6477H58.1762V58.6091H58.9504C59.3344 58.6091 59.6711 58.5399 59.9607 58.4014C60.2534 58.2629 60.4816 58.0678 60.6452 57.816C60.812 57.5642 60.8955 57.2684 60.8955 56.9285C60.8955 56.6011 60.8231 56.3163 60.6783 56.074C60.5335 55.8316 60.3289 55.6428 60.0646 55.5074C59.8033 55.3721 59.4949 55.3044 59.1393 55.3044C58.8056 55.3044 58.4909 55.3658 58.1951 55.4886C57.9024 55.6082 57.6632 55.7828 57.4775 56.0126C57.2918 56.2392 57.1911 56.513 57.1753 56.834H56.0423C56.0612 56.3273 56.2138 55.8836 56.5002 55.5027C56.7866 55.1188 57.1612 54.8198 57.6238 54.6057C58.0896 54.3917 58.6011 54.2847 59.1581 54.2847C59.7561 54.2847 60.2691 54.4059 60.6972 54.6482C61.1252 54.8874 61.4541 55.2037 61.6839 55.5971C61.9136 55.9906 62.0285 56.4154 62.0285 56.8718C62.0285 57.4163 61.8853 57.8805 61.5989 58.2645C61.3156 58.6485 60.9301 58.9144 60.4422 59.0623V59.1379C61.0528 59.2386 61.5296 59.4982 61.8727 59.9168C62.2158 60.3323 62.3873 60.8469 62.3873 61.4606C62.3873 61.9862 62.2441 62.4583 61.9577 62.8769C61.6744 63.2923 61.2873 63.6196 60.7963 63.8588C60.3053 64.098 59.7467 64.2176 59.1204 64.2176Z" fill="#E0E0E0"/>
<path d="M91.0456 62.1026V61.1396L95.2944 54.4169H95.9931V55.9087H95.521L92.3108 60.9885V61.064H98.0326V62.1026H91.0456ZM95.5966 64.0854V61.8099V61.3615V54.4169H96.7107V64.0854H95.5966Z" fill="#E0E0E0"/>
<path d="M129.965 64.2176C129.412 64.2176 128.913 64.1075 128.469 63.8872C128.025 63.6669 127.67 63.3647 127.402 62.9807C127.134 62.5968 126.988 62.1593 126.963 61.6683H128.096C128.14 62.1058 128.338 62.4677 128.691 62.7541C129.046 63.0374 129.471 63.179 129.965 63.179C130.362 63.179 130.715 63.0862 131.023 62.9005C131.335 62.7148 131.578 62.4599 131.755 62.1357C131.934 61.8084 132.024 61.4386 132.024 61.0263C132.024 60.6045 131.931 60.2284 131.745 59.8979C131.563 59.5643 131.311 59.3015 130.99 59.1095C130.669 58.9176 130.302 58.82 129.89 58.8168C129.594 58.8137 129.29 58.8593 128.979 58.9538C128.667 59.045 128.411 59.1631 128.209 59.3078L127.114 59.1756L127.699 54.4169H132.723V55.4555H128.681L128.341 58.307H128.398C128.596 58.1496 128.845 58.019 129.144 57.9151C129.443 57.8113 129.755 57.7594 130.079 57.7594C130.67 57.7594 131.198 57.901 131.66 58.1842C132.126 58.4643 132.491 58.8483 132.756 59.3362C133.023 59.824 133.157 60.3811 133.157 61.0074C133.157 61.6243 133.018 62.175 132.741 62.6597C132.468 63.1413 132.09 63.5221 131.608 63.8022C131.127 64.0792 130.579 64.2176 129.965 64.2176Z" fill="#E0E0E0"/>
<path d="M165.503 64.2176C165.106 64.2113 164.709 64.1358 164.313 63.991C163.916 63.8463 163.554 63.6023 163.227 63.2593C162.9 62.9131 162.637 62.4457 162.439 61.8572C162.24 61.2655 162.141 60.5227 162.141 59.6289C162.141 58.7728 162.222 58.0143 162.382 57.3533C162.543 56.6893 162.775 56.1306 163.081 55.6774C163.386 55.221 163.754 54.8748 164.185 54.6388C164.62 54.4027 165.109 54.2847 165.654 54.2847C166.195 54.2847 166.677 54.3933 167.098 54.6105C167.523 54.8245 167.869 55.1235 168.137 55.5074C168.404 55.8914 168.578 56.3336 168.656 56.834H167.504C167.397 56.3997 167.19 56.0393 166.881 55.7529C166.573 55.4665 166.164 55.3233 165.654 55.3233C164.905 55.3233 164.314 55.6491 163.883 56.3006C163.455 56.9521 163.24 57.8664 163.237 59.0435H163.312C163.488 58.7759 163.698 58.5478 163.94 58.3589C164.185 58.1669 164.456 58.019 164.752 57.9151C165.048 57.8113 165.361 57.7594 165.691 57.7594C166.245 57.7594 166.752 57.8978 167.212 58.1748C167.671 58.4486 168.039 58.8279 168.316 59.3125C168.593 59.7941 168.732 60.3464 168.732 60.9696C168.732 61.5676 168.598 62.1152 168.33 62.6125C168.063 63.1066 167.687 63.5 167.202 63.7927C166.721 64.0823 166.154 64.2239 165.503 64.2176ZM165.503 63.179C165.899 63.179 166.255 63.0799 166.57 62.8816C166.887 62.6833 167.138 62.4174 167.32 62.0838C167.506 61.7501 167.599 61.3788 167.599 60.9696C167.599 60.5699 167.509 60.2064 167.33 59.8791C167.153 59.5486 166.909 59.2858 166.598 59.0907C166.289 58.8955 165.937 58.798 165.54 58.798C165.241 58.798 164.963 58.8578 164.705 58.9774C164.447 59.0938 164.22 59.2543 164.025 59.4589C163.833 59.6635 163.682 59.8979 163.572 60.1623C163.462 60.4236 163.406 60.6989 163.406 60.9885C163.406 61.3725 163.496 61.7313 163.676 62.0649C163.858 62.3985 164.107 62.6676 164.421 62.8722C164.739 63.0767 165.1 63.179 165.503 63.179Z" fill="#E0E0E0"/>
<path d="M198.396 64.0854L202.721 55.5311V55.4555H197.735V54.4169H203.929V55.5122L199.624 64.0854H198.396Z" fill="#4B4B4B"/>
<path d="M236.344 64.2176C235.695 64.2176 235.122 64.1028 234.625 63.873C234.131 63.6401 233.745 63.3207 233.468 62.9146C233.192 62.5055 233.055 62.0397 233.058 61.5172C233.055 61.1081 233.135 60.7304 233.299 60.3842C233.462 60.0349 233.686 59.7437 233.969 59.5108C234.255 59.2748 234.575 59.1253 234.927 59.0623V59.0057C234.465 58.8861 234.096 58.6264 233.823 58.2267C233.549 57.8239 233.413 57.3659 233.417 56.8529C233.413 56.3619 233.538 55.9229 233.79 55.5358C234.041 55.1487 234.388 54.8434 234.828 54.6199C235.272 54.3964 235.777 54.2847 236.344 54.2847C236.904 54.2847 237.404 54.3964 237.845 54.6199C238.285 54.8434 238.632 55.1487 238.883 55.5358C239.138 55.9229 239.267 56.3619 239.271 56.8529C239.267 57.3659 239.127 57.8239 238.85 58.2267C238.577 58.6264 238.213 58.8861 237.76 59.0057V59.0623C238.109 59.1253 238.424 59.2748 238.704 59.5108C238.984 59.7437 239.208 60.0349 239.374 60.3842C239.541 60.7304 239.626 61.1081 239.629 61.5172C239.626 62.0397 239.485 62.5055 239.204 62.9146C238.928 63.3207 238.542 63.6401 238.048 63.873C237.557 64.1028 236.989 64.2176 236.344 64.2176ZM236.344 63.179C236.781 63.179 237.159 63.1082 237.477 62.9666C237.794 62.825 238.04 62.6251 238.213 62.367C238.386 62.1089 238.474 61.8068 238.477 61.4606C238.474 61.0955 238.38 60.7729 238.194 60.4928C238.008 60.2127 237.755 59.9924 237.434 59.8319C237.116 59.6713 236.753 59.5911 236.344 59.5911C235.931 59.5911 235.563 59.6713 235.239 59.8319C234.918 59.9924 234.664 60.2127 234.479 60.4928C234.296 60.7729 234.207 61.0955 234.21 61.4606C234.207 61.8068 234.29 62.1089 234.46 62.367C234.633 62.6251 234.88 62.825 235.201 62.9666C235.522 63.1082 235.903 63.179 236.344 63.179ZM236.344 58.5902C236.69 58.5902 236.997 58.521 237.264 58.3825C237.535 58.244 237.747 58.0505 237.901 57.8018C238.056 57.5532 238.134 57.2621 238.138 56.9285C238.134 56.6011 238.057 56.3163 237.906 56.074C237.755 55.8285 237.546 55.6396 237.278 55.5074C237.011 55.3721 236.699 55.3044 236.344 55.3044C235.982 55.3044 235.665 55.3721 235.395 55.5074C235.124 55.6396 234.915 55.8285 234.767 56.074C234.619 56.3163 234.546 56.6011 234.55 56.9285C234.546 57.2621 234.62 57.5532 234.771 57.8018C234.926 58.0505 235.138 58.244 235.409 58.3825C235.679 58.521 235.991 58.5902 236.344 58.5902Z" fill="#4B4B4B"/>
</g>
<path d="M23.5647 89.7359C23.9613 89.739 24.3579 89.8146 24.7544 89.9625C25.151 90.1104 25.5129 90.3559 25.8403 90.699C26.1676 91.0389 26.4304 91.5031 26.6287 92.0917C26.8269 92.6802 26.9261 93.4182 26.9261 94.3058C26.9261 95.165 26.8442 95.9282 26.6806 96.5955C26.5201 97.2595 26.2872 97.8198 25.9819 98.2761C25.6797 98.7325 25.3115 99.0787 24.8772 99.3147C24.446 99.5508 23.9582 99.6688 23.4137 99.6688C22.8723 99.6688 22.3892 99.5618 21.9643 99.3478C21.5426 99.1306 21.1964 98.83 20.9257 98.4461C20.6582 98.059 20.4867 97.6105 20.4111 97.1006H21.5631C21.6669 97.5444 21.8731 97.911 22.1815 98.2006C22.4931 98.487 22.9038 98.6302 23.4137 98.6302C24.1596 98.6302 24.7481 98.3044 25.1793 97.653C25.6136 97.0015 25.8308 96.0809 25.8308 94.8912H25.7553C25.579 95.1556 25.3697 95.3837 25.1274 95.5757C24.885 95.7677 24.6159 95.9156 24.3201 96.0195C24.0243 96.1234 23.7095 96.1753 23.3759 96.1753C22.822 96.1753 22.3137 96.0384 21.851 95.7646C21.3915 95.4876 21.0233 95.1084 20.7463 94.6268C20.4725 94.1421 20.3356 93.5882 20.3356 92.965C20.3356 92.3733 20.4678 91.832 20.7322 91.341C20.9997 90.8469 21.3742 90.4535 21.8558 90.1608C22.3404 89.8681 22.9101 89.7264 23.5647 89.7359ZM23.5647 90.7745C23.1682 90.7745 22.811 90.8736 22.4931 91.0719C22.1784 91.2671 21.9281 91.5314 21.7425 91.865C21.5599 92.1955 21.4686 92.5622 21.4686 92.965C21.4686 93.3679 21.5568 93.7346 21.733 94.065C21.9124 94.3923 22.1563 94.6536 22.4648 94.8487C22.7763 95.0407 23.1304 95.1367 23.527 95.1367C23.826 95.1367 24.1045 95.0785 24.3626 94.962C24.6207 94.8424 24.8457 94.6803 25.0377 94.4757C25.2328 94.268 25.3855 94.0335 25.4956 93.7723C25.6058 93.5079 25.6609 93.2326 25.6609 92.9461C25.6609 92.5685 25.5696 92.2144 25.387 91.8839C25.2076 91.5535 24.959 91.2859 24.6411 91.0814C24.3264 90.8768 23.9676 90.7745 23.5647 90.7745Z" fill="#757575"/>
<path d="M56.2406 89.8681V99.5366H55.0698V91.0955H55.0131L52.6526 92.6629V91.4732L55.0698 89.8681H56.2406ZM62.1748 99.6688C61.4635 99.6688 60.8577 99.4752 60.3573 99.0881C59.8568 98.6979 59.4744 98.1329 59.2101 97.3933C58.9457 96.6505 58.8135 95.7536 58.8135 94.7023C58.8135 93.6574 58.9457 92.7652 59.2101 92.0256C59.4776 91.2828 59.8616 90.7163 60.362 90.326C60.8656 89.9326 61.4698 89.7359 62.1748 89.7359C62.8798 89.7359 63.4825 89.9326 63.983 90.326C64.4865 90.7163 64.8705 91.2828 65.1349 92.0256C65.4024 92.7652 65.5362 93.6574 65.5362 94.7023C65.5362 95.7536 65.404 96.6505 65.1396 97.3933C64.8752 98.1329 64.4928 98.6979 63.9924 99.0881C63.492 99.4752 62.8861 99.6688 62.1748 99.6688ZM62.1748 98.6302C62.8798 98.6302 63.4275 98.2903 63.8177 97.6105C64.208 96.9306 64.4031 95.9613 64.4031 94.7023C64.4031 93.8652 64.3134 93.1523 64.134 92.5637C63.9578 91.9752 63.7029 91.5267 63.3692 91.2183C63.0388 90.9098 62.6406 90.7556 62.1748 90.7556C61.4761 90.7556 60.9301 91.1002 60.5367 91.7895C60.1432 92.4756 59.9465 93.4466 59.9465 94.7023C59.9465 95.5395 60.0347 96.2508 60.2109 96.8362C60.3872 97.4216 60.6405 97.867 60.971 98.1723C61.3046 98.4776 61.7059 98.6302 62.1748 98.6302Z" fill="#757575"/>
<path d="M92.7563 89.8681V99.5366H91.5855V91.0955H91.5289L89.1684 92.6629V91.4732L91.5855 89.8681H92.7563ZM98.9361 89.8681V99.5366H97.7653V91.0955H97.7086L95.3481 92.6629V91.4732L97.7653 89.8681H98.9361Z" fill="#757575"/>
<path d="M127.273 89.8681V99.5366H126.102V91.0955H126.045L123.685 92.6629V91.4732L126.102 89.8681H127.273ZM130.053 99.5366V98.6868L133.245 95.1933C133.619 94.7842 133.928 94.4285 134.17 94.1264C134.412 93.8211 134.592 93.5347 134.708 93.2672C134.828 92.9965 134.888 92.7132 134.888 92.4174C134.888 92.0775 134.806 91.7832 134.642 91.5346C134.482 91.2859 134.261 91.094 133.981 90.9586C133.701 90.8233 133.386 90.7556 133.037 90.7556C132.666 90.7556 132.341 90.8327 132.065 90.9869C131.791 91.138 131.578 91.3505 131.427 91.6243C131.279 91.8981 131.205 92.2191 131.205 92.5874H130.091C130.091 92.0208 130.222 91.5236 130.483 91.0955C130.744 90.6675 131.1 90.3339 131.55 90.0947C132.003 89.8555 132.511 89.7359 133.075 89.7359C133.641 89.7359 134.143 89.8555 134.581 90.0947C135.018 90.3339 135.361 90.6565 135.61 91.0625C135.859 91.4685 135.983 91.9201 135.983 92.4174C135.983 92.773 135.918 93.1208 135.789 93.4607C135.663 93.7975 135.443 94.1736 135.128 94.589C134.817 95.0013 134.384 95.5049 133.83 96.0998L131.659 98.4225V98.498H136.153V99.5366H130.053Z" fill="#E0E0E0"/>
<path d="M162.517 89.8681V99.5366H161.346V91.0955H161.29L158.929 92.6629V91.4732L161.346 89.8681H162.517ZM168.565 99.6688C167.942 99.6688 167.386 99.5618 166.898 99.3478C166.414 99.1338 166.028 98.8363 165.742 98.4555C165.458 98.0715 165.304 97.6262 165.279 97.1195H166.469C166.494 97.4311 166.601 97.7002 166.79 97.9268C166.978 98.1502 167.226 98.3233 167.531 98.4461C167.836 98.5688 168.174 98.6302 168.546 98.6302C168.961 98.6302 169.33 98.5578 169.651 98.413C169.972 98.2683 170.223 98.0668 170.406 97.8087C170.588 97.5507 170.68 97.2517 170.68 96.9118C170.68 96.5561 170.592 96.243 170.415 95.9723C170.239 95.6985 169.981 95.4845 169.641 95.3302C169.301 95.176 168.886 95.0989 168.395 95.0989H167.621V94.0603H168.395C168.779 94.0603 169.116 93.9911 169.405 93.8526C169.698 93.7141 169.926 93.519 170.09 93.2672C170.256 93.0154 170.34 92.7195 170.34 92.3796C170.34 92.0523 170.267 91.7675 170.123 91.5251C169.978 91.2828 169.773 91.094 169.509 90.9586C169.248 90.8233 168.939 90.7556 168.584 90.7556C168.25 90.7556 167.935 90.817 167.639 90.9397C167.347 91.0593 167.108 91.234 166.922 91.4638C166.736 91.6904 166.635 91.9642 166.62 92.2852H165.487C165.506 91.7785 165.658 91.3347 165.945 90.9539C166.231 90.5699 166.606 90.2709 167.068 90.0569C167.534 89.8429 168.045 89.7359 168.603 89.7359C169.2 89.7359 169.714 89.8571 170.142 90.0994C170.57 90.3386 170.898 90.6549 171.128 91.0483C171.358 91.4417 171.473 91.8666 171.473 92.323C171.473 92.8675 171.33 93.3317 171.043 93.7157C170.76 94.0996 170.374 94.3656 169.887 94.5135V94.589C170.497 94.6898 170.974 94.9494 171.317 95.368C171.66 95.7835 171.832 96.298 171.832 96.9118C171.832 97.4374 171.688 97.9095 171.402 98.3281C171.119 98.7435 170.732 99.0708 170.241 99.31C169.75 99.5492 169.191 99.6688 168.565 99.6688Z" fill="#E0E0E0"/>
<path d="M197.936 89.8681V99.5366H196.765V91.0955H196.708L194.348 92.6629V91.4732L196.765 89.8681H197.936ZM200.49 97.5538V96.5907L204.739 89.8681H205.438V91.3599H204.965L201.755 96.4397V96.5152H207.477V97.5538H200.49ZM205.041 99.5366V97.2611V96.8126V89.8681H206.155V99.5366H205.041Z" fill="#4B4B4B"/>
<path d="M233.608 89.8681V99.5366H232.437V91.0955H232.38L230.02 92.6629V91.4732L232.437 89.8681H233.608ZM239.41 99.6688C238.856 99.6688 238.357 99.5587 237.913 99.3383C237.47 99.118 237.114 98.8159 236.846 98.4319C236.579 98.0479 236.432 97.6105 236.407 97.1195H237.54C237.584 97.557 237.783 97.9189 238.135 98.2053C238.491 98.4886 238.916 98.6302 239.41 98.6302C239.806 98.6302 240.159 98.5373 240.467 98.3517C240.779 98.166 241.023 97.911 241.199 97.5869C241.378 97.2595 241.468 96.8897 241.468 96.4774C241.468 96.0557 241.375 95.6796 241.19 95.3491C241.007 95.0155 240.755 94.7527 240.434 94.5607C240.113 94.3687 239.747 94.2712 239.334 94.268C239.038 94.2649 238.735 94.3105 238.423 94.4049C238.112 94.4962 237.855 94.6142 237.654 94.759L236.558 94.6268L237.144 89.8681H242.167V90.9067H238.126L237.786 93.7582H237.842C238.041 93.6008 238.289 93.4702 238.588 93.3663C238.887 93.2625 239.199 93.2105 239.523 93.2105C240.115 93.2105 240.642 93.3522 241.105 93.6354C241.57 93.9155 241.936 94.2995 242.2 94.7873C242.467 95.2752 242.601 95.8322 242.601 96.4585C242.601 97.0754 242.463 97.6262 242.186 98.1109C241.912 98.5924 241.534 98.9733 241.053 99.2534C240.571 99.5303 240.024 99.6688 239.41 99.6688Z" fill="#4B4B4B"/>
<path d="M20.7959 125.319V134.988H19.6251V126.547H19.5684L17.208 128.114V126.925L19.6251 125.319H20.7959ZM26.7868 135.12C26.3902 135.114 25.9937 135.038 25.5971 134.894C25.2006 134.749 24.8386 134.505 24.5113 134.162C24.184 133.816 23.9212 133.348 23.7229 132.76C23.5246 132.168 23.4255 131.425 23.4255 130.531C23.4255 129.675 23.5057 128.917 23.6662 128.256C23.8268 127.592 24.0597 127.033 24.3649 126.58C24.6702 126.124 25.0385 125.777 25.4697 125.541C25.904 125.305 26.3934 125.187 26.9379 125.187C27.4792 125.187 27.9608 125.296 28.3825 125.513C28.8074 125.727 29.1536 126.026 29.4211 126.41C29.6886 126.794 29.8617 127.236 29.9404 127.737H28.7885C28.6815 127.302 28.4738 126.942 28.1653 126.656C27.8569 126.369 27.4477 126.226 26.9379 126.226C26.1888 126.226 25.5987 126.552 25.1675 127.203C24.7395 127.855 24.5239 128.769 24.5207 129.946H24.5963C24.7725 129.679 24.9818 129.45 25.2242 129.262C25.4697 129.07 25.7403 128.922 26.0362 128.818C26.332 128.714 26.6452 128.662 26.9756 128.662C27.5296 128.662 28.0363 128.8 28.4958 129.077C28.9553 129.351 29.3235 129.73 29.6005 130.215C29.8775 130.697 30.0159 131.249 30.0159 131.872C30.0159 132.47 29.8822 133.018 29.6147 133.515C29.3471 134.009 28.971 134.403 28.4864 134.695C28.0048 134.985 27.4383 135.127 26.7868 135.12ZM26.7868 134.082C27.1834 134.082 27.539 133.982 27.8537 133.784C28.1716 133.586 28.4218 133.32 28.6044 132.986C28.7901 132.653 28.8829 132.281 28.8829 131.872C28.8829 131.472 28.7932 131.109 28.6138 130.782C28.4376 130.451 28.1937 130.188 27.8821 129.993C27.5736 129.798 27.2211 129.701 26.8246 129.701C26.5256 129.701 26.247 129.76 25.989 129.88C25.7309 129.996 25.5043 130.157 25.3091 130.361C25.1172 130.566 24.9661 130.801 24.8559 131.065C24.7458 131.326 24.6907 131.602 24.6907 131.891C24.6907 132.275 24.7804 132.634 24.9598 132.967C25.1423 133.301 25.391 133.57 25.7057 133.775C26.0236 133.979 26.384 134.082 26.7868 134.082Z" fill="#E0E0E0"/>
<path d="M56.5976 125.319V134.988H55.4268V126.547H55.3701L53.0097 128.114V126.925L55.4268 125.319H56.5976ZM59.6804 134.988L64.0048 126.434V126.358H59.0195V125.319H65.2134V126.415L60.9078 134.988H59.6804Z" fill="#E0E0E0"/>
<rect x="76.8105" y="112.262" width="35.4513" height="35.4513" rx="17.7257" fill="url(#paint0_radial_102_8219)"/>
<path d="M91.7502 125.319V134.988H90.5794V126.547H90.5227L88.1622 128.114V126.925L90.5794 125.319H91.7502ZM97.6278 135.12C96.9794 135.12 96.4066 135.005 95.9093 134.776C95.4152 134.543 95.0297 134.223 94.7527 133.817C94.4757 133.408 94.3388 132.942 94.342 132.42C94.3388 132.011 94.4191 131.633 94.5828 131.287C94.7464 130.937 94.9699 130.646 95.2531 130.413C95.5395 130.177 95.859 130.028 96.2115 129.965V129.908C95.7488 129.789 95.3806 129.529 95.1068 129.129C94.833 128.726 94.6976 128.269 94.7008 127.756C94.6976 127.265 94.8219 126.825 95.0737 126.438C95.3255 126.051 95.6717 125.746 96.1123 125.522C96.5561 125.299 97.0613 125.187 97.6278 125.187C98.188 125.187 98.6884 125.299 99.129 125.522C99.5697 125.746 99.9159 126.051 100.168 126.438C100.423 126.825 100.552 127.265 100.555 127.756C100.552 128.269 100.412 128.726 100.135 129.129C99.8608 129.529 99.4973 129.789 99.0441 129.908V129.965C99.3934 130.028 99.7082 130.177 99.9883 130.413C100.268 130.646 100.492 130.937 100.659 131.287C100.825 131.633 100.91 132.011 100.914 132.42C100.91 132.942 100.769 133.408 100.489 133.817C100.212 134.223 99.8262 134.543 99.332 134.776C98.8411 135.005 98.273 135.12 97.6278 135.12ZM97.6278 134.082C98.0653 134.082 98.4429 134.011 98.7608 133.869C99.0787 133.728 99.3242 133.528 99.4973 133.27C99.6704 133.012 99.7585 132.709 99.7617 132.363C99.7585 131.998 99.6641 131.675 99.4784 131.395C99.2927 131.115 99.0393 130.895 98.7183 130.734C98.4004 130.574 98.0369 130.494 97.6278 130.494C97.2155 130.494 96.8472 130.574 96.5231 130.734C96.202 130.895 95.9487 131.115 95.763 131.395C95.5805 131.675 95.4908 131.998 95.4939 132.363C95.4908 132.709 95.5742 133.012 95.7441 133.27C95.9172 133.528 96.1643 133.728 96.4853 133.869C96.8063 134.011 97.1872 134.082 97.6278 134.082ZM97.6278 129.493C97.974 129.493 98.2808 129.424 98.5484 129.285C98.819 129.147 99.0315 128.953 99.1857 128.704C99.3399 128.456 99.4186 128.165 99.4217 127.831C99.4186 127.504 99.3415 127.219 99.1904 126.977C99.0393 126.731 98.8301 126.542 98.5625 126.41C98.295 126.275 97.9834 126.207 97.6278 126.207C97.2658 126.207 96.9495 126.275 96.6789 126.41C96.4082 126.542 96.1989 126.731 96.051 126.977C95.9031 127.219 95.8307 127.504 95.8338 127.831C95.8307 128.165 95.9046 128.456 96.0557 128.704C96.2099 128.953 96.4224 129.147 96.693 129.285C96.9637 129.424 97.2753 129.493 97.6278 129.493Z" fill="#E0E0E0"/>
<path d="M127.149 125.319V134.988H125.979V126.547H125.922L123.561 128.114V126.925L125.979 125.319H127.149ZM133.008 125.187C133.405 125.19 133.801 125.266 134.198 125.414C134.594 125.562 134.956 125.807 135.284 126.15C135.611 126.49 135.874 126.955 136.072 127.543C136.27 128.132 136.369 128.87 136.369 129.757C136.369 130.616 136.288 131.38 136.124 132.047C135.963 132.711 135.731 133.271 135.425 133.728C135.123 134.184 134.755 134.53 134.321 134.766C133.889 135.002 133.402 135.12 132.857 135.12C132.316 135.12 131.833 135.013 131.408 134.799C130.986 134.582 130.64 134.281 130.369 133.897C130.102 133.51 129.93 133.062 129.855 132.552H131.006C131.11 132.996 131.316 133.362 131.625 133.652C131.936 133.938 132.347 134.082 132.857 134.082C133.603 134.082 134.192 133.756 134.623 133.104C135.057 132.453 135.274 131.532 135.274 130.343H135.199C135.022 130.607 134.813 130.835 134.571 131.027C134.328 131.219 134.059 131.367 133.763 131.471C133.468 131.575 133.153 131.627 132.819 131.627C132.265 131.627 131.757 131.49 131.294 131.216C130.835 130.939 130.467 130.56 130.19 130.078C129.916 129.594 129.779 129.04 129.779 128.416C129.779 127.825 129.911 127.283 130.176 126.792C130.443 126.298 130.818 125.905 131.299 125.612C131.784 125.319 132.353 125.178 133.008 125.187ZM133.008 126.226C132.612 126.226 132.254 126.325 131.936 126.523C131.622 126.718 131.372 126.983 131.186 127.316C131.003 127.647 130.912 128.014 130.912 128.416C130.912 128.819 131 129.186 131.176 129.516C131.356 129.844 131.6 130.105 131.908 130.3C132.22 130.492 132.574 130.588 132.97 130.588C133.269 130.588 133.548 130.53 133.806 130.413C134.064 130.294 134.289 130.132 134.481 129.927C134.676 129.719 134.829 129.485 134.939 129.224C135.049 128.959 135.104 128.684 135.104 128.398C135.104 128.02 135.013 127.666 134.83 127.335C134.651 127.005 134.402 126.737 134.085 126.533C133.77 126.328 133.411 126.226 133.008 126.226Z" fill="#E0E0E0"/>
<path d="M158.261 134.988V134.138L161.453 130.645C161.827 130.236 162.136 129.88 162.378 129.578C162.62 129.273 162.8 128.986 162.916 128.719C163.036 128.448 163.095 128.165 163.095 127.869C163.095 127.529 163.014 127.235 162.85 126.986C162.689 126.737 162.469 126.545 162.189 126.41C161.909 126.275 161.594 126.207 161.245 126.207C160.873 126.207 160.549 126.284 160.272 126.438C159.999 126.589 159.786 126.802 159.635 127.076C159.487 127.35 159.413 127.671 159.413 128.039H158.299C158.299 127.472 158.43 126.975 158.691 126.547C158.952 126.119 159.308 125.785 159.758 125.546C160.211 125.307 160.719 125.187 161.283 125.187C161.849 125.187 162.351 125.307 162.789 125.546C163.226 125.785 163.569 126.108 163.818 126.514C164.066 126.92 164.191 127.372 164.191 127.869C164.191 128.224 164.126 128.572 163.997 128.912C163.871 129.249 163.651 129.625 163.336 130.04C163.025 130.453 162.592 130.956 162.038 131.551L159.866 133.874V133.949H164.361V134.988H158.261ZM169.464 135.12C168.753 135.12 168.147 134.927 167.647 134.54C167.146 134.149 166.764 133.584 166.499 132.845C166.235 132.102 166.103 131.205 166.103 130.154C166.103 129.109 166.235 128.217 166.499 127.477C166.767 126.734 167.151 126.168 167.651 125.777C168.155 125.384 168.759 125.187 169.464 125.187C170.169 125.187 170.772 125.384 171.272 125.777C171.776 126.168 172.16 126.734 172.424 127.477C172.692 128.217 172.825 129.109 172.825 130.154C172.825 131.205 172.693 132.102 172.429 132.845C172.164 133.584 171.782 134.149 171.282 134.54C170.781 134.927 170.175 135.12 169.464 135.12ZM169.464 134.082C170.169 134.082 170.717 133.742 171.107 133.062C171.497 132.382 171.692 131.413 171.692 130.154C171.692 129.317 171.603 128.604 171.423 128.015C171.247 127.427 170.992 126.978 170.658 126.67C170.328 126.361 169.93 126.207 169.464 126.207C168.765 126.207 168.219 126.552 167.826 127.241C167.432 127.927 167.236 128.898 167.236 130.154C167.236 130.991 167.324 131.702 167.5 132.288C167.676 132.873 167.93 133.318 168.26 133.624C168.594 133.929 168.995 134.082 169.464 134.082Z" fill="#E0E0E0"/>
<path d="M194.777 134.988V134.138L197.968 130.645C198.343 130.236 198.651 129.88 198.894 129.578C199.136 129.273 199.315 128.986 199.432 128.719C199.551 128.448 199.611 128.165 199.611 127.869C199.611 127.529 199.529 127.235 199.366 126.986C199.205 126.737 198.985 126.545 198.705 126.41C198.425 126.275 198.11 126.207 197.761 126.207C197.389 126.207 197.065 126.284 196.788 126.438C196.514 126.589 196.302 126.802 196.151 127.076C196.003 127.35 195.929 127.671 195.929 128.039H194.815C194.815 127.472 194.945 126.975 195.207 126.547C195.468 126.119 195.823 125.785 196.274 125.546C196.727 125.307 197.235 125.187 197.798 125.187C198.365 125.187 198.867 125.307 199.304 125.546C199.742 125.785 200.085 126.108 200.334 126.514C200.582 126.92 200.707 127.372 200.707 127.869C200.707 128.224 200.642 128.572 200.513 128.912C200.387 129.249 200.167 129.625 199.852 130.04C199.54 130.453 199.108 130.956 198.554 131.551L196.382 133.874V133.949H200.876V134.988H194.777ZM206.225 125.319V134.988H205.055V126.547H204.998L202.637 128.114V126.925L205.055 125.319H206.225Z" fill="#4B4B4B"/>
<path d="M229.293 134.988V134.138L232.485 130.645C232.859 130.236 233.168 129.88 233.41 129.578C233.652 129.273 233.832 128.986 233.948 128.719C234.068 128.448 234.128 128.165 234.128 127.869C234.128 127.529 234.046 127.235 233.882 126.986C233.722 126.737 233.501 126.545 233.221 126.41C232.941 126.275 232.626 126.207 232.277 126.207C231.906 126.207 231.581 126.284 231.305 126.438C231.031 126.589 230.818 126.802 230.667 127.076C230.519 127.35 230.445 127.671 230.445 128.039H229.331C229.331 127.472 229.462 126.975 229.723 126.547C229.984 126.119 230.34 125.785 230.79 125.546C231.243 125.307 231.751 125.187 232.315 125.187C232.881 125.187 233.383 125.307 233.821 125.546C234.258 125.785 234.601 126.108 234.85 126.514C235.099 126.92 235.223 127.372 235.223 127.869C235.223 128.224 235.158 128.572 235.029 128.912C234.903 129.249 234.683 129.625 234.368 130.04C234.057 130.453 233.624 130.956 233.07 131.551L230.899 133.874V133.949H235.393V134.988H229.293ZM237.343 134.988V134.138L240.534 130.645C240.909 130.236 241.217 129.88 241.459 129.578C241.702 129.273 241.881 128.986 241.998 128.719C242.117 128.448 242.177 128.165 242.177 127.869C242.177 127.529 242.095 127.235 241.931 126.986C241.771 126.737 241.551 126.545 241.27 126.41C240.99 126.275 240.676 126.207 240.326 126.207C239.955 126.207 239.631 126.284 239.354 126.438C239.08 126.589 238.868 126.802 238.716 127.076C238.569 127.35 238.495 127.671 238.495 128.039H237.38C237.38 127.472 237.511 126.975 237.772 126.547C238.033 126.119 238.389 125.785 238.839 125.546C239.292 125.307 239.801 125.187 240.364 125.187C240.931 125.187 241.433 125.307 241.87 125.546C242.308 125.785 242.651 126.108 242.899 126.514C243.148 126.92 243.272 127.372 243.272 127.869C243.272 128.224 243.208 128.572 243.079 128.912C242.953 129.249 242.732 129.625 242.418 130.04C242.106 130.453 241.673 130.956 241.119 131.551L238.948 133.874V133.949H243.442V134.988H237.343Z" fill="#4B4B4B"/>
<path d="M16.3777 170.439V169.59L19.569 166.096C19.9436 165.687 20.252 165.331 20.4943 165.029C20.7367 164.724 20.9161 164.438 21.0325 164.17C21.1521 163.899 21.2119 163.616 21.2119 163.32C21.2119 162.98 21.1301 162.686 20.9664 162.437C20.8059 162.189 20.5856 161.997 20.3055 161.861C20.0254 161.726 19.7107 161.658 19.3613 161.658C18.9899 161.658 18.6658 161.736 18.3888 161.89C18.115 162.041 17.9025 162.253 17.7515 162.527C17.6035 162.801 17.5296 163.122 17.5296 163.49H16.4154C16.4154 162.924 16.546 162.426 16.8073 161.998C17.0685 161.57 17.4241 161.237 17.8742 160.998C18.3274 160.758 18.8357 160.639 19.3991 160.639C19.9656 160.639 20.4676 160.758 20.9051 160.998C21.3425 161.237 21.6856 161.559 21.9342 161.965C22.1829 162.371 22.3072 162.823 22.3072 163.32C22.3072 163.676 22.2427 164.024 22.1136 164.364C21.9877 164.7 21.7674 165.076 21.4527 165.492C21.1411 165.904 20.7084 166.408 20.1544 167.003L17.9828 169.325V169.401H22.4772V170.439H16.3777ZM27.6938 170.572C27.0707 170.572 26.5152 170.465 26.0273 170.251C25.5426 170.037 25.1571 169.739 24.8707 169.358C24.5874 168.974 24.4332 168.529 24.408 168.022H25.5977C25.6229 168.334 25.7299 168.603 25.9187 168.83C26.1076 169.053 26.3546 169.226 26.6599 169.349C26.9652 169.472 27.3036 169.533 27.6749 169.533C28.0904 169.533 28.4586 169.461 28.7796 169.316C29.1007 169.171 29.3525 168.97 29.535 168.712C29.7175 168.453 29.8088 168.155 29.8088 167.815C29.8088 167.459 29.7207 167.146 29.5444 166.875C29.3682 166.601 29.1101 166.387 28.7702 166.233C28.4303 166.079 28.0148 166.002 27.5239 166.002H26.7496V164.963H27.5239C27.9078 164.963 28.2446 164.894 28.5342 164.755C28.8269 164.617 29.055 164.422 29.2187 164.17C29.3855 163.918 29.4689 163.622 29.4689 163.282C29.4689 162.955 29.3965 162.67 29.2517 162.428C29.107 162.186 28.9024 161.997 28.638 161.861C28.3768 161.726 28.0684 161.658 27.7127 161.658C27.3791 161.658 27.0644 161.72 26.7685 161.843C26.4758 161.962 26.2366 162.137 26.0509 162.367C25.8652 162.593 25.7645 162.867 25.7488 163.188H24.6158C24.6346 162.681 24.7873 162.238 25.0737 161.857C25.3601 161.473 25.7346 161.174 26.1973 160.96C26.6631 160.746 27.1745 160.639 27.7316 160.639C28.3296 160.639 28.8426 160.76 29.2706 161.002C29.6987 161.241 30.0276 161.558 30.2573 161.951C30.4871 162.345 30.6019 162.769 30.6019 163.226C30.6019 163.77 30.4587 164.235 30.1723 164.618C29.8891 165.002 29.5035 165.268 29.0157 165.416V165.492C29.6263 165.593 30.1031 165.852 30.4461 166.271C30.7892 166.686 30.9607 167.201 30.9607 167.815C30.9607 168.34 30.8175 168.812 30.5311 169.231C30.2479 169.646 29.8607 169.974 29.3698 170.213C28.8788 170.452 28.3201 170.572 27.6938 170.572Z" fill="#E0E0E0"/>
<path d="M51.9002 170.439V169.59L55.0916 166.096C55.4661 165.687 55.7746 165.331 56.0169 165.029C56.2593 164.724 56.4387 164.438 56.5551 164.17C56.6747 163.899 56.7345 163.616 56.7345 163.32C56.7345 162.98 56.6527 162.686 56.489 162.437C56.3285 162.189 56.1082 161.997 55.8281 161.861C55.548 161.726 55.2332 161.658 54.8839 161.658C54.5125 161.658 54.1883 161.736 53.9114 161.89C53.6376 162.041 53.4251 162.253 53.274 162.527C53.1261 162.801 53.0522 163.122 53.0522 163.49H51.938C51.938 162.924 52.0686 162.426 52.3298 161.998C52.5911 161.57 52.9467 161.237 53.3968 160.998C53.85 160.758 54.3583 160.639 54.9217 160.639C55.4882 160.639 55.9902 160.758 56.4276 160.998C56.8651 161.237 57.2082 161.559 57.4568 161.965C57.7055 162.371 57.8298 162.823 57.8298 163.32C57.8298 163.676 57.7653 164.024 57.6362 164.364C57.5103 164.7 57.29 165.076 56.9753 165.492C56.6637 165.904 56.2309 166.408 55.677 167.003L53.5054 169.325V169.401H57.9997V170.439H51.9002ZM59.5152 168.457V167.494L63.764 160.771H64.4627V162.263H63.9906L60.7804 167.342V167.418H66.5022V168.457H59.5152ZM64.0662 170.439V168.164V167.715V160.771H65.1803V170.439H64.0662Z" fill="#E0E0E0"/>
<path d="M87.4683 170.439V169.59L90.6596 166.096C91.0342 165.687 91.3426 165.331 91.5849 165.029C91.8273 164.724 92.0067 164.438 92.1231 164.17C92.2427 163.899 92.3025 163.616 92.3025 163.32C92.3025 162.98 92.2207 162.686 92.057 162.437C91.8965 162.189 91.6762 161.997 91.3961 161.861C91.116 161.726 90.8013 161.658 90.4519 161.658C90.0805 161.658 89.7563 161.736 89.4794 161.89C89.2056 162.041 88.9931 162.253 88.8421 162.527C88.6941 162.801 88.6202 163.122 88.6202 163.49H87.506C87.506 162.924 87.6366 162.426 87.8979 161.998C88.1591 161.57 88.5147 161.237 88.9648 160.998C89.418 160.758 89.9263 160.639 90.4897 160.639C91.0562 160.639 91.5582 160.758 91.9957 160.998C92.4331 161.237 92.7762 161.559 93.0248 161.965C93.2735 162.371 93.3978 162.823 93.3978 163.32C93.3978 163.676 93.3333 164.024 93.2042 164.364C93.0783 164.7 92.858 165.076 92.5433 165.492C92.2317 165.904 91.799 166.408 91.245 167.003L89.0734 169.325V169.401H93.5677V170.439H87.4683ZM98.5389 170.572C97.985 170.572 97.4861 170.461 97.0424 170.241C96.5986 170.021 96.243 169.719 95.9754 169.335C95.7079 168.951 95.5616 168.513 95.5364 168.022H96.6694C96.7135 168.46 96.9118 168.822 97.2643 169.108C97.6199 169.391 98.0448 169.533 98.5389 169.533C98.9355 169.533 99.288 169.44 99.5964 169.254C99.908 169.069 100.152 168.814 100.328 168.49C100.508 168.162 100.597 167.793 100.597 167.38C100.597 166.959 100.504 166.582 100.319 166.252C100.136 165.918 99.8844 165.656 99.5634 165.464C99.2423 165.272 98.8757 165.174 98.4634 165.171C98.1675 165.168 97.8638 165.213 97.5522 165.308C97.2407 165.399 96.9842 165.517 96.7827 165.662L95.6875 165.53L96.2729 160.771H101.296V161.81H97.2548L96.9149 164.661H96.9716C97.1698 164.504 97.4185 164.373 97.7175 164.269C98.0165 164.165 98.3281 164.113 98.6522 164.113C99.2439 164.113 99.7711 164.255 100.234 164.538C100.7 164.818 101.065 165.202 101.329 165.69C101.597 166.178 101.73 166.735 101.73 167.361C101.73 167.978 101.592 168.529 101.315 169.014C101.041 169.495 100.663 169.876 100.182 170.156C99.7003 170.433 99.1527 170.572 98.5389 170.572Z" fill="#E0E0E0"/>
<path d="M122.816 170.439V169.59L126.007 166.096C126.381 165.687 126.69 165.331 126.932 165.029C127.175 164.724 127.354 164.438 127.47 164.17C127.59 163.899 127.65 163.616 127.65 163.32C127.65 162.98 127.568 162.686 127.404 162.437C127.244 162.189 127.024 161.997 126.743 161.861C126.463 161.726 126.149 161.658 125.799 161.658C125.428 161.658 125.104 161.736 124.827 161.89C124.553 162.041 124.34 162.253 124.189 162.527C124.041 162.801 123.967 163.122 123.967 163.49H122.853C122.853 162.924 122.984 162.426 123.245 161.998C123.506 161.57 123.862 161.237 124.312 160.998C124.765 160.758 125.274 160.639 125.837 160.639C126.403 160.639 126.905 160.758 127.343 160.998C127.78 161.237 128.124 161.559 128.372 161.965C128.621 162.371 128.745 162.823 128.745 163.32C128.745 163.676 128.681 164.024 128.552 164.364C128.426 164.7 128.205 165.076 127.891 165.492C127.579 165.904 127.146 166.408 126.592 167.003L124.421 169.325V169.401H128.915V170.439H122.816ZM134.075 170.572C133.679 170.565 133.282 170.49 132.885 170.345C132.489 170.2 132.127 169.956 131.8 169.613C131.472 169.267 131.209 168.8 131.011 168.211C130.813 167.619 130.714 166.877 130.714 165.983C130.714 165.127 130.794 164.368 130.955 163.707C131.115 163.043 131.348 162.485 131.653 162.031C131.959 161.575 132.327 161.229 132.758 160.993C133.192 160.757 133.682 160.639 134.226 160.639C134.767 160.639 135.249 160.747 135.671 160.964C136.096 161.178 136.442 161.477 136.709 161.861C136.977 162.245 137.15 162.688 137.229 163.188H136.077C135.97 162.754 135.762 162.393 135.454 162.107C135.145 161.821 134.736 161.677 134.226 161.677C133.477 161.677 132.887 162.003 132.456 162.655C132.028 163.306 131.812 164.22 131.809 165.397H131.885C132.061 165.13 132.27 164.902 132.512 164.713C132.758 164.521 133.029 164.373 133.324 164.269C133.62 164.165 133.933 164.113 134.264 164.113C134.818 164.113 135.325 164.252 135.784 164.529C136.244 164.803 136.612 165.182 136.889 165.667C137.166 166.148 137.304 166.7 137.304 167.324C137.304 167.922 137.17 168.469 136.903 168.967C136.635 169.461 136.259 169.854 135.775 170.147C135.293 170.436 134.727 170.578 134.075 170.572ZM134.075 169.533C134.472 169.533 134.827 169.434 135.142 169.236C135.46 169.037 135.71 168.771 135.893 168.438C136.078 168.104 136.171 167.733 136.171 167.324C136.171 166.924 136.081 166.56 135.902 166.233C135.726 165.903 135.482 165.64 135.17 165.445C134.862 165.25 134.509 165.152 134.113 165.152C133.814 165.152 133.535 165.212 133.277 165.331C133.019 165.448 132.793 165.608 132.597 165.813C132.405 166.017 132.254 166.252 132.144 166.516C132.034 166.778 131.979 167.053 131.979 167.342C131.979 167.726 132.069 168.085 132.248 168.419C132.431 168.752 132.679 169.022 132.994 169.226C133.312 169.431 133.672 169.533 134.075 169.533Z" fill="#E0E0E0"/>
<path d="M158.618 170.439V169.59L161.81 166.096C162.184 165.687 162.493 165.331 162.735 165.029C162.977 164.724 163.157 164.438 163.273 164.17C163.393 163.899 163.453 163.616 163.453 163.32C163.453 162.98 163.371 162.686 163.207 162.437C163.047 162.189 162.826 161.997 162.546 161.861C162.266 161.726 161.951 161.658 161.602 161.658C161.231 161.658 160.906 161.736 160.629 161.89C160.356 162.041 160.143 162.253 159.992 162.527C159.844 162.801 159.77 163.122 159.77 163.49H158.656C158.656 162.924 158.787 162.426 159.048 161.998C159.309 161.57 159.665 161.237 160.115 160.998C160.568 160.758 161.076 160.639 161.64 160.639C162.206 160.639 162.708 160.758 163.146 160.998C163.583 161.237 163.926 161.559 164.175 161.965C164.423 162.371 164.548 162.823 164.548 163.32C164.548 163.676 164.483 164.024 164.354 164.364C164.228 164.7 164.008 165.076 163.693 165.492C163.382 165.904 162.949 166.408 162.395 167.003L160.223 169.325V169.401H164.718V170.439H158.618ZM166.97 170.439L171.294 161.885V161.81H166.309V160.771H172.503V161.866L168.197 170.439H166.97Z" fill="#E0E0E0"/>
<path d="M193.771 170.439V169.59L196.962 166.096C197.337 165.687 197.645 165.331 197.887 165.029C198.13 164.724 198.309 164.438 198.426 164.17C198.545 163.899 198.605 163.616 198.605 163.32C198.605 162.98 198.523 162.686 198.36 162.437C198.199 162.189 197.979 161.997 197.699 161.861C197.419 161.726 197.104 161.658 196.754 161.658C196.383 161.658 196.059 161.736 195.782 161.89C195.508 162.041 195.296 162.253 195.145 162.527C194.997 162.801 194.923 163.122 194.923 163.49H193.809C193.809 162.924 193.939 162.426 194.2 161.998C194.462 161.57 194.817 161.237 195.267 160.998C195.721 160.758 196.229 160.639 196.792 160.639C197.359 160.639 197.861 160.758 198.298 160.998C198.736 161.237 199.079 161.559 199.327 161.965C199.576 162.371 199.7 162.823 199.7 163.32C199.7 163.676 199.636 164.024 199.507 164.364C199.381 164.7 199.161 165.076 198.846 165.492C198.534 165.904 198.102 166.408 197.548 167.003L195.376 169.325V169.401H199.87V170.439H193.771ZM204.917 170.572C204.269 170.572 203.696 170.457 203.199 170.227C202.704 169.994 202.319 169.675 202.042 169.269C201.765 168.86 201.628 168.394 201.631 167.871C201.628 167.462 201.708 167.084 201.872 166.738C202.036 166.389 202.259 166.098 202.542 165.865C202.829 165.629 203.148 165.479 203.501 165.416V165.36C203.038 165.24 202.67 164.98 202.396 164.581C202.122 164.178 201.987 163.72 201.99 163.207C201.987 162.716 202.111 162.277 202.363 161.89C202.615 161.503 202.961 161.197 203.402 160.974C203.845 160.75 204.351 160.639 204.917 160.639C205.477 160.639 205.978 160.75 206.418 160.974C206.859 161.197 207.205 161.503 207.457 161.89C207.712 162.277 207.841 162.716 207.844 163.207C207.841 163.72 207.701 164.178 207.424 164.581C207.15 164.98 206.787 165.24 206.333 165.36V165.416C206.683 165.479 206.997 165.629 207.278 165.865C207.558 166.098 207.781 166.389 207.948 166.738C208.115 167.084 208.2 167.462 208.203 167.871C208.2 168.394 208.058 168.86 207.778 169.269C207.501 169.675 207.115 169.994 206.621 170.227C206.13 170.457 205.562 170.572 204.917 170.572ZM204.917 169.533C205.354 169.533 205.732 169.462 206.05 169.321C206.368 169.179 206.613 168.979 206.787 168.721C206.96 168.463 207.048 168.161 207.051 167.815C207.048 167.45 206.953 167.127 206.768 166.847C206.582 166.567 206.329 166.346 206.008 166.186C205.69 166.025 205.326 165.945 204.917 165.945C204.505 165.945 204.136 166.025 203.812 166.186C203.491 166.346 203.238 166.567 203.052 166.847C202.87 167.127 202.78 167.45 202.783 167.815C202.78 168.161 202.863 168.463 203.033 168.721C203.206 168.979 203.454 169.179 203.775 169.321C204.096 169.462 204.476 169.533 204.917 169.533ZM204.917 164.944C205.263 164.944 205.57 164.875 205.838 164.737C206.108 164.598 206.321 164.404 206.475 164.156C206.629 163.907 206.708 163.616 206.711 163.282C206.708 162.955 206.631 162.67 206.48 162.428C206.329 162.182 206.119 161.994 205.852 161.861C205.584 161.726 205.273 161.658 204.917 161.658C204.555 161.658 204.239 161.726 203.968 161.861C203.697 161.994 203.488 162.182 203.34 162.428C203.192 162.67 203.12 162.955 203.123 163.282C203.12 163.616 203.194 163.907 203.345 164.156C203.499 164.404 203.712 164.598 203.982 164.737C204.253 164.875 204.565 164.944 204.917 164.944Z" fill="#4B4B4B"/>
<path d="M229.17 170.439V169.59L232.361 166.096C232.736 165.687 233.044 165.331 233.287 165.029C233.529 164.724 233.708 164.438 233.825 164.17C233.945 163.899 234.004 163.616 234.004 163.32C234.004 162.98 233.922 162.686 233.759 162.437C233.598 162.189 233.378 161.997 233.098 161.861C232.818 161.726 232.503 161.658 232.154 161.658C231.782 161.658 231.458 161.736 231.181 161.89C230.907 162.041 230.695 162.253 230.544 162.527C230.396 162.801 230.322 163.122 230.322 163.49H229.208C229.208 162.924 229.338 162.426 229.6 161.998C229.861 161.57 230.217 161.237 230.667 160.998C231.12 160.758 231.628 160.639 232.191 160.639C232.758 160.639 233.26 160.758 233.697 160.998C234.135 161.237 234.478 161.559 234.727 161.965C234.975 162.371 235.1 162.823 235.1 163.32C235.1 163.676 235.035 164.024 234.906 164.364C234.78 164.7 234.56 165.076 234.245 165.492C233.934 165.904 233.501 166.408 232.947 167.003L230.775 169.325V169.401H235.27V170.439H229.17ZM240.297 160.639C240.694 160.642 241.091 160.717 241.487 160.865C241.884 161.013 242.246 161.259 242.573 161.602C242.9 161.942 243.163 162.406 243.361 162.994C243.56 163.583 243.659 164.321 243.659 165.209C243.659 166.068 243.577 166.831 243.413 167.498C243.253 168.162 243.02 168.723 242.715 169.179C242.412 169.635 242.044 169.982 241.61 170.218C241.179 170.454 240.691 170.572 240.146 170.572C239.605 170.572 239.122 170.465 238.697 170.251C238.275 170.033 237.929 169.733 237.658 169.349C237.391 168.962 237.219 168.513 237.144 168.003H238.296C238.4 168.447 238.606 168.814 238.914 169.103C239.226 169.39 239.636 169.533 240.146 169.533C240.892 169.533 241.481 169.207 241.912 168.556C242.346 167.904 242.563 166.984 242.563 165.794H242.488C242.312 166.058 242.102 166.287 241.86 166.479C241.618 166.671 241.349 166.818 241.053 166.922C240.757 167.026 240.442 167.078 240.109 167.078C239.555 167.078 239.046 166.941 238.584 166.667C238.124 166.39 237.756 166.011 237.479 165.53C237.205 165.045 237.068 164.491 237.068 163.868C237.068 163.276 237.2 162.735 237.465 162.244C237.732 161.75 238.107 161.356 238.588 161.064C239.073 160.771 239.643 160.629 240.297 160.639ZM240.297 161.677C239.901 161.677 239.544 161.776 239.226 161.975C238.911 162.17 238.661 162.434 238.475 162.768C238.293 163.098 238.201 163.465 238.201 163.868C238.201 164.271 238.289 164.637 238.466 164.968C238.645 165.295 238.889 165.556 239.197 165.752C239.509 165.944 239.863 166.04 240.26 166.04C240.559 166.04 240.837 165.981 241.095 165.865C241.353 165.745 241.578 165.583 241.77 165.379C241.965 165.171 242.118 164.936 242.228 164.675C242.338 164.411 242.393 164.135 242.393 163.849C242.393 163.471 242.302 163.117 242.12 162.787C241.94 162.456 241.692 162.189 241.374 161.984C241.059 161.78 240.7 161.677 240.297 161.677Z" fill="#4B4B4B"/>
<path d="M19.5147 206.023C18.8916 206.023 18.3361 205.916 17.8482 205.702C17.3636 205.488 16.978 205.19 16.6916 204.81C16.4083 204.426 16.2541 203.98 16.2289 203.473H17.4186C17.4438 203.785 17.5508 204.054 17.7397 204.281C17.9285 204.504 18.1756 204.677 18.4809 204.8C18.7861 204.923 19.1245 204.984 19.4959 204.984C19.9113 204.984 20.2795 204.912 20.6006 204.767C20.9216 204.622 21.1734 204.421 21.3559 204.163C21.5385 203.905 21.6297 203.606 21.6297 203.266C21.6297 202.91 21.5416 202.597 21.3654 202.326C21.1891 202.052 20.931 201.838 20.5911 201.684C20.2512 201.53 19.8358 201.453 19.3448 201.453H18.5706V200.414H19.3448C19.7288 200.414 20.0655 200.345 20.3551 200.207C20.6478 200.068 20.876 199.873 21.0396 199.621C21.2064 199.369 21.2898 199.074 21.2898 198.734C21.2898 198.406 21.2174 198.121 21.0727 197.879C20.9279 197.637 20.7233 197.448 20.4589 197.313C20.1977 197.177 19.8893 197.11 19.5336 197.11C19.2 197.11 18.8853 197.171 18.5894 197.294C18.2967 197.413 18.0575 197.588 17.8718 197.818C17.6862 198.044 17.5854 198.318 17.5697 198.639H16.4367C16.4556 198.132 16.6082 197.689 16.8946 197.308C17.181 196.924 17.5555 196.625 18.0182 196.411C18.484 196.197 18.9954 196.09 19.5525 196.09C20.1505 196.09 20.6635 196.211 21.0915 196.453C21.5196 196.693 21.8485 197.009 22.0782 197.402C22.308 197.796 22.4229 198.221 22.4229 198.677C22.4229 199.221 22.2797 199.686 21.9933 200.07C21.71 200.454 21.3244 200.72 20.8366 200.868V200.943C21.4472 201.044 21.924 201.303 22.2671 201.722C22.6101 202.137 22.7817 202.652 22.7817 203.266C22.7817 203.791 22.6385 204.263 22.352 204.682C22.0688 205.098 21.6817 205.425 21.1907 205.664C20.6997 205.903 20.1411 206.023 19.5147 206.023ZM27.8661 206.023C27.1548 206.023 26.549 205.829 26.0486 205.442C25.5481 205.052 25.1657 204.487 24.9014 203.747C24.637 203.005 24.5048 202.108 24.5048 201.056C24.5048 200.011 24.637 199.119 24.9014 198.38C25.1689 197.637 25.5529 197.07 26.0533 196.68C26.5569 196.287 27.1611 196.09 27.8661 196.09C28.5711 196.09 29.1738 196.287 29.6743 196.68C30.1778 197.07 30.5618 197.637 30.8262 198.38C31.0937 199.119 31.2275 200.011 31.2275 201.056C31.2275 202.108 31.0953 203.005 30.8309 203.747C30.5665 204.487 30.1841 205.052 29.6837 205.442C29.1833 205.829 28.5774 206.023 27.8661 206.023ZM27.8661 204.984C28.5711 204.984 29.1188 204.644 29.509 203.964C29.8993 203.285 30.0944 202.315 30.0944 201.056C30.0944 200.219 30.0047 199.506 29.8253 198.918C29.6491 198.329 29.3942 197.881 29.0605 197.572C28.7301 197.264 28.3319 197.11 27.8661 197.11C27.1674 197.11 26.6214 197.454 26.228 198.144C25.8345 198.83 25.6378 199.801 25.6378 201.056C25.6378 201.894 25.726 202.605 25.9022 203.19C26.0785 203.776 26.3318 204.221 26.6623 204.526C26.9959 204.832 27.3972 204.984 27.8661 204.984Z" fill="#E0E0E0"/>
<path d="M56.0305 206.023C55.4073 206.023 54.8518 205.916 54.364 205.702C53.8793 205.488 53.4938 205.19 53.2074 204.81C52.9241 204.426 52.7699 203.98 52.7447 203.473H53.9344C53.9596 203.785 54.0666 204.054 54.2554 204.281C54.4442 204.504 54.6913 204.677 54.9966 204.8C55.3019 204.923 55.6402 204.984 56.0116 204.984C56.4271 204.984 56.7953 204.912 57.1163 204.767C57.4373 204.622 57.6891 204.421 57.8717 204.163C58.0542 203.905 58.1455 203.606 58.1455 203.266C58.1455 202.91 58.0574 202.597 57.8811 202.326C57.7049 202.052 57.4468 201.838 57.1069 201.684C56.767 201.53 56.3515 201.453 55.8605 201.453H55.0863V200.414H55.8605C56.2445 200.414 56.5813 200.345 56.8708 200.207C57.1635 200.068 57.3917 199.873 57.5554 199.621C57.7222 199.369 57.8056 199.074 57.8056 198.734C57.8056 198.406 57.7332 198.121 57.5884 197.879C57.4436 197.637 57.2391 197.448 56.9747 197.313C56.7135 197.177 56.405 197.11 56.0494 197.11C55.7158 197.11 55.401 197.171 55.1052 197.294C54.8125 197.413 54.5733 197.588 54.3876 197.818C54.2019 198.044 54.1012 198.318 54.0855 198.639H52.9524C52.9713 198.132 53.124 197.689 53.4104 197.308C53.6968 196.924 54.0713 196.625 54.5339 196.411C54.9997 196.197 55.5112 196.09 56.0683 196.09C56.6663 196.09 57.1793 196.211 57.6073 196.453C58.0353 196.693 58.3642 197.009 58.594 197.402C58.8237 197.796 58.9386 198.221 58.9386 198.677C58.9386 199.221 58.7954 199.686 58.509 200.07C58.2257 200.454 57.8402 200.72 57.3524 200.868V200.943C57.9629 201.044 58.4398 201.303 58.7828 201.722C59.1259 202.137 59.2974 202.652 59.2974 203.266C59.2974 203.791 59.1542 204.263 58.8678 204.682C58.5845 205.098 58.1974 205.425 57.7064 205.664C57.2155 205.903 56.6568 206.023 56.0305 206.023ZM64.6274 196.222V205.891H63.4566V197.45H63.3999L61.0394 199.017V197.827L63.4566 196.222H64.6274Z" fill="#E0E0E0"/>
<defs>
<radialGradient id="paint0_radial_102_8219" cx="0" cy="0" r="1" gradientUnits="userSpaceOnUse" gradientTransform="translate(112.262 111.924) rotate(138.739) scale(53.7554 95.2411)">
<stop stop-color="#F3C070"/>
<stop offset="1" stop-color="#3B2A16"/>
</radialGradient>
</defs>
</svg>
