<svg width="183" height="51" viewBox="0 0 183 51" fill="none" xmlns="http://www.w3.org/2000/svg">
<path d="M33.0281 18.6959C31.1641 16.8737 28.6603 15.8533 26.053 15.8533C23.4456 15.8533 20.9419 16.8737 19.0779 18.6959C18.1643 19.608 17.4403 20.6917 16.9474 21.8847C16.4546 23.0776 16.2027 24.3561 16.2062 25.6468C16.2097 26.9374 16.4686 28.2146 16.9679 29.4048C17.4672 30.595 18.1971 31.6748 19.1156 32.582C20.9742 34.4263 23.4846 35.465 26.1037 35.4732C28.7227 35.4814 31.2397 34.4586 33.1098 32.626C33.179 32.5568 33.4495 32.2614 33.9275 31.7333L29.2732 27.113C28.7952 27.6662 28.5436 27.9554 28.5122 27.9805C27.8805 28.6085 27.0257 28.961 26.1347 28.961C25.2437 28.961 24.389 28.6085 23.7573 27.9805C23.1304 27.3652 22.7736 26.5262 22.7653 25.648C22.7571 24.7698 23.098 23.9243 23.7133 23.2973C24.3482 22.6857 25.1977 22.3472 26.0795 22.3542C26.9614 22.3613 27.8053 22.7134 28.4304 23.335L40.8711 35.6747C39.1526 38.1317 36.8681 40.1395 34.2103 41.5289C31.5526 42.9184 28.5995 43.6486 25.6001 43.6581C22.4493 43.6592 19.3506 42.8541 16.5992 41.3196C13.8477 39.7851 11.535 37.5723 9.88132 34.8918C8.2276 32.2112 7.28788 29.1523 7.15164 26.0061C7.0154 22.8599 7.68717 19.7312 9.10299 16.9179C10.5188 14.1046 12.6316 11.7003 15.2401 9.93399C17.8486 8.16764 20.8661 7.09802 24.0052 6.82695C27.1443 6.55589 30.3006 7.09241 33.1736 8.38543C36.0466 9.67845 38.5406 11.6849 40.4182 14.2138C39.8731 14.8508 38.4706 16.437 36.2105 18.9725L40.8208 23.5048L48.4185 14.987C46.5817 10.8801 43.6701 7.34462 39.9908 4.75339C36.3114 2.16216 32.0007 0.611187 27.5131 0.264019C23.0255 -0.08315 18.5274 0.786346 14.4929 2.78083C10.4584 4.77531 7.0372 7.82086 4.58989 11.5964C2.14258 15.3719 0.759911 19.7374 0.587662 24.2327C0.415414 28.728 1.45997 33.1865 3.6112 37.138C5.76243 41.0896 8.9406 44.3877 12.8106 46.6847C16.6806 48.9818 21.0991 50.1926 25.6001 50.1894C31.8896 50.1894 37.0911 48.2345 42.1793 43.9033C45.105 41.3275 47.4319 38.1437 48.9972 34.5747L33.0281 18.6959Z" fill="url(#paint0_linear_85_7403)"/>
<path d="M135.792 28.5838V40.5274H130.855V28.326C130.582 26.9198 129.824 25.6538 128.714 24.7482C127.603 23.8427 126.21 23.3549 124.777 23.3699C123.344 23.3848 121.961 23.9015 120.87 24.8301C119.779 25.7586 119.048 27.0401 118.804 28.4517V40.5526H113.867V18.8339L117.641 21.2101C119.65 19.5119 122.198 18.5828 124.83 18.5888C127.581 18.565 130.241 19.5819 132.274 21.4356C134.307 23.2893 135.564 25.8427 135.792 28.5838ZM83.998 16.0806C82.3668 16.9193 80.9008 18.0459 79.6708 19.406C78.6863 17.9962 77.3546 16.8641 75.8045 16.119C74.2543 15.3738 72.5381 15.041 70.8216 15.1525C69.1051 15.264 67.4464 15.8162 66.0058 16.7556C64.5652 17.695 63.3914 18.9899 62.5978 20.5152C61.8042 22.0405 61.4177 23.7446 61.4756 25.4628C61.5335 27.181 62.0338 28.8553 62.9283 30.3237C63.8227 31.7922 65.081 33.0053 66.5816 33.8457C68.0822 34.6861 69.7743 35.1255 71.4944 35.1214C73.2272 35.1358 74.9344 34.7027 76.4505 33.8641C76.9886 35.6071 77.8412 37.2369 78.9664 38.673C76.6686 39.9174 74.0952 40.5658 71.4818 40.5589C69.4399 40.6002 67.4103 40.2339 65.5118 39.4815C63.6134 38.7291 61.8842 37.6056 60.4255 36.177C58.9668 34.7483 57.808 33.0431 57.0169 31.1613C56.2258 29.2794 55.8184 27.2587 55.8184 25.2175C55.8184 23.1763 56.2258 21.1556 57.0169 19.2738C57.808 17.3919 58.9668 15.6868 60.4255 14.2581C61.8842 12.8294 63.6134 11.706 65.5118 10.9536C67.4103 10.2012 69.4399 9.83488 71.4818 9.87619C73.9007 9.87082 76.2876 10.4294 78.4527 11.5075C80.6178 12.5857 82.5014 14.1537 83.9539 16.0869L83.998 16.0806ZM91.3379 40.5526C89.2001 40.5278 87.1174 39.8715 85.3519 38.6664C83.5864 37.4613 82.217 35.7612 81.416 33.78C80.6151 31.7989 80.4183 29.6252 80.8506 27.5325C81.2828 25.4398 82.3247 23.5217 83.8452 22.0195C85.3656 20.5173 87.2967 19.4982 89.3953 19.0904C91.4939 18.6825 93.6664 18.9042 95.6393 19.7276C97.6121 20.5509 99.2972 21.9391 100.483 23.7174C101.668 25.4958 102.3 27.5848 102.3 29.7216C102.292 31.1522 102.002 32.5671 101.447 33.8857C100.891 35.2043 100.082 36.4006 99.0636 37.4063C98.0456 38.4121 96.8394 39.2076 95.5138 39.7474C94.1882 40.2873 92.7692 40.5609 91.3379 40.5526ZM91.3379 35.7374C92.525 35.7225 93.6812 35.3571 94.6611 34.6871C95.6409 34.0171 96.4006 33.0724 96.8446 31.9719C97.2887 30.8714 97.3971 29.6643 97.1564 28.5024C96.9157 27.3404 96.3366 26.2756 95.4919 25.4418C94.6472 24.608 93.5746 24.0425 92.4092 23.8164C91.2437 23.5903 90.0373 23.7138 88.9419 24.1712C87.8464 24.6287 86.9108 25.3997 86.2527 26.3873C85.5946 27.3749 85.2434 28.535 85.2433 29.7216C85.2474 30.5168 85.4084 31.3033 85.7171 32.0363C86.0257 32.7692 86.476 33.4341 87.0421 33.9929C87.6082 34.5517 88.279 34.9934 89.0161 35.2927C89.7533 35.5921 90.5422 35.7432 91.3379 35.7374ZM105.351 18.8968H110.225V40.5526H105.351V18.8968ZM158.346 15.0623H144.409V22.9325H157.944V27.8169H144.409V35.662H158.346V40.5526H139.157V10.1716H158.346V15.0623ZM168.598 29.6775L161.095 18.8968H167.296C167.479 19.1985 167.749 19.6134 168.101 20.154L170.661 24.0074C171.07 24.6361 171.359 25.0761 171.529 25.3715L171.781 25.799L176.24 18.9157H182.146L174.787 29.4953L182.429 40.5526H176.303L171.58 33.4744L171.322 33.8453C171.114 34.147 170.806 34.6185 170.391 35.2534C169.976 35.8883 169.542 36.5609 169.07 37.2649L167.743 39.2891C167.391 39.8297 167.114 40.2508 166.944 40.5463H161.089L168.598 29.6775Z" fill="url(#paint1_linear_85_7403)"/>
<path d="M106.079 16.0655C105.705 15.8527 105.379 15.5654 105.121 15.2214C104.862 14.8774 104.677 14.4839 104.577 14.0654C104.352 13.2078 104.475 12.2958 104.918 11.5278C105.361 10.7597 106.09 10.1977 106.945 9.96389C107.361 9.83531 107.8 9.79625 108.232 9.8493C108.665 9.90234 109.081 10.0463 109.453 10.2717C110.215 10.717 110.769 11.4457 110.994 12.2986C111.22 13.1515 111.099 14.0592 110.658 14.8235C110.443 15.21 110.153 15.5493 109.804 15.8208C109.455 16.0924 109.055 16.2907 108.628 16.4038C108.202 16.5252 107.757 16.5578 107.318 16.4996C106.88 16.4414 106.458 16.2936 106.079 16.0655Z" fill="url(#paint2_linear_85_7403)"/>
<defs>
<linearGradient id="paint0_linear_85_7403" x1="48.2631" y1="26.6388" x2="-0.135608" y2="26.6388" gradientUnits="userSpaceOnUse">
<stop stop-color="white"/>
<stop offset="1" stop-color="#8C8C8C"/>
</linearGradient>
<linearGradient id="paint1_linear_85_7403" x1="119.124" y1="9.87305" x2="119.124" y2="40.562" gradientUnits="userSpaceOnUse">
<stop stop-color="white"/>
<stop offset="1" stop-color="#767676"/>
</linearGradient>
<linearGradient id="paint2_linear_85_7403" x1="108.108" y1="10.0657" x2="104.758" y2="15.8678" gradientUnits="userSpaceOnUse">
<stop stop-color="white"/>
<stop offset="1" stop-color="#313030"/>
</linearGradient>
</defs>
</svg>
