<svg width="813" height="394" viewBox="0 0 813 394" fill="none" xmlns="http://www.w3.org/2000/svg">
<g opacity="0.7">
<path opacity="0.3" d="M374.022 384.552C374.294 384.375 374.371 384.012 374.194 383.74C374.018 383.468 373.654 383.391 373.383 383.567C373.111 383.744 373.033 384.107 373.21 384.379C373.386 384.651 373.75 384.728 374.022 384.552Z" fill="#DFAB60"/>
<path d="M428.134 388.641C428.542 388.376 428.659 387.831 428.394 387.422C428.129 387.014 427.583 386.898 427.175 387.163C426.767 387.428 426.651 387.973 426.916 388.382C427.181 388.79 427.726 388.906 428.134 388.641Z" fill="#DFAB60"/>
<path d="M422.375 353.873C422.784 353.609 422.9 353.063 422.635 352.655C422.37 352.247 421.824 352.131 421.416 352.395C421.008 352.66 420.892 353.206 421.157 353.614C421.422 354.022 421.967 354.138 422.375 353.873Z" fill="#DFAB60"/>
<path d="M279.013 388.101C279.557 387.748 279.712 387.02 279.359 386.476C279.006 385.932 278.278 385.777 277.734 386.13C277.189 386.483 277.034 387.211 277.388 387.755C277.741 388.3 278.469 388.454 279.013 388.101Z" fill="#DFAB60"/>
<path opacity="0.3" d="M345.544 382.734C346.089 382.381 346.243 381.653 345.89 381.109C345.537 380.564 344.809 380.409 344.265 380.763C343.721 381.116 343.566 381.844 343.919 382.388C344.272 382.932 345 383.087 345.544 382.734Z" fill="#DFAB60"/>
<path opacity="0.3" d="M417.013 386.06C417.558 385.707 417.713 384.979 417.359 384.435C417.006 383.891 416.279 383.736 415.734 384.089C415.19 384.442 415.035 385.17 415.388 385.714C415.741 386.258 416.469 386.413 417.013 386.06Z" fill="#DFAB60"/>
<path opacity="0.11" d="M387.223 384.388C387.768 384.035 387.923 383.307 387.569 382.763C387.216 382.219 386.489 382.064 385.944 382.417C385.4 382.77 385.245 383.498 385.598 384.042C385.951 384.587 386.679 384.742 387.223 384.388Z" fill="#DFAB60"/>
<path opacity="0.11" d="M273.395 245.859C273.94 245.506 274.095 244.778 273.741 244.234C273.388 243.689 272.66 243.534 272.116 243.888C271.572 244.241 271.417 244.969 271.77 245.513C272.123 246.057 272.851 246.212 273.395 245.859Z" fill="#DFAB60"/>
<path d="M280.111 249.202C280.519 248.937 280.636 248.391 280.371 247.983C280.106 247.575 279.56 247.459 279.152 247.724C278.744 247.988 278.628 248.534 278.893 248.942C279.158 249.35 279.703 249.466 280.111 249.202Z" fill="#DFAB60"/>
<path d="M289.658 228.307C290.066 228.042 290.182 227.497 289.918 227.088C289.653 226.68 289.107 226.564 288.699 226.829C288.291 227.094 288.175 227.639 288.44 228.048C288.704 228.456 289.25 228.572 289.658 228.307Z" fill="#DFAB60"/>
<path d="M247.142 254.495C247.55 254.23 247.666 253.684 247.401 253.276C247.137 252.868 246.591 252.752 246.183 253.016C245.775 253.281 245.659 253.827 245.923 254.235C246.188 254.643 246.734 254.759 247.142 254.495Z" fill="#DFAB60"/>
<path opacity="0.11" d="M230.428 282.142C230.972 281.789 231.127 281.061 230.774 280.517C230.42 279.973 229.693 279.818 229.148 280.171C228.604 280.524 228.449 281.252 228.802 281.796C229.156 282.341 229.883 282.495 230.428 282.142Z" fill="#DFAB60"/>
<path d="M214.037 277.38C214.309 277.204 214.387 276.84 214.21 276.568C214.034 276.296 213.67 276.219 213.398 276.395C213.126 276.572 213.049 276.935 213.225 277.207C213.402 277.479 213.765 277.557 214.037 277.38Z" fill="#DFAB60"/>
<path d="M284.381 266.032C284.652 265.856 284.73 265.492 284.553 265.22C284.377 264.949 284.013 264.871 283.741 265.048C283.469 265.224 283.392 265.588 283.569 265.86C283.745 266.132 284.109 266.209 284.381 266.032Z" fill="#DFAB60"/>
<path d="M391.779 196.339C392.051 196.163 392.128 195.799 391.952 195.527C391.775 195.255 391.412 195.178 391.14 195.354C390.868 195.531 390.791 195.894 390.967 196.166C391.143 196.438 391.507 196.516 391.779 196.339Z" fill="#DFAB60"/>
<path d="M428.209 134.89C428.481 134.713 428.558 134.35 428.382 134.078C428.206 133.806 427.842 133.729 427.57 133.905C427.298 134.082 427.221 134.445 427.397 134.717C427.574 134.989 427.937 135.066 428.209 134.89Z" fill="#DFAB60"/>
<path d="M470.763 158.384C471.035 158.208 471.112 157.844 470.936 157.572C470.759 157.3 470.396 157.223 470.124 157.399C469.852 157.576 469.774 157.939 469.951 158.211C470.127 158.483 470.491 158.56 470.763 158.384Z" fill="#DFAB60"/>
<path d="M112.342 360.175C112.614 359.999 112.692 359.635 112.515 359.363C112.339 359.091 111.975 359.014 111.703 359.19C111.431 359.367 111.354 359.73 111.53 360.002C111.707 360.274 112.07 360.352 112.342 360.175Z" fill="#DFAB60"/>
<path opacity="0.11" d="M87.693 338.366C87.965 338.19 88.0423 337.826 87.8659 337.554C87.6894 337.283 87.3259 337.205 87.0539 337.382C86.782 337.558 86.7046 337.922 86.8811 338.194C87.0575 338.465 87.4211 338.543 87.693 338.366Z" fill="#DFAB60"/>
<path opacity="0.11" d="M73.8649 363.445C74.1368 363.268 74.2142 362.905 74.0378 362.633C73.8613 362.361 73.4977 362.283 73.2258 362.46C72.9539 362.636 72.8765 363 73.053 363.272C73.2294 363.544 73.5929 363.621 73.8649 363.445Z" fill="#DFAB60"/>
<path opacity="0.11" d="M109.303 382.454C109.575 382.278 109.652 381.914 109.476 381.642C109.299 381.37 108.936 381.293 108.664 381.47C108.392 381.646 108.314 382.01 108.491 382.281C108.667 382.553 109.031 382.631 109.303 382.454Z" fill="#DFAB60"/>
<path opacity="0.11" d="M213.756 286.66C214.028 286.483 214.105 286.12 213.929 285.848C213.752 285.576 213.389 285.498 213.117 285.675C212.845 285.851 212.768 286.215 212.944 286.487C213.121 286.759 213.484 286.836 213.756 286.66Z" fill="#DFAB60"/>
<path opacity="0.11" d="M294.912 284.407C295.184 284.231 295.261 283.867 295.085 283.595C294.908 283.324 294.545 283.246 294.273 283.423C294.001 283.599 293.923 283.963 294.1 284.235C294.276 284.507 294.64 284.584 294.912 284.407Z" fill="#DFAB60"/>
<path opacity="0.11" d="M386.295 218.097C386.567 217.92 386.644 217.557 386.468 217.285C386.291 217.013 385.928 216.936 385.656 217.112C385.384 217.289 385.307 217.652 385.483 217.924C385.66 218.196 386.023 218.273 386.295 218.097Z" fill="#DFAB60"/>
<path opacity="0.3" d="M127.013 333.154C127.285 332.977 127.362 332.614 127.186 332.342C127.009 332.07 126.646 331.992 126.374 332.169C126.102 332.345 126.024 332.709 126.201 332.981C126.377 333.253 126.741 333.33 127.013 333.154Z" fill="#DFAB60"/>
<path d="M223.053 233.021C223.325 232.844 223.402 232.481 223.226 232.209C223.049 231.937 222.686 231.859 222.414 232.036C222.142 232.212 222.064 232.576 222.241 232.848C222.417 233.12 222.781 233.197 223.053 233.021Z" fill="#DFAB60"/>
<path d="M298.279 182.802C298.551 182.625 298.628 182.262 298.452 181.99C298.275 181.718 297.912 181.641 297.64 181.817C297.368 181.994 297.291 182.357 297.467 182.629C297.643 182.901 298.007 182.978 298.279 182.802Z" fill="#DFAB60"/>
<path d="M218.967 300.083C219.239 299.907 219.316 299.543 219.14 299.271C218.963 298.999 218.6 298.922 218.328 299.098C218.056 299.275 217.979 299.638 218.155 299.91C218.331 300.182 218.695 300.26 218.967 300.083Z" fill="#DFAB60"/>
<path opacity="0.3" d="M184.483 322.462C184.754 322.286 184.832 321.922 184.655 321.65C184.479 321.378 184.115 321.301 183.843 321.477C183.572 321.654 183.494 322.017 183.671 322.289C183.847 322.561 184.211 322.639 184.483 322.462Z" fill="#DFAB60"/>
<path opacity="0.11" d="M124.271 318.132C124.543 317.956 124.62 317.592 124.444 317.32C124.267 317.048 123.903 316.971 123.632 317.147C123.36 317.324 123.282 317.687 123.459 317.959C123.635 318.231 123.999 318.309 124.271 318.132Z" fill="#DFAB60"/>
<path opacity="0.3" d="M239.599 239.087C239.871 238.911 239.948 238.547 239.772 238.275C239.595 238.003 239.232 237.926 238.96 238.102C238.688 238.279 238.61 238.642 238.787 238.914C238.963 239.186 239.327 239.264 239.599 239.087Z" fill="#DFAB60"/>
<path opacity="0.3" d="M233.42 304.007C233.692 303.831 233.769 303.467 233.593 303.195C233.416 302.923 233.053 302.846 232.781 303.022C232.509 303.199 232.432 303.562 232.608 303.834C232.785 304.106 233.148 304.184 233.42 304.007Z" fill="#DFAB60"/>
<path opacity="0.3" d="M177.006 347.616C177.278 347.44 177.355 347.076 177.179 346.804C177.002 346.533 176.639 346.455 176.367 346.632C176.095 346.808 176.018 347.172 176.194 347.444C176.371 347.715 176.734 347.793 177.006 347.616Z" fill="#DFAB60"/>
<path opacity="0.3" d="M141.303 323.884C141.575 323.708 141.652 323.344 141.476 323.072C141.299 322.8 140.936 322.723 140.664 322.899C140.392 323.076 140.314 323.439 140.491 323.711C140.667 323.983 141.031 324.06 141.303 323.884Z" fill="#DFAB60"/>
<path opacity="0.3" d="M446.756 123.554C447.028 123.377 447.105 123.014 446.929 122.742C446.752 122.47 446.389 122.393 446.117 122.569C445.845 122.746 445.768 123.109 445.944 123.381C446.121 123.653 446.484 123.73 446.756 123.554Z" fill="#DFAB60"/>
<path opacity="0.11" d="M354.334 154.827C354.606 154.651 354.683 154.287 354.507 154.015C354.331 153.743 353.967 153.666 353.695 153.843C353.423 154.019 353.346 154.383 353.522 154.655C353.699 154.926 354.062 155.004 354.334 154.827Z" fill="#DFAB60"/>
<path opacity="0.11" d="M447.201 153.368C447.473 153.192 447.55 152.828 447.374 152.556C447.197 152.284 446.834 152.207 446.562 152.384C446.29 152.56 446.212 152.924 446.389 153.196C446.565 153.467 446.929 153.545 447.201 153.368Z" fill="#DFAB60"/>
<path opacity="0.3" d="M325.443 238.687C325.987 238.334 326.142 237.606 325.789 237.062C325.436 236.517 324.708 236.362 324.164 236.716C323.619 237.069 323.465 237.797 323.818 238.341C324.171 238.885 324.899 239.04 325.443 238.687Z" fill="#DFAB60"/>
<path opacity="0.11" d="M344.919 205.045C345.463 204.691 345.618 203.964 345.265 203.419C344.911 202.875 344.184 202.72 343.639 203.073C343.095 203.427 342.94 204.154 343.293 204.699C343.647 205.243 344.374 205.398 344.919 205.045Z" fill="#DFAB60"/>
<path d="M333.486 187.963C333.894 187.698 334.01 187.153 333.745 186.745C333.48 186.337 332.935 186.22 332.527 186.485C332.118 186.75 332.002 187.296 332.267 187.704C332.532 188.112 333.078 188.228 333.486 187.963Z" fill="#DFAB60"/>
<path d="M333.064 261.748C333.472 261.484 333.588 260.938 333.323 260.53C333.058 260.122 332.513 260.006 332.105 260.27C331.697 260.535 331.58 261.081 331.845 261.489C332.11 261.897 332.656 262.013 333.064 261.748Z" fill="#DFAB60"/>
<path d="M503.009 165.461C503.417 165.196 503.534 164.651 503.269 164.243C503.004 163.835 502.458 163.718 502.05 163.983C501.642 164.248 501.526 164.794 501.791 165.202C502.056 165.61 502.601 165.726 503.009 165.461Z" fill="#DFAB60"/>
<path d="M177.853 364.569C178.261 364.304 178.377 363.758 178.112 363.35C177.848 362.942 177.302 362.826 176.894 363.091C176.486 363.356 176.37 363.901 176.634 364.309C176.899 364.717 177.445 364.834 177.853 364.569Z" fill="#DFAB60"/>
<path d="M104.986 395.756C105.394 395.491 105.511 394.946 105.246 394.538C104.981 394.129 104.435 394.013 104.027 394.278C103.619 394.543 103.503 395.089 103.768 395.497C104.033 395.905 104.578 396.021 104.986 395.756Z" fill="#DFAB60"/>
<path d="M83.8218 381.487C84.2299 381.222 84.3461 380.677 84.0812 380.268C83.8163 379.86 83.2707 379.744 82.8626 380.009C82.4544 380.274 82.3383 380.819 82.6031 381.228C82.868 381.636 83.4136 381.752 83.8218 381.487Z" fill="#DFAB60"/>
<path d="M316.236 213.161C316.644 212.896 316.76 212.35 316.495 211.942C316.23 211.534 315.685 211.418 315.277 211.683C314.868 211.947 314.752 212.493 315.017 212.901C315.282 213.309 315.828 213.425 316.236 213.161Z" fill="#DFAB60"/>
<path d="M254.173 305.241C254.581 304.976 254.698 304.43 254.433 304.022C254.168 303.614 253.622 303.498 253.214 303.763C252.806 304.027 252.69 304.573 252.955 304.981C253.22 305.389 253.765 305.505 254.173 305.241Z" fill="#DFAB60"/>
<path d="M392.064 245.862C392.472 245.597 392.588 245.051 392.323 244.643C392.058 244.235 391.513 244.119 391.105 244.384C390.697 244.649 390.58 245.194 390.845 245.602C391.11 246.01 391.656 246.127 392.064 245.862Z" fill="#DFAB60"/>
<path d="M500.869 127.643C501.277 127.378 501.393 126.833 501.129 126.424C500.864 126.016 500.318 125.9 499.91 126.165C499.502 126.43 499.386 126.975 499.65 127.384C499.915 127.792 500.461 127.908 500.869 127.643Z" fill="#DFAB60"/>
<path d="M495.111 92.8774C495.519 92.6125 495.635 92.0669 495.37 91.6588C495.105 91.2506 494.56 91.1344 494.152 91.3993C493.743 91.6642 493.627 92.2098 493.892 92.6179C494.157 93.0261 494.703 93.1422 495.111 92.8774Z" fill="#DFAB60"/>
<path opacity="0.3" d="M374.45 162.08C374.994 161.726 375.149 160.999 374.796 160.454C374.443 159.91 373.715 159.755 373.171 160.108C372.626 160.462 372.471 161.189 372.825 161.734C373.178 162.278 373.906 162.433 374.45 162.08Z" fill="#DFAB60"/>
<path d="M351.747 127.105C352.291 126.752 352.446 126.024 352.093 125.48C351.74 124.935 351.012 124.781 350.468 125.134C349.923 125.487 349.768 126.215 350.122 126.759C350.475 127.303 351.202 127.458 351.747 127.105Z" fill="#DFAB60"/>
<path d="M406.853 156.454C407.261 156.189 407.377 155.643 407.112 155.235C406.848 154.827 406.302 154.711 405.894 154.975C405.486 155.24 405.37 155.786 405.634 156.194C405.899 156.602 406.445 156.718 406.853 156.454Z" fill="#DFAB60"/>
<path opacity="0.3" d="M418.279 121.736C418.823 121.383 418.978 120.655 418.625 120.111C418.272 119.566 417.544 119.411 417 119.765C416.455 120.118 416.301 120.846 416.654 121.39C417.007 121.934 417.735 122.089 418.279 121.736Z" fill="#DFAB60"/>
<path opacity="0.3" d="M489.747 125.062C490.291 124.709 490.446 123.981 490.093 123.437C489.74 122.892 489.012 122.738 488.468 123.091C487.923 123.444 487.768 124.172 488.122 124.716C488.475 125.26 489.202 125.415 489.747 125.062Z" fill="#DFAB60"/>
<path opacity="0.3" d="M432.747 163.451C433.291 163.098 433.446 162.37 433.093 161.825C432.74 161.281 432.012 161.126 431.468 161.48C430.923 161.833 430.768 162.56 431.122 163.105C431.475 163.649 432.202 163.804 432.747 163.451Z" fill="#DFAB60"/>
<path opacity="0.3" d="M155.411 355.33C155.955 354.976 156.11 354.249 155.757 353.704C155.404 353.16 154.676 353.005 154.132 353.358C153.587 353.712 153.432 354.439 153.786 354.984C154.139 355.528 154.867 355.683 155.411 355.33Z" fill="#DFAB60"/>
<path opacity="0.3" d="M97.9187 354.134C98.4631 353.781 98.618 353.053 98.2647 352.509C97.9115 351.965 97.1838 351.81 96.6394 352.163C96.0951 352.516 95.9402 353.244 96.2934 353.788C96.6467 354.333 97.3744 354.488 97.9187 354.134Z" fill="#DFAB60"/>
<path opacity="0.11" d="M459.958 123.39C460.502 123.037 460.657 122.309 460.304 121.765C459.951 121.221 459.223 121.066 458.679 121.419C458.134 121.772 457.979 122.5 458.333 123.044C458.686 123.589 459.413 123.743 459.958 123.39Z" fill="#DFAB60"/>
<path opacity="0.3" d="M157.497 291.668C158.041 291.314 158.196 290.587 157.843 290.042C157.49 289.498 156.762 289.343 156.218 289.696C155.673 290.05 155.518 290.777 155.872 291.322C156.225 291.866 156.952 292.021 157.497 291.668Z" fill="#DFAB60"/>
<path opacity="0.11" d="M137.802 290.445C138.346 290.092 138.501 289.364 138.148 288.82C137.794 288.275 137.067 288.12 136.522 288.474C135.978 288.827 135.823 289.555 136.176 290.099C136.53 290.643 137.257 290.798 137.802 290.445Z" fill="#DFAB60"/>
<path opacity="0.3" d="M154.325 324.533C154.87 324.18 155.025 323.452 154.671 322.908C154.318 322.363 153.591 322.208 153.046 322.562C152.502 322.915 152.347 323.642 152.7 324.187C153.053 324.731 153.781 324.886 154.325 324.533Z" fill="#DFAB60"/>
<path d="M184.791 304.059C185.199 303.794 185.315 303.249 185.05 302.84C184.786 302.432 184.24 302.316 183.832 302.581C183.424 302.846 183.307 303.391 183.572 303.8C183.837 304.208 184.383 304.324 184.791 304.059Z" fill="#DFAB60"/>
<path opacity="0.11" d="M582.529 154.939C583.073 154.586 583.228 153.858 582.875 153.314C582.522 152.769 581.794 152.615 581.25 152.968C580.705 153.321 580.551 154.049 580.904 154.593C581.257 155.137 581.985 155.292 582.529 154.939Z" fill="#DFAB60"/>
<path d="M589.244 158.282C589.652 158.017 589.768 157.471 589.504 157.063C589.239 156.655 588.693 156.539 588.285 156.804C587.877 157.068 587.761 157.614 588.025 158.022C588.29 158.43 588.836 158.547 589.244 158.282Z" fill="#DFAB60"/>
<path d="M598.791 137.387C599.199 137.122 599.315 136.577 599.05 136.169C598.786 135.76 598.24 135.644 597.832 135.909C597.424 136.174 597.307 136.72 597.572 137.128C597.837 137.536 598.383 137.652 598.791 137.387Z" fill="#DFAB60"/>
<path d="M556.275 163.575C556.683 163.31 556.799 162.764 556.534 162.356C556.269 161.948 555.724 161.832 555.316 162.097C554.908 162.361 554.791 162.907 555.056 163.315C555.321 163.723 555.867 163.839 556.275 163.575Z" fill="#DFAB60"/>
<path opacity="0.11" d="M539.56 191.222C540.105 190.869 540.26 190.141 539.906 189.597C539.553 189.053 538.825 188.898 538.281 189.251C537.737 189.604 537.582 190.332 537.935 190.876C538.288 191.421 539.016 191.576 539.56 191.222Z" fill="#DFAB60"/>
<path d="M523.17 186.46C523.442 186.284 523.519 185.92 523.343 185.648C523.166 185.376 522.803 185.299 522.531 185.475C522.259 185.652 522.182 186.015 522.358 186.287C522.535 186.559 522.898 186.637 523.17 186.46Z" fill="#DFAB60"/>
<path d="M593.513 175.113C593.785 174.936 593.862 174.573 593.686 174.301C593.509 174.029 593.146 173.951 592.874 174.128C592.602 174.304 592.524 174.668 592.701 174.94C592.877 175.212 593.241 175.289 593.513 175.113Z" fill="#DFAB60"/>
<path d="M700.912 105.419C701.184 105.243 701.262 104.879 701.085 104.607C700.909 104.335 700.545 104.258 700.273 104.434C700.001 104.611 699.924 104.974 700.1 105.246C700.277 105.518 700.64 105.596 700.912 105.419Z" fill="#DFAB60"/>
<path d="M737.342 43.97C737.614 43.7935 737.691 43.4299 737.515 43.158C737.338 42.886 736.975 42.8087 736.703 42.9852C736.431 43.1616 736.354 43.5251 736.53 43.7971C736.706 44.069 737.07 44.1464 737.342 43.97Z" fill="#DFAB60"/>
<path d="M779.896 67.4621C780.168 67.2856 780.245 66.9221 780.069 66.6502C779.893 66.3782 779.529 66.3008 779.257 66.4773C778.985 66.6538 778.908 67.0173 779.084 67.2893C779.261 67.5612 779.624 67.6386 779.896 67.4621Z" fill="#DFAB60"/>
<path d="M421.474 269.255C421.746 269.079 421.823 268.715 421.647 268.443C421.47 268.171 421.107 268.094 420.835 268.27C420.563 268.447 420.485 268.81 420.662 269.082C420.838 269.354 421.202 269.432 421.474 269.255Z" fill="#DFAB60"/>
<path opacity="0.11" d="M396.826 247.448C397.098 247.272 397.176 246.908 396.999 246.637C396.823 246.365 396.459 246.287 396.187 246.464C395.915 246.64 395.838 247.004 396.014 247.276C396.191 247.548 396.554 247.625 396.826 247.448Z" fill="#DFAB60"/>
<path opacity="0.11" d="M382.998 272.525C383.27 272.348 383.348 271.985 383.171 271.713C382.995 271.441 382.631 271.363 382.359 271.54C382.087 271.716 382.01 272.08 382.186 272.352C382.363 272.624 382.726 272.701 382.998 272.525Z" fill="#DFAB60"/>
<path opacity="0.11" d="M418.436 291.534C418.708 291.358 418.785 290.994 418.609 290.722C418.432 290.451 418.069 290.373 417.797 290.55C417.525 290.726 417.447 291.09 417.624 291.362C417.8 291.633 418.164 291.711 418.436 291.534Z" fill="#DFAB60"/>
<path opacity="0.11" d="M522.888 195.739C523.16 195.563 523.237 195.199 523.061 194.928C522.884 194.656 522.521 194.578 522.249 194.755C521.977 194.931 521.899 195.295 522.076 195.567C522.252 195.839 522.616 195.916 522.888 195.739Z" fill="#DFAB60"/>
<path opacity="0.11" d="M604.037 193.488C604.309 193.311 604.387 192.948 604.21 192.676C604.034 192.404 603.67 192.326 603.398 192.503C603.126 192.679 603.049 193.043 603.225 193.315C603.402 193.587 603.765 193.664 604.037 193.488Z" fill="#DFAB60"/>
<path opacity="0.11" d="M695.428 127.179C695.7 127.002 695.777 126.639 695.601 126.367C695.424 126.095 695.061 126.018 694.789 126.194C694.517 126.371 694.439 126.734 694.616 127.006C694.792 127.278 695.156 127.355 695.428 127.179Z" fill="#DFAB60"/>
<path opacity="0.3" d="M436.146 242.232C436.418 242.055 436.495 241.692 436.319 241.42C436.143 241.148 435.779 241.07 435.507 241.247C435.235 241.423 435.158 241.787 435.334 242.059C435.511 242.331 435.874 242.408 436.146 242.232Z" fill="#DFAB60"/>
<path d="M532.185 142.101C532.457 141.924 532.534 141.561 532.358 141.289C532.181 141.017 531.818 140.939 531.546 141.116C531.274 141.292 531.196 141.656 531.373 141.928C531.549 142.2 531.913 142.277 532.185 142.101Z" fill="#DFAB60"/>
<path d="M607.412 91.884C607.684 91.7075 607.762 91.344 607.585 91.0721C607.409 90.8001 607.045 90.7227 606.773 90.8992C606.501 91.0757 606.424 91.4392 606.6 91.7112C606.777 91.9831 607.14 92.0605 607.412 91.884Z" fill="#DFAB60"/>
<path d="M528.099 209.163C528.371 208.987 528.448 208.623 528.272 208.351C528.095 208.079 527.732 208.002 527.46 208.178C527.188 208.355 527.11 208.719 527.287 208.99C527.463 209.262 527.827 209.34 528.099 209.163Z" fill="#DFAB60"/>
<path opacity="0.3" d="M493.615 231.542C493.887 231.366 493.965 231.002 493.788 230.73C493.612 230.458 493.248 230.381 492.976 230.557C492.704 230.734 492.627 231.097 492.803 231.369C492.98 231.641 493.343 231.719 493.615 231.542Z" fill="#DFAB60"/>
<path opacity="0.11" d="M433.404 227.212C433.676 227.036 433.753 226.672 433.577 226.4C433.4 226.128 433.037 226.051 432.765 226.227C432.493 226.404 432.416 226.767 432.592 227.039C432.768 227.311 433.132 227.389 433.404 227.212Z" fill="#DFAB60"/>
<path opacity="0.3" d="M548.732 148.169C549.004 147.993 549.081 147.629 548.905 147.357C548.728 147.085 548.365 147.008 548.093 147.184C547.821 147.361 547.744 147.724 547.92 147.996C548.097 148.268 548.46 148.346 548.732 148.169Z" fill="#DFAB60"/>
<path opacity="0.3" d="M542.553 213.089C542.825 212.913 542.902 212.549 542.726 212.277C542.549 212.005 542.186 211.928 541.914 212.104C541.642 212.281 541.564 212.644 541.741 212.916C541.917 213.188 542.281 213.266 542.553 213.089Z" fill="#DFAB60"/>
<path opacity="0.3" d="M486.138 256.696C486.41 256.52 486.487 256.156 486.311 255.885C486.134 255.613 485.771 255.535 485.499 255.712C485.227 255.888 485.149 256.252 485.326 256.524C485.502 256.796 485.866 256.873 486.138 256.696Z" fill="#DFAB60"/>
<path opacity="0.3" d="M450.435 232.964C450.707 232.788 450.784 232.424 450.608 232.152C450.431 231.88 450.068 231.803 449.796 231.979C449.524 232.156 449.446 232.519 449.623 232.791C449.799 233.063 450.163 233.141 450.435 232.964Z" fill="#DFAB60"/>
<path opacity="0.3" d="M755.888 32.6359C756.16 32.4594 756.237 32.0959 756.061 31.824C755.884 31.5521 755.521 31.4747 755.249 31.6511C754.977 31.8276 754.899 32.1912 755.076 32.4631C755.252 32.735 755.616 32.8124 755.888 32.6359Z" fill="#DFAB60"/>
<path opacity="0.11" d="M663.467 63.9075C663.739 63.731 663.816 63.3674 663.64 63.0955C663.463 62.8235 663.1 62.7462 662.828 62.9227C662.556 63.0991 662.479 63.4626 662.655 63.7346C662.831 64.0065 663.195 64.0839 663.467 63.9075Z" fill="#DFAB60"/>
<path opacity="0.11" d="M756.334 62.4485C756.606 62.272 756.683 61.9085 756.507 61.6365C756.33 61.3646 755.967 61.2872 755.695 61.4637C755.423 61.6401 755.346 62.0037 755.522 62.2756C755.699 62.5476 756.062 62.625 756.334 62.4485Z" fill="#DFAB60"/>
<path opacity="0.3" d="M634.575 147.767C635.119 147.414 635.274 146.686 634.921 146.142C634.568 145.598 633.84 145.443 633.296 145.796C632.751 146.149 632.596 146.877 632.95 147.421C633.303 147.966 634.031 148.12 634.575 147.767Z" fill="#DFAB60"/>
<path opacity="0.11" d="M654.052 114.127C654.596 113.773 654.751 113.046 654.398 112.501C654.045 111.957 653.317 111.802 652.773 112.155C652.228 112.509 652.073 113.236 652.427 113.781C652.78 114.325 653.508 114.48 654.052 114.127Z" fill="#DFAB60"/>
<path d="M642.619 97.0436C643.027 96.7788 643.143 96.2332 642.879 95.825C642.614 95.4169 642.068 95.3007 641.66 95.5656C641.252 95.8305 641.136 96.376 641.4 96.7842C641.665 97.1923 642.211 97.3085 642.619 97.0436Z" fill="#DFAB60"/>
<path d="M642.197 170.829C642.605 170.564 642.721 170.018 642.457 169.61C642.192 169.202 641.646 169.086 641.238 169.35C640.83 169.615 640.714 170.161 640.979 170.569C641.243 170.977 641.789 171.093 642.197 170.829Z" fill="#DFAB60"/>
<path d="M812.142 74.5434C812.55 74.2785 812.666 73.7329 812.401 73.3248C812.137 72.9166 811.591 72.8005 811.183 73.0653C810.775 73.3302 810.659 73.8758 810.923 74.2839C811.188 74.6921 811.734 74.8083 812.142 74.5434Z" fill="#DFAB60"/>
<path d="M486.986 273.651C487.394 273.386 487.51 272.84 487.245 272.432C486.98 272.024 486.435 271.908 486.027 272.173C485.618 272.438 485.502 272.983 485.767 273.391C486.032 273.799 486.578 273.916 486.986 273.651Z" fill="#DFAB60"/>
<path d="M414.119 304.838C414.527 304.573 414.643 304.028 414.378 303.62C414.113 303.211 413.568 303.095 413.159 303.36C412.751 303.625 412.635 304.171 412.9 304.579C413.165 304.987 413.71 305.103 414.119 304.838Z" fill="#DFAB60"/>
<path d="M392.956 290.567C393.364 290.302 393.48 289.756 393.215 289.348C392.95 288.94 392.405 288.824 391.996 289.089C391.588 289.354 391.472 289.899 391.737 290.307C392.002 290.716 392.547 290.832 392.956 290.567Z" fill="#DFAB60"/>
<path d="M625.369 122.241C625.777 121.976 625.893 121.43 625.629 121.022C625.364 120.614 624.818 120.498 624.41 120.763C624.002 121.027 623.886 121.573 624.151 121.981C624.415 122.389 624.961 122.506 625.369 122.241Z" fill="#DFAB60"/>
<path d="M563.306 214.323C563.714 214.058 563.83 213.512 563.566 213.104C563.301 212.696 562.755 212.58 562.347 212.845C561.939 213.11 561.823 213.655 562.088 214.063C562.352 214.471 562.898 214.588 563.306 214.323Z" fill="#DFAB60"/>
<path d="M701.197 154.944C701.605 154.679 701.721 154.133 701.457 153.725C701.192 153.317 700.646 153.201 700.238 153.466C699.83 153.731 699.714 154.276 699.979 154.684C700.243 155.092 700.789 155.209 701.197 154.944Z" fill="#DFAB60"/>
<path d="M810.001 36.725C810.41 36.4601 810.526 35.9146 810.261 35.5064C809.996 35.0983 809.45 34.9821 809.042 35.247C808.634 35.5119 808.518 36.0574 808.783 36.4656C809.048 36.8737 809.593 36.9899 810.001 36.725Z" fill="#DFAB60"/>
<path d="M804.245 1.95768C804.653 1.69281 804.769 1.14723 804.504 0.739078C804.239 0.330929 803.694 0.21477 803.285 0.479643C802.877 0.744517 802.761 1.2901 803.026 1.69825C803.291 2.1064 803.836 2.22256 804.245 1.95768Z" fill="#DFAB60"/>
<path opacity="0.3" d="M683.575 71.1597C684.119 70.8065 684.274 70.0788 683.921 69.5345C683.568 68.9901 682.84 68.8352 682.296 69.1885C681.751 69.5417 681.596 70.2694 681.95 70.8138C682.303 71.3581 683.031 71.513 683.575 71.1597Z" fill="#DFAB60"/>
<path d="M660.88 36.1849C661.424 35.8316 661.579 35.104 661.226 34.5596C660.873 34.0153 660.145 33.8604 659.601 34.2136C659.057 34.5669 658.902 35.2946 659.255 35.8389C659.608 36.3833 660.336 36.5382 660.88 36.1849Z" fill="#DFAB60"/>
<path d="M715.986 65.5336C716.394 65.2687 716.51 64.7232 716.245 64.315C715.98 63.9069 715.435 63.7907 715.027 64.0556C714.618 64.3204 714.502 64.866 714.767 65.2742C715.032 65.6823 715.578 65.7985 715.986 65.5336Z" fill="#DFAB60"/>
<path opacity="0.3" d="M727.411 30.816C727.955 30.4628 728.11 29.7351 727.757 29.1907C727.404 28.6464 726.676 28.4915 726.132 28.8447C725.587 29.198 725.432 29.9257 725.786 30.47C726.139 31.0144 726.867 31.1693 727.411 30.816Z" fill="#DFAB60"/>
<path opacity="0.3" d="M798.881 34.1422C799.425 33.7889 799.58 33.0613 799.227 32.5169C798.873 31.9726 798.146 31.8176 797.601 32.1709C797.057 32.5242 796.902 33.2518 797.255 33.7962C797.609 34.3405 798.336 34.4955 798.881 34.1422Z" fill="#DFAB60"/>
<path opacity="0.3" d="M741.88 72.5328C742.424 72.1795 742.579 71.4519 742.226 70.9075C741.873 70.3632 741.145 70.2083 740.601 70.5615C740.057 70.9148 739.902 71.6425 740.255 72.1868C740.608 72.7312 741.336 72.8861 741.88 72.5328Z" fill="#DFAB60"/>
<path opacity="0.3" d="M464.544 264.412C465.089 264.058 465.243 263.331 464.89 262.786C464.537 262.242 463.809 262.087 463.265 262.44C462.721 262.794 462.566 263.521 462.919 264.066C463.272 264.61 464 264.765 464.544 264.412Z" fill="#DFAB60"/>
<path opacity="0.3" d="M407.052 263.214C407.596 262.861 407.751 262.133 407.398 261.589C407.045 261.045 406.317 260.89 405.773 261.243C405.228 261.596 405.073 262.324 405.427 262.868C405.78 263.413 406.508 263.567 407.052 263.214Z" fill="#DFAB60"/>
<path opacity="0.11" d="M769.091 32.4723C769.635 32.119 769.79 31.3914 769.437 30.847C769.084 30.3026 768.356 30.1477 767.812 30.501C767.267 30.8543 767.113 31.5819 767.466 32.1263C767.819 32.6706 768.547 32.8255 769.091 32.4723Z" fill="#DFAB60"/>
<path opacity="0.3" d="M466.63 200.748C467.175 200.394 467.329 199.667 466.976 199.122C466.623 198.578 465.895 198.423 465.351 198.776C464.807 199.13 464.652 199.857 465.005 200.402C465.358 200.946 466.086 201.101 466.63 200.748Z" fill="#DFAB60"/>
<path opacity="0.11" d="M446.935 199.527C447.48 199.174 447.635 198.446 447.281 197.902C446.928 197.357 446.2 197.202 445.656 197.556C445.112 197.909 444.957 198.637 445.31 199.181C445.663 199.725 446.391 199.88 446.935 199.527Z" fill="#DFAB60"/>
<path opacity="0.3" d="M463.458 233.611C464.002 233.258 464.157 232.53 463.804 231.986C463.451 231.441 462.723 231.286 462.179 231.64C461.634 231.993 461.479 232.721 461.833 233.265C462.186 233.809 462.913 233.964 463.458 233.611Z" fill="#DFAB60"/>
<path d="M493.923 213.139C494.331 212.874 494.447 212.329 494.182 211.921C493.917 211.513 493.372 211.396 492.964 211.661C492.556 211.926 492.439 212.472 492.704 212.88C492.969 213.288 493.515 213.404 493.923 213.139Z" fill="#DFAB60"/>
</g>
</svg>
