<svg width="193" height="225" viewBox="0 0 193 225" fill="none" xmlns="http://www.w3.org/2000/svg">
<path d="M56.8524 61.7047L43.5564 75.5415V132.248C43.5564 132.905 44.0891 133.439 44.7473 133.439H60.8912C61.5486 133.439 62.0821 132.905 62.0821 132.248V63.0751L58.3585 61.7047H56.8524Z" fill="url(#paint0_radial_124_970)"/>
<path d="M89.7373 72.5565H73.5933C72.936 72.5565 72.4024 73.09 72.4024 73.7474V98.8882C72.4024 99.5456 72.936 100.079 73.5933 100.079H89.7373C90.3954 100.079 90.9282 99.5456 90.9282 98.8882V73.7474C90.9282 73.09 90.3954 72.5565 89.7373 72.5565Z" fill="url(#paint1_radial_124_970)"/>
<path d="M117.993 47.4602C117.376 47.7825 116.681 47.9532 115.984 47.9532C114.971 47.9532 113.983 47.5959 113.205 46.9449L110.272 44.4932L99.6615 56.0688V98.889C99.6615 99.5464 100.195 100.08 100.852 100.08H116.996C117.655 100.08 118.187 99.5464 118.187 98.889V47.3387C118.121 47.3784 118.061 47.4245 117.993 47.4602Z" fill="url(#paint2_radial_124_970)"/>
<path d="M83.1174 66.9943C84.0257 67.327 85.0419 67.0801 85.6961 66.3687L110.18 39.6583L115.91 44.4473C116.19 44.6807 116.583 44.7244 116.906 44.5553C117.229 44.3854 117.419 44.0408 117.386 43.6764L116.144 29.7913C116.101 29.295 115.663 28.929 115.167 28.9743L101.281 30.2152C100.917 30.2478 100.609 30.4963 100.501 30.8432C100.464 30.9591 100.452 31.0766 100.463 31.1926C100.483 31.426 100.595 31.6467 100.783 31.8031L106.522 36.6009L83.2627 61.9727L56.7095 52.2025C55.8219 51.877 54.8255 52.1064 54.1705 52.7861L37.8948 69.7231C36.9833 70.6719 37.0135 72.1803 37.9614 73.091C38.4243 73.5364 39.019 73.7555 39.612 73.7555C40.2377 73.7555 40.8617 73.5102 41.3301 73.0243L56.5269 57.2091L83.1174 66.9943Z" fill="url(#paint3_radial_124_970)"/>
<path d="M81.6519 0.200716C130.151 -2.78369 170.987 27.7267 170.064 77.4374L170.101 81.9366L191.171 119.145C192.305 121.15 192.406 123.577 191.44 125.675C190.483 127.773 188.572 129.28 186.313 129.721L173.291 133.315L169.203 172.775C169.091 176.574 167.401 180.15 164.536 182.655C161.667 185.146 157.879 186.332 154.101 185.909L143.701 186.739C141.674 186.511 139.639 187.158 138.121 188.52C136.599 189.885 135.731 191.833 135.731 193.875V224.741H47.7577C47.7577 224.741 47.7577 209.845 47.7577 203.846C47.7577 197.848 45.6894 184.134 41.7551 177.858C27.4946 155.056 4.27732 142.924 0.361915 96.1524C-3.55393 49.3883 24.357 3.73117 81.6519 0.200716ZM21.0096 87.1684C21.0096 87.1684 20.9645 86.6815 22.2623 94.3904C26.4099 111.508 37.8353 117.955 49.2905 111.485C53.2697 109.235 56.983 98.3242 66.8234 90.0703C71.0293 86.4726 80.2609 86.424 94.0425 86.424C97.7749 86.424 101.219 86.3941 104.432 86.334C105.706 86.334 106.987 86.334 111.653 86.136C140.858 84.9992 145.152 80.3055 147.448 68.5027C147.541 67.7995 147.609 67.1042 147.669 66.4119C147.688 59.1939 147.448 63.6473 147.688 59.1939C146.805 49.1486 142.059 40.9359 134.684 33.4259C129.048 27.6775 122.095 23.2235 114.208 20.1978C105.267 17.4868 106.987 17.9087 106.987 17.9087C100.999 16.3606 94.6074 15.5415 87.924 15.5415C86.2262 15.5415 84.5059 15.5937 82.7852 15.7021C67.6389 16.6336 54.5267 21.383 44.2571 29.543C38.9862 34.6768 40.303 32.7199 37.0355 36.3546C36.8441 36.5675 36.6462 36.7733 36.4557 36.9902C26.111 48.9616 20.5351 65.4805 20.6808 83.002C20.7515 84.45 21.0096 87.1684 21.0096 87.1684Z" fill="url(#paint4_radial_124_970)"/>
<defs>
<radialGradient id="paint0_radial_124_970" cx="0" cy="0" r="1" gradientUnits="userSpaceOnUse" gradientTransform="translate(10.0975 112.371) scale(182.002 212.928)">
<stop stop-color="#ECB45D"/>
<stop offset="0.581399" stop-color="#FFD38D"/>
<stop offset="1" stop-color="#FFB644"/>
</radialGradient>
<radialGradient id="paint1_radial_124_970" cx="0" cy="0" r="1" gradientUnits="userSpaceOnUse" gradientTransform="translate(10.0975 112.371) scale(182.002 212.928)">
<stop stop-color="#ECB45D"/>
<stop offset="0.581399" stop-color="#FFD38D"/>
<stop offset="1" stop-color="#FFB644"/>
</radialGradient>
<radialGradient id="paint2_radial_124_970" cx="0" cy="0" r="1" gradientUnits="userSpaceOnUse" gradientTransform="translate(10.0975 112.371) scale(182.002 212.928)">
<stop stop-color="#ECB45D"/>
<stop offset="0.581399" stop-color="#FFD38D"/>
<stop offset="1" stop-color="#FFB644"/>
</radialGradient>
<radialGradient id="paint3_radial_124_970" cx="0" cy="0" r="1" gradientUnits="userSpaceOnUse" gradientTransform="translate(10.0975 112.371) scale(182.002 212.928)">
<stop stop-color="#ECB45D"/>
<stop offset="0.581399" stop-color="#FFD38D"/>
<stop offset="1" stop-color="#FFB644"/>
</radialGradient>
<radialGradient id="paint4_radial_124_970" cx="0" cy="0" r="1" gradientUnits="userSpaceOnUse" gradientTransform="translate(10.0975 112.371) scale(182.002 212.928)">
<stop stop-color="#ECB45D"/>
<stop offset="0.581399" stop-color="#FFD38D"/>
<stop offset="1" stop-color="#FFB644"/>
</radialGradient>
</defs>
</svg>
