<svg width="816" height="178" viewBox="0 0 816 178" fill="none" xmlns="http://www.w3.org/2000/svg">
<path d="M805.06 60.1664C805.06 59.9426 805.241 59.7612 805.465 59.7612C805.689 59.7612 805.87 59.9426 805.87 60.1664V67.8645H805.06V60.1664Z" fill="#EB5757"/>
<path d="M807.491 67.8645H803.439V93.0941H807.491V67.8645Z" fill="#EB5757"/>
<path d="M805.06 93.094H805.87V100.792C805.87 101.016 805.689 101.197 805.465 101.197C805.241 101.197 805.06 101.016 805.06 100.792V93.094Z" fill="#EB5757"/>
<path d="M411.646 70.2953C411.646 70.0715 411.827 69.8901 412.051 69.8901C412.275 69.8901 412.456 70.0715 412.456 70.2953V77.9934H411.646V70.2953Z" fill="#27AE60"/>
<path d="M414.077 77.9934H410.025V134.716H414.077V77.9934Z" fill="#27AE60"/>
<path d="M411.646 134.716H412.456V142.414C412.456 142.638 412.275 142.82 412.051 142.82C411.827 142.82 411.646 142.638 411.646 142.414V134.716Z" fill="#27AE60"/>
<path d="M532.79 5.46913C532.79 5.24536 532.971 5.06396 533.195 5.06396C533.419 5.06396 533.6 5.24536 533.6 5.46913V13.1672H532.79V5.46913Z" fill="#27AE60"/>
<path d="M535.221 13.1672H531.169V102.303H535.221V13.1672Z" fill="#27AE60"/>
<path d="M532.79 102.303H533.6V110.001C533.6 110.225 533.419 110.406 533.195 110.406C532.971 110.406 532.79 110.225 532.79 110.001V102.303Z" fill="#27AE60"/>
<path d="M694.855 0.6078C694.855 0.384035 695.037 0.202637 695.261 0.202637C695.484 0.202637 695.666 0.384035 695.666 0.607801V4.25428H694.855V0.6078Z" fill="#27AE60"/>
<path d="M697.287 4.25439H693.235V101.388H697.287V4.25439Z" fill="#27AE60"/>
<path d="M694.855 101.388H695.666V105.035C695.666 105.258 695.484 105.44 695.261 105.44C695.037 105.44 694.855 105.258 694.855 105.035V101.388Z" fill="#27AE60"/>
<path d="M704.985 6.27968C704.985 6.05591 705.166 5.87451 705.39 5.87451C705.614 5.87451 705.795 6.05591 705.795 6.27968V9.92615H704.985V6.27968Z" fill="#27AE60"/>
<path d="M707.416 9.92627H703.364V107.06H707.416V9.92627Z" fill="#27AE60"/>
<path d="M704.985 107.06H705.795V110.707C705.795 110.93 705.614 111.112 705.39 111.112C705.166 111.112 704.985 110.93 704.985 110.707V107.06Z" fill="#27AE60"/>
<path d="M573.306 19.6508C573.306 19.427 573.488 19.2456 573.711 19.2456C573.935 19.2456 574.116 19.427 574.116 19.6508V23.2972H573.306V19.6508Z" fill="#27AE60"/>
<path d="M575.737 23.2974H571.686V88.5287H575.737V23.2974Z" fill="#27AE60"/>
<path d="M573.306 88.5286H574.116V92.175C574.116 92.3988 573.935 92.5802 573.711 92.5802C573.488 92.5802 573.306 92.3988 573.306 92.175V88.5286Z" fill="#27AE60"/>
<path d="M583.436 3.03944C583.436 2.81568 583.617 2.63428 583.841 2.63428C584.064 2.63428 584.246 2.81568 584.246 3.03944V6.68592H583.436V3.03944Z" fill="#27AE60"/>
<path d="M585.867 6.68604H581.815V82.3504H585.867V6.68604Z" fill="#27AE60"/>
<path d="M583.436 82.3503H584.246V85.9968C584.246 86.2206 584.064 86.402 583.841 86.402C583.617 86.402 583.436 86.2206 583.436 85.9968V82.3503Z" fill="#27AE60"/>
<path d="M512.937 93.391C512.937 93.1672 513.118 92.9858 513.342 92.9858C513.566 92.9858 513.747 93.1672 513.747 93.391V101.089H512.937V93.391Z" fill="#27AE60"/>
<path d="M515.368 101.089H511.316V158.217H515.368V101.089Z" fill="#27AE60"/>
<path d="M512.937 158.217H513.747V165.915C513.747 166.139 513.566 166.321 513.342 166.321C513.118 166.321 512.937 166.139 512.937 165.915V158.217Z" fill="#27AE60"/>
<path d="M522.661 53.684C522.661 53.4602 522.842 53.2788 523.066 53.2788C523.29 53.2788 523.471 53.4602 523.471 53.684V61.3821H522.661V53.684Z" fill="#27AE60"/>
<path d="M525.092 61.3821H521.04V118.51H525.092V61.3821Z" fill="#27AE60"/>
<path d="M522.661 118.51H523.471V126.208C523.471 126.432 523.29 126.614 523.066 126.614C522.842 126.614 522.661 126.432 522.661 126.208V118.51Z" fill="#27AE60"/>
<path d="M421.775 73.1312C421.775 72.9075 421.956 72.7261 422.18 72.7261C422.404 72.7261 422.585 72.9075 422.585 73.1312V80.8294H421.775V73.1312Z" fill="#27AE60"/>
<path d="M424.206 80.8293H420.154V95.4152H424.206V80.8293Z" fill="#27AE60"/>
<path d="M421.775 95.4153H422.585V103.113C422.585 103.337 422.404 103.519 422.18 103.519C421.956 103.519 421.775 103.337 421.775 103.113V95.4153Z" fill="#27AE60"/>
<path d="M442.033 158.622C442.033 158.398 442.215 158.217 442.438 158.217C442.662 158.217 442.844 158.398 442.844 158.622V162.268H442.033V158.622Z" fill="#27AE60"/>
<path d="M444.464 162.268H440.413V171.992H444.464V162.268Z" fill="#27AE60"/>
<path d="M442.033 171.992H442.844V175.639C442.844 175.862 442.662 176.044 442.438 176.044C442.215 176.044 442.033 175.862 442.033 175.639V171.992Z" fill="#27AE60"/>
<path d="M623.952 99.8734C623.952 99.6497 624.133 99.4683 624.357 99.4683C624.581 99.4683 624.762 99.6497 624.762 99.8734V103.52H623.952V99.8734Z" fill="#27AE60"/>
<path d="M626.383 103.52H622.331V113.244H626.383V103.52Z" fill="#27AE60"/>
<path d="M623.952 113.244H624.762V116.89C624.762 117.114 624.581 117.296 624.357 117.296C624.133 117.296 623.952 117.114 623.952 116.89V113.244Z" fill="#27AE60"/>
<path d="M452.163 154.571C452.163 154.347 452.344 154.166 452.568 154.166C452.792 154.166 452.973 154.347 452.973 154.571V158.217H452.163V154.571Z" fill="#27AE60"/>
<path d="M454.594 158.217H450.542V167.941H454.594V158.217Z" fill="#27AE60"/>
<path d="M452.163 167.941H452.973V171.588C452.973 171.811 452.792 171.993 452.568 171.993C452.344 171.993 452.163 171.811 452.163 171.588V167.941Z" fill="#27AE60"/>
<path d="M634.081 95.8207C634.081 95.5969 634.262 95.4155 634.486 95.4155C634.71 95.4155 634.891 95.5969 634.891 95.8207V99.4672H634.081V95.8207Z" fill="#27AE60"/>
<path d="M636.512 99.4673H632.46V109.191H636.512V99.4673Z" fill="#27AE60"/>
<path d="M634.081 109.191H634.891V112.838C634.891 113.061 634.71 113.243 634.486 113.243C634.262 113.243 634.081 113.061 634.081 112.838V109.191Z" fill="#27AE60"/>
<path d="M462.292 151.735C462.292 151.511 462.473 151.33 462.697 151.33C462.92 151.33 463.102 151.511 463.102 151.735V155.381H462.292V151.735Z" fill="#27AE60"/>
<path d="M464.723 155.381H460.671V165.105H464.723V155.381Z" fill="#27AE60"/>
<path d="M462.292 165.105H463.102V168.752C463.102 168.975 462.92 169.157 462.697 169.157C462.473 169.157 462.292 168.975 462.292 168.752V165.105Z" fill="#27AE60"/>
<path d="M644.21 92.9848C644.21 92.761 644.391 92.5796 644.615 92.5796C644.839 92.5796 645.02 92.761 645.02 92.9848V96.6312H644.21V92.9848Z" fill="#27AE60"/>
<path d="M646.641 96.6313H642.589V106.355H646.641V96.6313Z" fill="#27AE60"/>
<path d="M644.21 106.355H645.02V110.002C645.02 110.225 644.839 110.407 644.615 110.407C644.391 110.407 644.21 110.225 644.21 110.002V106.355Z" fill="#27AE60"/>
<path d="M472.42 149.303C472.42 149.079 472.602 148.898 472.826 148.898C473.049 148.898 473.231 149.079 473.231 149.303V152.95H472.42V149.303Z" fill="#27AE60"/>
<path d="M474.851 152.95H470.8V162.674H474.851V152.95Z" fill="#27AE60"/>
<path d="M472.42 162.674H473.231V166.32C473.231 166.544 473.049 166.725 472.826 166.725C472.602 166.725 472.42 166.544 472.42 166.32V162.674Z" fill="#27AE60"/>
<path d="M654.339 90.5551C654.339 90.3313 654.521 90.1499 654.745 90.1499C654.968 90.1499 655.15 90.3313 655.15 90.5551V94.2015H654.339V90.5551Z" fill="#27AE60"/>
<path d="M656.77 94.2017H652.719V103.926H656.77V94.2017Z" fill="#27AE60"/>
<path d="M654.339 103.926H655.15V107.572C655.15 107.796 654.968 107.977 654.745 107.977C654.521 107.977 654.339 107.796 654.339 107.572V103.926Z" fill="#27AE60"/>
<path d="M492.679 148.897C492.679 148.673 492.86 148.492 493.084 148.492C493.308 148.492 493.489 148.673 493.489 148.897V152.543H492.679V148.897Z" fill="#27AE60"/>
<path d="M495.11 152.543H491.058V162.267H495.11V152.543Z" fill="#27AE60"/>
<path d="M492.679 162.267H493.489V165.914C493.489 166.138 493.308 166.319 493.084 166.319C492.86 166.319 492.679 166.138 492.679 165.914V162.267Z" fill="#27AE60"/>
<path d="M593.564 10.7367C593.564 10.5129 593.746 10.3315 593.97 10.3315C594.193 10.3315 594.375 10.5129 594.375 10.7367V14.3832H593.564V10.7367Z" fill="#27AE60"/>
<path d="M595.995 14.3833H591.944V24.1072H595.995V14.3833Z" fill="#27AE60"/>
<path d="M593.564 24.1072H594.375V27.7537C594.375 27.9774 594.193 28.1588 593.97 28.1588C593.746 28.1588 593.564 27.9774 593.564 27.7537V24.1072Z" fill="#27AE60"/>
<path d="M603.694 17.6254C603.694 17.4016 603.875 17.2202 604.099 17.2202C604.323 17.2202 604.504 17.4016 604.504 17.6254V21.2719H603.694V17.6254Z" fill="#27AE60"/>
<path d="M606.125 21.272H602.073V30.9959H606.125V21.272Z" fill="#27AE60"/>
<path d="M603.694 30.9958H604.504V34.6423C604.504 34.8661 604.323 35.0475 604.099 35.0475C603.875 35.0475 603.694 34.8661 603.694 34.6423V30.9958Z" fill="#27AE60"/>
<path d="M502.808 151.329C502.808 151.105 502.99 150.923 503.213 150.923C503.437 150.923 503.618 151.105 503.618 151.329V154.975H502.808V151.329Z" fill="#27AE60"/>
<path d="M505.239 154.975H501.188V164.699H505.239V154.975Z" fill="#27AE60"/>
<path d="M502.808 164.699H503.618V168.345C503.618 168.569 503.437 168.751 503.213 168.751C502.99 168.751 502.808 168.569 502.808 168.345V164.699Z" fill="#27AE60"/>
<path d="M482.549 128.235C482.549 128.011 482.731 127.83 482.954 127.83C483.178 127.83 483.36 128.011 483.36 128.235V131.881H482.549V128.235Z" fill="#27AE60"/>
<path d="M484.98 131.881H480.929V158.217H484.98V131.881Z" fill="#27AE60"/>
<path d="M482.549 158.217H483.36V161.863C483.36 162.087 483.178 162.268 482.954 162.268C482.731 162.268 482.549 162.087 482.549 161.863V158.217Z" fill="#27AE60"/>
<path d="M664.468 71.5121C664.468 71.2883 664.65 71.1069 664.873 71.1069C665.097 71.1069 665.279 71.2883 665.279 71.5121V75.1586H664.468V71.5121Z" fill="#27AE60"/>
<path d="M666.899 75.1587H662.848V101.612H666.899V75.1587Z" fill="#27AE60"/>
<path d="M664.468 101.612H665.279V105.258C665.279 105.482 665.097 105.663 664.873 105.663C664.65 105.663 664.468 105.482 664.468 105.258V101.612Z" fill="#27AE60"/>
<path d="M674.597 54.0902C674.597 53.8665 674.779 53.6851 675.002 53.6851C675.226 53.6851 675.407 53.8665 675.407 54.0902V57.7367H674.597V54.0902Z" fill="#27AE60"/>
<path d="M677.028 57.7368H672.977V84.19H677.028V57.7368Z" fill="#27AE60"/>
<path d="M674.597 84.1899H675.407V87.8364C675.407 88.0602 675.226 88.2416 675.002 88.2416C674.779 88.2416 674.597 88.0602 674.597 87.8364V84.1899Z" fill="#27AE60"/>
<path d="M745.096 105.139C745.096 104.915 745.278 104.734 745.501 104.734C745.725 104.734 745.907 104.915 745.907 105.139V108.786H745.096V105.139Z" fill="#27AE60"/>
<path d="M747.527 108.786H743.476V135.239H747.527V108.786Z" fill="#27AE60"/>
<path d="M745.096 135.239H745.907V138.885C745.907 139.109 745.725 139.29 745.501 139.29C745.278 139.29 745.096 139.109 745.096 138.885V135.239Z" fill="#27AE60"/>
<path d="M755.225 78.8051C755.225 78.5813 755.406 78.3999 755.63 78.3999C755.854 78.3999 756.035 78.5813 756.035 78.8051V82.4515H755.225V78.8051Z" fill="#27AE60"/>
<path d="M757.656 82.4517H753.604V108.905H757.656V82.4517Z" fill="#27AE60"/>
<path d="M755.225 108.905H756.035V112.551C756.035 112.775 755.854 112.956 755.63 112.956C755.406 112.956 755.225 112.775 755.225 112.551V108.905Z" fill="#27AE60"/>
<path d="M765.354 64.2191C765.354 63.9954 765.535 63.814 765.759 63.814C765.983 63.814 766.164 63.9954 766.164 64.2191V67.8656H765.354V64.2191Z" fill="#27AE60"/>
<path d="M767.785 67.8657H763.733V94.3189H767.785V67.8657Z" fill="#27AE60"/>
<path d="M765.354 94.3188H766.164V97.9653C766.164 98.1891 765.983 98.3705 765.759 98.3705C765.535 98.3705 765.354 98.1891 765.354 97.9653V94.3188Z" fill="#27AE60"/>
<path d="M775.483 51.2523C775.483 51.0286 775.664 50.8472 775.888 50.8472C776.112 50.8472 776.293 51.0286 776.293 51.2523V54.8988H775.483V51.2523Z" fill="#27AE60"/>
<path d="M777.914 54.8989H773.862V81.3521H777.914V54.8989Z" fill="#27AE60"/>
<path d="M775.483 81.3521H776.293V84.9985C776.293 85.2223 776.112 85.4037 775.888 85.4037C775.664 85.4037 775.483 85.2223 775.483 84.9985V81.3521Z" fill="#27AE60"/>
<path d="M795.336 51.2523C795.336 51.0286 795.518 50.8472 795.742 50.8472C795.965 50.8472 796.147 51.0286 796.147 51.2523V54.8988H795.336V51.2523Z" fill="#27AE60"/>
<path d="M797.767 54.8989H793.716V81.3521H797.767V54.8989Z" fill="#27AE60"/>
<path d="M795.336 81.3521H796.147V84.9985C796.147 85.2223 795.965 85.4037 795.742 85.4037C795.518 85.4037 795.336 85.2223 795.336 84.9985V81.3521Z" fill="#27AE60"/>
<path d="M431.904 75.5631C431.904 75.3394 432.086 75.158 432.309 75.158C432.533 75.158 432.715 75.3394 432.715 75.5631V83.2612H431.904V75.5631Z" fill="#EB5757"/>
<path d="M434.335 83.2612H430.284V169.561H434.335V83.2612Z" fill="#EB5757"/>
<path d="M431.904 169.561H432.715V177.259C432.715 177.483 432.533 177.664 432.309 177.664C432.086 177.664 431.904 177.483 431.904 177.259V169.561Z" fill="#EB5757"/>
<path d="M613.823 19.2445C613.823 19.0208 614.004 18.8394 614.228 18.8394C614.452 18.8394 614.633 19.0208 614.633 19.2445V26.9426H613.823V19.2445Z" fill="#27AE60"/>
<path d="M616.254 26.9426H612.202V113.352H616.254V26.9426Z" fill="#27AE60"/>
<path d="M613.823 113.352H614.633V121.05C614.633 121.274 614.452 121.455 614.228 121.455C614.004 121.455 613.823 121.274 613.823 121.05V113.352Z" fill="#27AE60"/>
<path d="M542.919 9.11561C542.919 8.89185 543.101 8.71045 543.325 8.71045C543.548 8.71045 543.73 8.89185 543.73 9.11561V12.7621H542.919V9.11561Z" fill="#EB5757"/>
<path d="M545.35 12.7622H541.299V45.1753H545.35V12.7622Z" fill="#EB5757"/>
<path d="M542.919 45.1753H543.73V48.8218C543.73 49.0455 543.548 49.2269 543.325 49.2269C543.101 49.2269 542.919 49.0455 542.919 48.8218V45.1753Z" fill="#EB5757"/>
<path d="M553.048 31.8051C553.048 31.5813 553.23 31.3999 553.454 31.3999C553.677 31.3999 553.859 31.5813 553.859 31.8051V35.4515H553.048V31.8051Z" fill="#EB5757"/>
<path d="M555.479 35.4517H551.428V67.8648H555.479V35.4517Z" fill="#EB5757"/>
<path d="M553.048 67.8647H553.859V71.5112C553.859 71.735 553.677 71.9164 553.454 71.9164C553.23 71.9164 553.048 71.735 553.048 71.5112V67.8647Z" fill="#EB5757"/>
<path d="M563.177 63.4086C563.177 63.1848 563.359 63.0034 563.582 63.0034C563.806 63.0034 563.988 63.1848 563.988 63.4086V67.0551H563.177V63.4086Z" fill="#EB5757"/>
<path d="M565.608 67.0552H561.557V99.4683H565.608V67.0552Z" fill="#EB5757"/>
<path d="M563.177 99.4683H563.988V103.115C563.988 103.339 563.806 103.52 563.582 103.52C563.359 103.52 563.177 103.339 563.177 103.115V99.4683Z" fill="#EB5757"/>
<path d="M684.727 60.5726C684.727 60.3489 684.908 60.1675 685.132 60.1675C685.355 60.1675 685.537 60.3489 685.537 60.5726V68.2708H684.727V60.5726Z" fill="#EB5757"/>
<path d="M687.158 68.2708H683.106V92.5806H687.158V68.2708Z" fill="#EB5757"/>
<path d="M684.727 92.5806H685.537V100.279C685.537 100.502 685.355 100.684 685.132 100.684C684.908 100.684 684.727 100.502 684.727 100.279V92.5806Z" fill="#EB5757"/>
<path d="M715.114 7.90077C715.114 7.677 715.295 7.49561 715.519 7.49561C715.743 7.49561 715.924 7.677 715.924 7.90077V11.5472H715.114V7.90077Z" fill="#EB5757"/>
<path d="M717.545 11.5474H713.493V88.7838H717.545V11.5474Z" fill="#EB5757"/>
<path d="M715.114 88.7837H715.924V92.4302C715.924 92.6539 715.743 92.8353 715.519 92.8353C715.295 92.8353 715.114 92.6539 715.114 92.4302V88.7837Z" fill="#EB5757"/>
<path d="M725.243 48.0121C725.243 47.7883 725.424 47.6069 725.648 47.6069C725.872 47.6069 726.053 47.7883 726.053 48.0121V51.6586H725.243V48.0121Z" fill="#EB5757"/>
<path d="M727.674 51.6587H723.622V128.895H727.674V51.6587Z" fill="#EB5757"/>
<path d="M725.243 128.895H726.053V132.541C726.053 132.765 725.872 132.947 725.648 132.947C725.424 132.947 725.243 132.765 725.243 132.541V128.895Z" fill="#EB5757"/>
<path d="M735.372 69.4848C735.372 69.261 735.553 69.0796 735.777 69.0796C736.001 69.0796 736.182 69.261 736.182 69.4848V77.1829H735.372V69.4848Z" fill="#EB5757"/>
<path d="M737.803 77.1829H733.751V146.316H737.803V77.1829Z" fill="#EB5757"/>
<path d="M735.372 146.316H736.182V154.014C736.182 154.238 736.001 154.419 735.777 154.419C735.553 154.419 735.372 154.238 735.372 154.014V146.316Z" fill="#EB5757"/>
<path d="M785.612 0.6078C785.612 0.384034 785.794 0.202637 786.017 0.202637C786.241 0.202637 786.423 0.384035 786.423 0.6078V8.30591H785.612V0.6078Z" fill="#EB5757"/>
<path d="M788.043 8.30591H783.992V77.439H788.043V8.30591Z" fill="#EB5757"/>
<path d="M785.612 77.439H786.423V85.1371C786.423 85.3608 786.241 85.5422 786.017 85.5422C785.794 85.5422 785.612 85.3608 785.612 85.1371V77.439Z" fill="#EB5757"/>
<path d="M692.572 21.1526C692.572 17.6109 689.851 14.7397 686.495 14.7397C683.138 14.7397 680.417 17.6109 680.417 21.1526C680.417 24.6943 683.138 27.5654 686.495 27.5654C689.851 27.5654 692.572 24.6943 692.572 21.1526Z" fill="#27AE60"/>
<path d="M683.557 23.1276V22.3881H684.403C684.615 22.3881 684.804 22.3564 684.968 22.2929C685.136 22.2257 685.278 22.1323 685.393 22.0128C685.509 21.8933 685.597 21.7533 685.656 21.5927C685.72 21.4283 685.752 21.2472 685.752 21.0493C685.752 20.8439 685.72 20.6609 685.656 20.5003C685.597 20.336 685.509 20.1959 685.393 20.0802C685.278 19.9644 685.136 19.8766 684.968 19.8169C684.804 19.7571 684.615 19.7272 684.403 19.7272H683.557V18.9878H684.352C684.722 18.9878 685.044 19.042 685.321 19.1503C685.597 19.2586 685.826 19.4079 686.009 19.5984C686.192 19.7851 686.328 19.9999 686.418 20.2426C686.511 20.4816 686.558 20.73 686.558 20.9877V21.1109C686.558 21.3574 686.511 21.6001 686.418 21.8392C686.328 22.0782 686.192 22.2948 686.009 22.489C685.826 22.6832 685.597 22.8381 685.321 22.9539C685.044 23.0697 684.722 23.1276 684.352 23.1276H683.557ZM682.875 23.1276V18.9878H683.669V23.1276H682.875ZM687.936 23.1332V22.4946H688.96C689.147 22.4946 689.288 22.4441 689.385 22.3433C689.483 22.2387 689.531 22.0968 689.531 21.9176C689.531 21.7383 689.483 21.6001 689.385 21.503C689.288 21.4022 689.147 21.3518 688.96 21.3518H687.936V20.8644H688.904C689.177 20.8644 689.419 20.898 689.632 20.9653C689.847 21.0287 690.016 21.137 690.135 21.2902C690.259 21.4433 690.321 21.6487 690.321 21.9064V21.9848C690.321 22.2275 690.265 22.4348 690.159 22.6066C690.054 22.7747 689.894 22.9054 689.682 22.9987C689.473 23.0884 689.214 23.1332 688.904 23.1332H687.936ZM687.269 23.1332V18.9878H688.048V23.1332H687.269ZM687.936 21.2229V20.7356H688.809C688.999 20.7356 689.139 20.6852 689.229 20.5843C689.318 20.4835 689.363 20.349 689.363 20.181C689.363 20.0129 689.318 19.8785 689.229 19.7777C689.139 19.6768 688.999 19.6264 688.809 19.6264H687.936V18.9878H688.736C689.199 18.9878 689.55 19.0849 689.789 19.2791C690.031 19.4733 690.152 19.7515 690.152 20.1138V20.1922C690.152 20.4461 690.09 20.6497 689.967 20.8028C689.847 20.9522 689.682 21.0605 689.47 21.1277C689.257 21.1912 689.012 21.2229 688.736 21.2229H687.936Z" fill="white"/>
<path d="M478.296 138.09C478.296 134.548 475.575 131.677 472.218 131.677C468.862 131.677 466.141 134.548 466.141 138.09C466.141 141.632 468.862 144.503 472.218 144.503C475.575 144.503 478.296 141.632 478.296 138.09Z" fill="#27AE60"/>
<path d="M469.28 140.391V139.652H470.126C470.339 139.652 470.527 139.62 470.691 139.557C470.859 139.489 471.001 139.396 471.117 139.277C471.232 139.157 471.32 139.017 471.38 138.856C471.443 138.692 471.475 138.511 471.475 138.313C471.475 138.108 471.443 137.925 471.38 137.764C471.32 137.6 471.232 137.46 471.117 137.344C471.001 137.228 470.859 137.14 470.691 137.081C470.527 137.021 470.339 136.991 470.126 136.991H469.28V136.251H470.075C470.445 136.251 470.768 136.306 471.044 136.414C471.32 136.522 471.55 136.672 471.732 136.862C471.915 137.049 472.051 137.264 472.141 137.506C472.234 137.745 472.281 137.994 472.281 138.251V138.375C472.281 138.621 472.234 138.864 472.141 139.103C472.051 139.342 471.915 139.559 471.732 139.753C471.55 139.947 471.32 140.102 471.044 140.218C470.768 140.333 470.445 140.391 470.075 140.391H469.28ZM468.598 140.391V136.251H469.392V140.391H468.598ZM473.659 140.397V139.758H474.683C474.87 139.758 475.012 139.708 475.109 139.607C475.206 139.502 475.254 139.36 475.254 139.181C475.254 139.002 475.206 138.864 475.109 138.767C475.012 138.666 474.87 138.616 474.683 138.616H473.659V138.128H474.627C474.9 138.128 475.142 138.162 475.355 138.229C475.571 138.292 475.739 138.401 475.859 138.554C475.982 138.707 476.044 138.912 476.044 139.17V139.248C476.044 139.491 475.989 139.699 475.881 139.87C475.777 140.038 475.618 140.169 475.405 140.263C475.196 140.352 474.937 140.397 474.627 140.397H473.659ZM472.993 140.397V136.251H473.771V140.397H472.993ZM473.659 138.487V137.999H474.532C474.722 137.999 474.862 137.949 474.952 137.848C475.041 137.747 475.086 137.613 475.086 137.445C475.086 137.277 475.041 137.142 474.952 137.041C474.862 136.941 474.722 136.89 474.532 136.89H473.659V136.251H474.459C474.922 136.251 475.273 136.349 475.512 136.543C475.754 136.737 475.876 137.015 475.876 137.378V137.456C475.876 137.71 475.814 137.913 475.691 138.067C475.571 138.216 475.405 138.324 475.193 138.391C474.98 138.455 474.735 138.487 474.459 138.487H473.659Z" fill="white"/>
<path d="M610.379 73.2659C610.379 69.7241 607.658 66.853 604.302 66.853C600.945 66.853 598.224 69.7241 598.224 73.2659C598.224 76.8076 600.945 79.6787 604.302 79.6787C607.658 79.6787 610.379 76.8076 610.379 73.2659Z" fill="#27AE60"/>
<path d="M601.363 75.2408V74.5014H602.209C602.422 74.5014 602.61 74.4698 602.774 74.4062C602.942 74.339 603.084 74.2457 603.2 74.1262C603.315 74.0067 603.403 73.8665 603.463 73.706C603.526 73.5417 603.558 73.3605 603.558 73.1627C603.558 72.9572 603.526 72.7741 603.463 72.6137C603.403 72.4493 603.315 72.3093 603.2 72.1935C603.084 72.0778 602.942 71.9899 602.774 71.9301C602.61 71.8704 602.422 71.8405 602.209 71.8405H601.363V71.1011H602.158C602.528 71.1011 602.851 71.1553 603.127 71.2637C603.403 71.3719 603.633 71.5213 603.815 71.7118C603.998 71.8985 604.134 72.1132 604.224 72.3559C604.317 72.5949 604.364 72.8433 604.364 73.1011V73.2242C604.364 73.4707 604.317 73.7135 604.224 73.9525C604.134 74.1915 603.998 74.4081 603.815 74.6023C603.633 74.7965 603.403 74.9514 603.127 75.0673C602.851 75.183 602.528 75.2408 602.158 75.2408H601.363ZM600.681 75.2408V71.1011H601.475V75.2408H600.681ZM605.742 75.2466V74.6079H606.766C606.953 74.6079 607.095 74.5575 607.192 74.4566C607.289 74.352 607.337 74.2101 607.337 74.0308C607.337 73.8516 607.289 73.7135 607.192 73.6164C607.095 73.5155 606.953 73.4651 606.766 73.4651H605.742V72.9777H606.71C606.983 72.9777 607.225 73.0114 607.438 73.0786C607.654 73.142 607.822 73.2504 607.941 73.4034C608.065 73.5567 608.127 73.762 608.127 74.0197V74.0981C608.127 74.3409 608.071 74.5481 607.965 74.7199C607.86 74.8881 607.7 75.0187 607.488 75.1121C607.279 75.2018 607.02 75.2466 606.71 75.2466H605.742ZM605.076 75.2466V71.1011H605.854V75.2466H605.076ZM605.742 73.3362V72.849H606.615C606.805 72.849 606.945 72.7985 607.035 72.6977C607.124 72.5968 607.169 72.4623 607.169 72.2944C607.169 72.1262 607.124 71.9918 607.035 71.8911C606.945 71.7901 606.805 71.7398 606.615 71.7398H605.742V71.1011H606.542C607.005 71.1011 607.356 71.1982 607.595 71.3924C607.837 71.5866 607.958 71.8648 607.958 72.2272V72.3055C607.958 72.5594 607.897 72.763 607.773 72.9163C607.654 73.0656 607.488 73.1738 607.276 73.241C607.063 73.3046 606.818 73.3362 606.542 73.3362H605.742Z" fill="white"/>
<path d="M730.713 144.574C730.713 141.033 727.992 138.162 724.635 138.162C721.279 138.162 718.558 141.033 718.558 144.574C718.558 148.116 721.279 150.987 724.635 150.987C727.992 150.987 730.713 148.116 730.713 144.574Z" fill="#EB5757"/>
<path d="M721.697 146.549V145.81H722.543C722.754 145.81 722.944 145.778 723.108 145.715C723.277 145.647 723.417 145.554 723.533 145.435C723.65 145.315 723.737 145.175 723.797 145.014C723.859 144.85 723.891 144.669 723.891 144.471C723.891 144.266 723.859 144.082 723.797 143.922C723.737 143.758 723.65 143.618 723.533 143.502C723.417 143.386 723.277 143.298 723.108 143.238C722.944 143.179 722.754 143.149 722.543 143.149H721.697V142.409H722.492C722.861 142.409 723.185 142.464 723.46 142.572C723.737 142.68 723.965 142.83 724.149 143.02C724.332 143.207 724.469 143.422 724.558 143.664C724.65 143.903 724.697 144.152 724.697 144.409V144.533C724.697 144.779 724.65 145.022 724.558 145.261C724.469 145.5 724.332 145.716 724.149 145.911C723.965 146.105 723.737 146.26 723.46 146.376C723.185 146.491 722.861 146.549 722.492 146.549H721.697ZM721.014 146.549V142.409H721.81V146.549H721.014ZM726.077 146.555V145.916H727.1C727.286 145.916 727.429 145.866 727.525 145.765C727.623 145.66 727.672 145.518 727.672 145.339C727.672 145.16 727.623 145.022 727.525 144.925C727.429 144.824 727.286 144.773 727.1 144.773H726.077V144.286H727.045C727.316 144.286 727.559 144.32 727.772 144.387C727.987 144.45 728.156 144.559 728.275 144.712C728.399 144.865 728.461 145.07 728.461 145.328V145.406C728.461 145.649 728.405 145.856 728.299 146.028C728.194 146.196 728.034 146.327 727.823 146.42C727.614 146.51 727.354 146.555 727.045 146.555H726.077ZM725.409 146.555V142.409H726.187V146.555H725.409ZM726.077 144.645V144.157H726.949C727.139 144.157 727.279 144.107 727.369 144.006C727.458 143.905 727.503 143.771 727.503 143.603C727.503 143.435 727.458 143.3 727.369 143.199C727.279 143.098 727.139 143.048 726.949 143.048H726.077V142.409H726.876C727.339 142.409 727.689 142.507 727.928 142.701C728.171 142.895 728.292 143.173 728.292 143.536V143.614C728.292 143.868 728.23 144.071 728.107 144.225C727.987 144.374 727.823 144.482 727.61 144.549C727.397 144.613 727.151 144.645 726.876 144.645H726.077Z" fill="white"/>
<path d="M403.543 60.1664C403.543 59.9426 403.724 59.7612 403.948 59.7612C404.172 59.7612 404.353 59.9426 404.353 60.1664V67.8645H403.543V60.1664Z" fill="#EB5757"/>
<path d="M405.974 67.8645H401.922V93.0941H405.974V67.8645Z" fill="#EB5757"/>
<path d="M403.543 93.094H404.353V100.792C404.353 101.016 404.172 101.197 403.948 101.197C403.724 101.197 403.543 101.016 403.543 100.792V93.094Z" fill="#EB5757"/>
<path d="M10.1289 70.2953C10.1289 70.0715 10.3103 69.8901 10.5341 69.8901C10.7578 69.8901 10.9392 70.0715 10.9392 70.2953V77.9934H10.1289V70.2953Z" fill="#27AE60"/>
<path d="M12.5599 77.9934H8.5083V134.716H12.5599V77.9934Z" fill="#27AE60"/>
<path d="M10.1289 134.716H10.9392V142.414C10.9392 142.638 10.7578 142.82 10.5341 142.82C10.3103 142.82 10.1289 142.638 10.1289 142.414V134.716Z" fill="#27AE60"/>
<path d="M131.273 5.46913C131.273 5.24536 131.454 5.06396 131.678 5.06396C131.902 5.06396 132.083 5.24536 132.083 5.46913V13.1672H131.273V5.46913Z" fill="#27AE60"/>
<path d="M133.704 13.1672H129.652V102.303H133.704V13.1672Z" fill="#27AE60"/>
<path d="M131.273 102.303H132.083V110.001C132.083 110.225 131.902 110.406 131.678 110.406C131.454 110.406 131.273 110.225 131.273 110.001V102.303Z" fill="#27AE60"/>
<path d="M293.338 0.6078C293.338 0.384035 293.52 0.202637 293.744 0.202637C293.967 0.202637 294.149 0.384035 294.149 0.607801V4.25428H293.338V0.6078Z" fill="#27AE60"/>
<path d="M295.769 4.25439H291.718V101.388H295.769V4.25439Z" fill="#27AE60"/>
<path d="M293.338 101.388H294.149V105.035C294.149 105.258 293.967 105.44 293.744 105.44C293.52 105.44 293.338 105.258 293.338 105.035V101.388Z" fill="#27AE60"/>
<path d="M303.467 6.27968C303.467 6.05591 303.649 5.87451 303.872 5.87451C304.096 5.87451 304.278 6.05591 304.278 6.27968V9.92615H303.467V6.27968Z" fill="#27AE60"/>
<path d="M305.898 9.92627H301.847V107.06H305.898V9.92627Z" fill="#27AE60"/>
<path d="M303.467 107.06H304.278V110.707C304.278 110.93 304.096 111.112 303.872 111.112C303.649 111.112 303.467 110.93 303.467 110.707V107.06Z" fill="#27AE60"/>
<path d="M171.79 19.6508C171.79 19.427 171.971 19.2456 172.195 19.2456C172.418 19.2456 172.6 19.427 172.6 19.6508V23.2972H171.79V19.6508Z" fill="#27AE60"/>
<path d="M174.221 23.2974H170.169V88.5287H174.221V23.2974Z" fill="#27AE60"/>
<path d="M171.79 88.5286H172.6V92.175C172.6 92.3988 172.418 92.5802 172.195 92.5802C171.971 92.5802 171.79 92.3988 171.79 92.175V88.5286Z" fill="#27AE60"/>
<path d="M181.918 3.03944C181.918 2.81568 182.1 2.63428 182.324 2.63428C182.547 2.63428 182.729 2.81568 182.729 3.03944V6.68592H181.918V3.03944Z" fill="#27AE60"/>
<path d="M184.349 6.68604H180.298V82.3504H184.349V6.68604Z" fill="#27AE60"/>
<path d="M181.918 82.3503H182.729V85.9968C182.729 86.2206 182.547 86.402 182.324 86.402C182.1 86.402 181.918 86.2206 181.918 85.9968V82.3503Z" fill="#27AE60"/>
<path d="M111.42 93.391C111.42 93.1672 111.601 92.9858 111.825 92.9858C112.049 92.9858 112.23 93.1672 112.23 93.391V101.089H111.42V93.391Z" fill="#27AE60"/>
<path d="M113.851 101.089H109.799V158.217H113.851V101.089Z" fill="#27AE60"/>
<path d="M111.42 158.217H112.23V165.915C112.23 166.139 112.049 166.321 111.825 166.321C111.601 166.321 111.42 166.139 111.42 165.915V158.217Z" fill="#27AE60"/>
<path d="M121.144 53.684C121.144 53.4602 121.325 53.2788 121.549 53.2788C121.773 53.2788 121.954 53.4602 121.954 53.684V61.3821H121.144V53.684Z" fill="#27AE60"/>
<path d="M123.575 61.3821H119.523V118.51H123.575V61.3821Z" fill="#27AE60"/>
<path d="M121.144 118.51H121.954V126.208C121.954 126.432 121.773 126.614 121.549 126.614C121.325 126.614 121.144 126.432 121.144 126.208V118.51Z" fill="#27AE60"/>
<path d="M20.2583 73.1312C20.2583 72.9075 20.4397 72.7261 20.6635 72.7261C20.8872 72.7261 21.0686 72.9075 21.0686 73.1312V80.8294H20.2583V73.1312Z" fill="#27AE60"/>
<path d="M22.6893 80.8293H18.6377V95.4152H22.6893V80.8293Z" fill="#27AE60"/>
<path d="M20.2583 95.4153H21.0686V103.113C21.0686 103.337 20.8872 103.519 20.6635 103.519C20.4397 103.519 20.2583 103.337 20.2583 103.113V95.4153Z" fill="#27AE60"/>
<path d="M40.5161 158.622C40.5161 158.398 40.6975 158.217 40.9213 158.217C41.145 158.217 41.3264 158.398 41.3264 158.622V162.268H40.5161V158.622Z" fill="#27AE60"/>
<path d="M42.9471 162.268H38.8955V171.992H42.9471V162.268Z" fill="#27AE60"/>
<path d="M40.5161 171.992H41.3264V175.639C41.3264 175.862 41.145 176.044 40.9213 176.044C40.6975 176.044 40.5161 175.862 40.5161 175.639V171.992Z" fill="#27AE60"/>
<path d="M222.435 99.8734C222.435 99.6497 222.616 99.4683 222.84 99.4683C223.064 99.4683 223.245 99.6497 223.245 99.8734V103.52H222.435V99.8734Z" fill="#27AE60"/>
<path d="M224.866 103.52H220.814V113.244H224.866V103.52Z" fill="#27AE60"/>
<path d="M222.435 113.244H223.245V116.89C223.245 117.114 223.064 117.296 222.84 117.296C222.616 117.296 222.435 117.114 222.435 116.89V113.244Z" fill="#27AE60"/>
<path d="M50.645 154.571C50.645 154.347 50.8264 154.166 51.0502 154.166C51.2739 154.166 51.4553 154.347 51.4553 154.571V158.217H50.645V154.571Z" fill="#27AE60"/>
<path d="M53.0761 158.217H49.0244V167.941H53.0761V158.217Z" fill="#27AE60"/>
<path d="M50.645 167.941H51.4553V171.588C51.4553 171.811 51.2739 171.993 51.0502 171.993C50.8264 171.993 50.645 171.811 50.645 171.588V167.941Z" fill="#27AE60"/>
<path d="M232.564 95.8207C232.564 95.5969 232.745 95.4155 232.969 95.4155C233.193 95.4155 233.374 95.5969 233.374 95.8207V99.4672H232.564V95.8207Z" fill="#27AE60"/>
<path d="M234.995 99.4673H230.943V109.191H234.995V99.4673Z" fill="#27AE60"/>
<path d="M232.564 109.191H233.374V112.838C233.374 113.061 233.193 113.243 232.969 113.243C232.745 113.243 232.564 113.061 232.564 112.838V109.191Z" fill="#27AE60"/>
<path d="M60.7744 151.735C60.7744 151.511 60.9558 151.33 61.1796 151.33C61.4033 151.33 61.5847 151.511 61.5847 151.735V155.381H60.7744V151.735Z" fill="#27AE60"/>
<path d="M63.2054 155.381H59.1538V165.105H63.2054V155.381Z" fill="#27AE60"/>
<path d="M60.7744 165.105H61.5847V168.752C61.5847 168.975 61.4033 169.157 61.1796 169.157C60.9558 169.157 60.7744 168.975 60.7744 168.752V165.105Z" fill="#27AE60"/>
<path d="M242.693 92.9848C242.693 92.761 242.874 92.5796 243.098 92.5796C243.322 92.5796 243.503 92.761 243.503 92.9848V96.6312H242.693V92.9848Z" fill="#27AE60"/>
<path d="M245.124 96.6313H241.072V106.355H245.124V96.6313Z" fill="#27AE60"/>
<path d="M242.693 106.355H243.503V110.002C243.503 110.225 243.322 110.407 243.098 110.407C242.874 110.407 242.693 110.225 242.693 110.002V106.355Z" fill="#27AE60"/>
<path d="M70.9033 149.303C70.9033 149.079 71.0847 148.898 71.3085 148.898C71.5322 148.898 71.7136 149.079 71.7136 149.303V152.95H70.9033V149.303Z" fill="#27AE60"/>
<path d="M73.3344 152.95H69.2827V162.674H73.3344V152.95Z" fill="#27AE60"/>
<path d="M70.9033 162.674H71.7136V166.32C71.7136 166.544 71.5322 166.725 71.3085 166.725C71.0847 166.725 70.9033 166.544 70.9033 166.32V162.674Z" fill="#27AE60"/>
<path d="M252.822 90.5551C252.822 90.3313 253.003 90.1499 253.227 90.1499C253.451 90.1499 253.632 90.3313 253.632 90.5551V94.2015H252.822V90.5551Z" fill="#27AE60"/>
<path d="M255.253 94.2017H251.201V103.926H255.253V94.2017Z" fill="#27AE60"/>
<path d="M252.822 103.926H253.632V107.572C253.632 107.796 253.451 107.977 253.227 107.977C253.003 107.977 252.822 107.796 252.822 107.572V103.926Z" fill="#27AE60"/>
<path d="M91.1616 148.897C91.1616 148.673 91.343 148.492 91.5668 148.492C91.7906 148.492 91.9719 148.673 91.9719 148.897V152.543H91.1616V148.897Z" fill="#27AE60"/>
<path d="M93.5927 152.543H89.541V162.267H93.5927V152.543Z" fill="#27AE60"/>
<path d="M91.1616 162.267H91.9719V165.914C91.9719 166.138 91.7906 166.319 91.5668 166.319C91.343 166.319 91.1616 166.138 91.1616 165.914V162.267Z" fill="#27AE60"/>
<path d="M192.047 10.7367C192.047 10.5129 192.229 10.3315 192.453 10.3315C192.676 10.3315 192.858 10.5129 192.858 10.7367V14.3832H192.047V10.7367Z" fill="#27AE60"/>
<path d="M194.478 14.3833H190.427V24.1072H194.478V14.3833Z" fill="#27AE60"/>
<path d="M192.047 24.1072H192.858V27.7537C192.858 27.9774 192.676 28.1588 192.453 28.1588C192.229 28.1588 192.047 27.9774 192.047 27.7537V24.1072Z" fill="#27AE60"/>
<path d="M202.176 17.6254C202.176 17.4016 202.358 17.2202 202.581 17.2202C202.805 17.2202 202.987 17.4016 202.987 17.6254V21.2719H202.176V17.6254Z" fill="#27AE60"/>
<path d="M204.607 21.272H200.556V30.9959H204.607V21.272Z" fill="#27AE60"/>
<path d="M202.176 30.9958H202.987V34.6423C202.987 34.8661 202.805 35.0475 202.581 35.0475C202.358 35.0475 202.176 34.8661 202.176 34.6423V30.9958Z" fill="#27AE60"/>
<path d="M101.291 151.329C101.291 151.105 101.472 150.923 101.696 150.923C101.919 150.923 102.101 151.105 102.101 151.329V154.975H101.291V151.329Z" fill="#27AE60"/>
<path d="M103.722 154.975H99.6699V164.699H103.722V154.975Z" fill="#27AE60"/>
<path d="M101.291 164.699H102.101V168.345C102.101 168.569 101.919 168.751 101.696 168.751C101.472 168.751 101.291 168.569 101.291 168.345V164.699Z" fill="#27AE60"/>
<path d="M81.0327 128.235C81.0327 128.011 81.2141 127.83 81.4379 127.83C81.6616 127.83 81.843 128.011 81.843 128.235V131.881H81.0327V128.235Z" fill="#27AE60"/>
<path d="M83.4637 131.881H79.4121V158.217H83.4637V131.881Z" fill="#27AE60"/>
<path d="M81.0327 158.217H81.843V161.863C81.843 162.087 81.6616 162.268 81.4379 162.268C81.2141 162.268 81.0327 162.087 81.0327 161.863V158.217Z" fill="#27AE60"/>
<path d="M262.951 71.5121C262.951 71.2883 263.133 71.1069 263.356 71.1069C263.58 71.1069 263.761 71.2883 263.761 71.5121V75.1586H262.951V71.5121Z" fill="#27AE60"/>
<path d="M265.382 75.1587H261.331V101.612H265.382V75.1587Z" fill="#27AE60"/>
<path d="M262.951 101.612H263.761V105.258C263.761 105.482 263.58 105.663 263.356 105.663C263.133 105.663 262.951 105.482 262.951 105.258V101.612Z" fill="#27AE60"/>
<path d="M273.081 54.0902C273.081 53.8665 273.262 53.6851 273.486 53.6851C273.709 53.6851 273.891 53.8665 273.891 54.0902V57.7367H273.081V54.0902Z" fill="#27AE60"/>
<path d="M275.512 57.7368H271.46V84.19H275.512V57.7368Z" fill="#27AE60"/>
<path d="M273.081 84.1899H273.891V87.8364C273.891 88.0602 273.709 88.2416 273.486 88.2416C273.262 88.2416 273.081 88.0602 273.081 87.8364V84.1899Z" fill="#27AE60"/>
<path d="M343.579 105.139C343.579 104.915 343.76 104.734 343.984 104.734C344.208 104.734 344.389 104.915 344.389 105.139V108.786H343.579V105.139Z" fill="#27AE60"/>
<path d="M346.01 108.786H341.958V135.239H346.01V108.786Z" fill="#27AE60"/>
<path d="M343.579 135.239H344.389V138.885C344.389 139.109 344.208 139.29 343.984 139.29C343.76 139.29 343.579 139.109 343.579 138.885V135.239Z" fill="#27AE60"/>
<path d="M353.708 78.8051C353.708 78.5813 353.889 78.3999 354.113 78.3999C354.336 78.3999 354.518 78.5813 354.518 78.8051V82.4515H353.708V78.8051Z" fill="#27AE60"/>
<path d="M356.139 82.4517H352.087V108.905H356.139V82.4517Z" fill="#27AE60"/>
<path d="M353.708 108.905H354.518V112.551C354.518 112.775 354.336 112.956 354.113 112.956C353.889 112.956 353.708 112.775 353.708 112.551V108.905Z" fill="#27AE60"/>
<path d="M363.837 64.2191C363.837 63.9954 364.018 63.814 364.242 63.814C364.466 63.814 364.647 63.9954 364.647 64.2191V67.8656H363.837V64.2191Z" fill="#27AE60"/>
<path d="M366.268 67.8657H362.216V94.3189H366.268V67.8657Z" fill="#27AE60"/>
<path d="M363.837 94.3188H364.647V97.9653C364.647 98.1891 364.466 98.3705 364.242 98.3705C364.018 98.3705 363.837 98.1891 363.837 97.9653V94.3188Z" fill="#27AE60"/>
<path d="M373.966 51.2523C373.966 51.0286 374.148 50.8472 374.371 50.8472C374.595 50.8472 374.777 51.0286 374.777 51.2523V54.8988H373.966V51.2523Z" fill="#27AE60"/>
<path d="M376.397 54.8989H372.346V81.3521H376.397V54.8989Z" fill="#27AE60"/>
<path d="M373.966 81.3521H374.777V84.9985C374.777 85.2223 374.595 85.4037 374.371 85.4037C374.148 85.4037 373.966 85.2223 373.966 84.9985V81.3521Z" fill="#27AE60"/>
<path d="M393.819 51.2523C393.819 51.0286 394 50.8472 394.224 50.8472C394.448 50.8472 394.629 51.0286 394.629 51.2523V54.8988H393.819V51.2523Z" fill="#27AE60"/>
<path d="M396.25 54.8989H392.198V81.3521H396.25V54.8989Z" fill="#27AE60"/>
<path d="M393.819 81.3521H394.629V84.9985C394.629 85.2223 394.448 85.4037 394.224 85.4037C394 85.4037 393.819 85.2223 393.819 84.9985V81.3521Z" fill="#27AE60"/>
<path d="M30.3872 75.5631C30.3872 75.3394 30.5686 75.158 30.7924 75.158C31.0161 75.158 31.1975 75.3394 31.1975 75.5631V83.2612H30.3872V75.5631Z" fill="#EB5757"/>
<path d="M32.8182 83.2612H28.7666V169.561H32.8182V83.2612Z" fill="#EB5757"/>
<path d="M30.3872 169.561H31.1975V177.259C31.1975 177.483 31.0161 177.664 30.7924 177.664C30.5686 177.664 30.3872 177.483 30.3872 177.259V169.561Z" fill="#EB5757"/>
<path d="M212.306 19.2445C212.306 19.0208 212.487 18.8394 212.711 18.8394C212.935 18.8394 213.116 19.0208 213.116 19.2445V26.9426H212.306V19.2445Z" fill="#27AE60"/>
<path d="M214.737 26.9426H210.685V113.352H214.737V26.9426Z" fill="#27AE60"/>
<path d="M212.306 113.352H213.116V121.05C213.116 121.274 212.935 121.455 212.711 121.455C212.487 121.455 212.306 121.274 212.306 121.05V113.352Z" fill="#27AE60"/>
<path d="M141.402 9.11561C141.402 8.89185 141.583 8.71045 141.807 8.71045C142.031 8.71045 142.212 8.89185 142.212 9.11561V12.7621H141.402V9.11561Z" fill="#EB5757"/>
<path d="M143.833 12.7622H139.781V45.1753H143.833V12.7622Z" fill="#EB5757"/>
<path d="M141.402 45.1753H142.212V48.8218C142.212 49.0455 142.031 49.2269 141.807 49.2269C141.583 49.2269 141.402 49.0455 141.402 48.8218V45.1753Z" fill="#EB5757"/>
<path d="M151.531 31.8051C151.531 31.5813 151.712 31.3999 151.936 31.3999C152.16 31.3999 152.341 31.5813 152.341 31.8051V35.4515H151.531V31.8051Z" fill="#EB5757"/>
<path d="M153.962 35.4517H149.91V67.8648H153.962V35.4517Z" fill="#EB5757"/>
<path d="M151.531 67.8647H152.341V71.5112C152.341 71.735 152.16 71.9164 151.936 71.9164C151.712 71.9164 151.531 71.735 151.531 71.5112V67.8647Z" fill="#EB5757"/>
<path d="M161.66 63.4086C161.66 63.1848 161.842 63.0034 162.065 63.0034C162.289 63.0034 162.47 63.1848 162.47 63.4086V67.0551H161.66V63.4086Z" fill="#EB5757"/>
<path d="M164.091 67.0552H160.04V99.4683H164.091V67.0552Z" fill="#EB5757"/>
<path d="M161.66 99.4683H162.47V103.115C162.47 103.339 162.289 103.52 162.065 103.52C161.842 103.52 161.66 103.339 161.66 103.115V99.4683Z" fill="#EB5757"/>
<path d="M283.209 60.5726C283.209 60.3489 283.391 60.1675 283.615 60.1675C283.838 60.1675 284.02 60.3489 284.02 60.5726V68.2708H283.209V60.5726Z" fill="#EB5757"/>
<path d="M285.641 68.2708H281.589V92.5806H285.641V68.2708Z" fill="#EB5757"/>
<path d="M283.209 92.5806H284.02V100.279C284.02 100.502 283.838 100.684 283.615 100.684C283.391 100.684 283.209 100.502 283.209 100.279V92.5806Z" fill="#EB5757"/>
<path d="M313.597 7.90077C313.597 7.677 313.778 7.49561 314.002 7.49561C314.226 7.49561 314.407 7.677 314.407 7.90077V11.5472H313.597V7.90077Z" fill="#EB5757"/>
<path d="M316.028 11.5474H311.976V88.7838H316.028V11.5474Z" fill="#EB5757"/>
<path d="M313.597 88.7837H314.407V92.4302C314.407 92.6539 314.226 92.8353 314.002 92.8353C313.778 92.8353 313.597 92.6539 313.597 92.4302V88.7837Z" fill="#EB5757"/>
<path d="M323.726 48.0121C323.726 47.7883 323.907 47.6069 324.131 47.6069C324.355 47.6069 324.536 47.7883 324.536 48.0121V51.6586H323.726V48.0121Z" fill="#EB5757"/>
<path d="M326.157 51.6587H322.105V128.895H326.157V51.6587Z" fill="#EB5757"/>
<path d="M323.726 128.895H324.536V132.541C324.536 132.765 324.355 132.947 324.131 132.947C323.907 132.947 323.726 132.765 323.726 132.541V128.895Z" fill="#EB5757"/>
<path d="M333.855 69.4848C333.855 69.261 334.036 69.0796 334.26 69.0796C334.484 69.0796 334.665 69.261 334.665 69.4848V77.1829H333.855V69.4848Z" fill="#EB5757"/>
<path d="M336.286 77.1829H332.234V146.316H336.286V77.1829Z" fill="#EB5757"/>
<path d="M333.855 146.316H334.665V154.014C334.665 154.238 334.484 154.419 334.26 154.419C334.036 154.419 333.855 154.238 333.855 154.014V146.316Z" fill="#EB5757"/>
<path d="M384.095 0.6078C384.095 0.384034 384.277 0.202637 384.5 0.202637C384.724 0.202637 384.906 0.384035 384.906 0.6078V8.30591H384.095V0.6078Z" fill="#EB5757"/>
<path d="M386.526 8.30591H382.475V77.439H386.526V8.30591Z" fill="#EB5757"/>
<path d="M384.095 77.439H384.906V85.1371C384.906 85.3608 384.724 85.5422 384.5 85.5422C384.277 85.5422 384.095 85.3608 384.095 85.1371V77.439Z" fill="#EB5757"/>
<path d="M291.055 21.1526C291.055 17.6109 288.334 14.7397 284.978 14.7397C281.621 14.7397 278.9 17.6109 278.9 21.1526C278.9 24.6943 281.621 27.5654 284.978 27.5654C288.334 27.5654 291.055 24.6943 291.055 21.1526Z" fill="#27AE60"/>
<path d="M282.04 23.1276V22.3881H282.886C283.098 22.3881 283.287 22.3564 283.451 22.2929C283.619 22.2257 283.761 22.1323 283.876 22.0128C283.992 21.8933 284.08 21.7533 284.139 21.5927C284.203 21.4283 284.235 21.2472 284.235 21.0493C284.235 20.8439 284.203 20.6609 284.139 20.5003C284.08 20.336 283.992 20.1959 283.876 20.0802C283.761 19.9644 283.619 19.8766 283.451 19.8169C283.287 19.7571 283.098 19.7272 282.886 19.7272H282.04V18.9878H282.835C283.205 18.9878 283.527 19.042 283.804 19.1503C284.08 19.2586 284.309 19.4079 284.492 19.5984C284.675 19.7851 284.811 19.9999 284.901 20.2426C284.994 20.4816 285.041 20.73 285.041 20.9877V21.1109C285.041 21.3574 284.994 21.6001 284.901 21.8392C284.811 22.0782 284.675 22.2948 284.492 22.489C284.309 22.6832 284.08 22.8381 283.804 22.9539C283.527 23.0697 283.205 23.1276 282.835 23.1276H282.04ZM281.357 23.1276V18.9878H282.152V23.1276H281.357ZM286.419 23.1332V22.4946H287.443C287.63 22.4946 287.771 22.4441 287.868 22.3433C287.965 22.2387 288.014 22.0968 288.014 21.9176C288.014 21.7383 287.965 21.6001 287.868 21.503C287.771 21.4022 287.63 21.3518 287.443 21.3518H286.419V20.8644H287.387C287.659 20.8644 287.902 20.898 288.115 20.9653C288.33 21.0287 288.499 21.137 288.618 21.2902C288.742 21.4433 288.804 21.6487 288.804 21.9064V21.9848C288.804 22.2275 288.748 22.4348 288.642 22.6066C288.537 22.7747 288.377 22.9054 288.165 22.9987C287.956 23.0884 287.697 23.1332 287.387 23.1332H286.419ZM285.752 23.1332V18.9878H286.531V23.1332H285.752ZM286.419 21.2229V20.7356H287.292C287.482 20.7356 287.622 20.6852 287.712 20.5843C287.801 20.4835 287.846 20.349 287.846 20.181C287.846 20.0129 287.801 19.8785 287.712 19.7777C287.622 19.6768 287.482 19.6264 287.292 19.6264H286.419V18.9878H287.219C287.682 18.9878 288.033 19.0849 288.271 19.2791C288.514 19.4733 288.635 19.7515 288.635 20.1138V20.1922C288.635 20.4461 288.573 20.6497 288.45 20.8028C288.33 20.9522 288.165 21.0605 287.952 21.1277C287.74 21.1912 287.495 21.2229 287.219 21.2229H286.419Z" fill="white"/>
<path d="M108.771 113.078C108.771 109.537 106.05 106.666 102.694 106.666C99.3372 106.666 96.6162 109.537 96.6162 113.078C96.6162 116.62 99.3372 119.491 102.694 119.491C106.05 119.491 108.771 116.62 108.771 113.078Z" fill="#27AE60"/>
<path d="M99.756 115.379V114.64H100.601C100.814 114.64 101.002 114.608 101.167 114.545C101.335 114.478 101.477 114.384 101.592 114.265C101.708 114.145 101.796 114.005 101.855 113.845C101.919 113.68 101.951 113.499 101.951 113.301C101.951 113.096 101.919 112.913 101.855 112.752C101.796 112.588 101.708 112.448 101.592 112.332C101.477 112.216 101.335 112.129 101.167 112.069C101.002 112.009 100.814 111.979 100.601 111.979H99.756V111.24H100.551C100.92 111.24 101.243 111.294 101.519 111.402C101.796 111.511 102.025 111.66 102.208 111.85C102.391 112.037 102.527 112.252 102.617 112.495C102.71 112.734 102.757 112.982 102.757 113.24V113.363C102.757 113.609 102.71 113.852 102.617 114.091C102.527 114.33 102.391 114.547 102.208 114.741C102.025 114.935 101.796 115.09 101.519 115.206C101.243 115.322 100.92 115.379 100.551 115.379H99.756ZM99.0732 115.379V111.24H99.868V115.379H99.0732ZM104.134 115.385V114.747H105.159C105.345 114.747 105.487 114.696 105.584 114.595C105.681 114.491 105.73 114.349 105.73 114.17C105.73 113.99 105.681 113.852 105.584 113.755C105.487 113.654 105.345 113.604 105.159 113.604H104.134V113.116H105.103C105.375 113.116 105.618 113.15 105.831 113.217C106.047 113.281 106.215 113.389 106.334 113.542C106.457 113.695 106.519 113.901 106.519 114.158V114.237C106.519 114.48 106.465 114.687 106.357 114.859C106.252 115.027 106.094 115.157 105.881 115.251C105.672 115.34 105.413 115.385 105.103 115.385H104.134ZM103.468 115.385V111.24H104.246V115.385H103.468ZM104.134 113.475V112.988H105.008C105.198 112.988 105.338 112.937 105.427 112.836C105.517 112.735 105.562 112.601 105.562 112.433C105.562 112.265 105.517 112.13 105.427 112.03C105.338 111.929 105.198 111.878 105.008 111.878H104.134V111.24H104.935C105.398 111.24 105.748 111.337 105.987 111.531C106.23 111.725 106.351 112.004 106.351 112.366V112.444C106.351 112.698 106.29 112.902 106.166 113.055C106.047 113.204 105.881 113.313 105.668 113.38C105.456 113.443 105.211 113.475 104.935 113.475H104.134Z" fill="white"/>
<path d="M291.055 40.3931C291.055 36.8513 288.334 33.9802 284.978 33.9802C281.621 33.9802 278.9 36.8513 278.9 40.3931C278.9 43.9348 281.621 46.8059 284.978 46.8059C288.334 46.8059 291.055 43.9348 291.055 40.3931Z" fill="#27AE60"/>
<path d="M282.04 42.368V41.6286H282.886C283.098 41.6286 283.287 41.597 283.451 41.5334C283.619 41.4662 283.761 41.3729 283.876 41.2534C283.992 41.1339 284.08 40.9937 284.139 40.8332C284.203 40.6689 284.235 40.4877 284.235 40.2899C284.235 40.0844 284.203 39.9013 284.139 39.7408C284.08 39.5765 283.992 39.4365 283.876 39.3207C283.761 39.205 283.619 39.1171 283.451 39.0573C283.287 38.9976 283.098 38.9677 282.886 38.9677H282.04V38.2283H282.835C283.205 38.2283 283.527 38.2825 283.804 38.3909C284.08 38.4991 284.309 38.6485 284.492 38.839C284.675 39.0257 284.811 39.2404 284.901 39.4831C284.994 39.7221 285.041 39.9705 285.041 40.2283V40.3514C285.041 40.5979 284.994 40.8407 284.901 41.0797C284.811 41.3187 284.675 41.5353 284.492 41.7295C284.309 41.9237 284.08 42.0786 283.804 42.1945C283.527 42.3102 283.205 42.368 282.835 42.368H282.04ZM281.357 42.368V38.2283H282.152V42.368H281.357ZM286.419 42.3738V41.7351H287.443C287.63 41.7351 287.771 41.6847 287.868 41.5838C287.965 41.4792 288.014 41.3373 288.014 41.158C288.014 40.9788 287.965 40.8407 287.868 40.7436C287.771 40.6427 287.63 40.5923 287.443 40.5923H286.419V40.1049H287.387C287.659 40.1049 287.902 40.1386 288.115 40.2058C288.33 40.2692 288.499 40.3776 288.618 40.5306C288.742 40.6839 288.804 40.8892 288.804 41.1469V41.2253C288.804 41.4681 288.748 41.6753 288.642 41.8471C288.537 42.0153 288.377 42.1459 288.165 42.2393C287.956 42.329 287.697 42.3738 287.387 42.3738H286.419ZM285.752 42.3738V38.2283H286.531V42.3738H285.752ZM286.419 40.4634V39.9762H287.292C287.482 39.9762 287.622 39.9257 287.712 39.8249C287.801 39.724 287.846 39.5895 287.846 39.4216C287.846 39.2534 287.801 39.119 287.712 39.0183C287.622 38.9173 287.482 38.867 287.292 38.867H286.419V38.2283H287.219C287.682 38.2283 288.033 38.3254 288.271 38.5196C288.514 38.7138 288.635 38.992 288.635 39.3544V39.4327C288.635 39.6866 288.573 39.8902 288.45 40.0434C288.33 40.1928 288.165 40.301 287.952 40.3682C287.74 40.4318 287.495 40.4634 287.219 40.4634H286.419Z" fill="white"/>
<path d="M381.99 30.1311C381.99 26.5894 379.269 23.7183 375.912 23.7183C372.556 23.7183 369.835 26.5894 369.835 30.1311C369.835 33.6728 372.556 36.5439 375.912 36.5439C379.269 36.5439 381.99 33.6728 381.99 30.1311Z" fill="#EB5757"/>
<path d="M372.974 32.1058V31.3664H373.82C374.032 31.3664 374.221 31.3348 374.386 31.2712C374.554 31.204 374.695 31.1107 374.81 30.9912C374.927 30.8717 375.015 30.7315 375.074 30.571C375.136 30.4067 375.168 30.2255 375.168 30.0277C375.168 29.8222 375.136 29.6391 375.074 29.4786C375.015 29.3143 374.927 29.1743 374.81 29.0585C374.695 28.9428 374.554 28.8549 374.386 28.7951C374.221 28.7354 374.032 28.7055 373.82 28.7055H372.974V27.9661H373.769C374.138 27.9661 374.462 28.0203 374.737 28.1287C375.015 28.2369 375.243 28.3862 375.426 28.5768C375.61 28.7635 375.746 28.9782 375.836 29.2209C375.927 29.4599 375.974 29.7083 375.974 29.966V30.0892C375.974 30.3357 375.927 30.5785 375.836 30.8175C375.746 31.0565 375.61 31.2731 375.426 31.4673C375.243 31.6615 375.015 31.8164 374.737 31.9323C374.462 32.048 374.138 32.1058 373.769 32.1058H372.974ZM372.292 32.1058V27.9661H373.087V32.1058H372.292ZM377.354 32.1116V31.4729H378.378C378.563 31.4729 378.706 31.4225 378.802 31.3216C378.9 31.217 378.949 31.0751 378.949 30.8958C378.949 30.7166 378.9 30.5785 378.802 30.4814C378.706 30.3805 378.563 30.3301 378.378 30.3301H377.354V29.8427H378.322C378.593 29.8427 378.836 29.8764 379.049 29.9436C379.265 30.007 379.433 30.1154 379.552 30.2684C379.676 30.4217 379.738 30.6269 379.738 30.8847V30.9631C379.738 31.2059 379.683 31.4131 379.576 31.5849C379.471 31.7531 379.311 31.8837 379.1 31.9771C378.891 32.0668 378.631 32.1116 378.322 32.1116H377.354ZM376.686 32.1116V27.9661H377.465V32.1116H376.686ZM377.354 30.2012V29.714H378.226C378.416 29.714 378.557 29.6634 378.646 29.5627C378.736 29.4618 378.781 29.3273 378.781 29.1594C378.781 28.9912 378.736 28.8568 378.646 28.7561C378.557 28.6551 378.416 28.6048 378.226 28.6048H377.354V27.9661H378.154C378.616 27.9661 378.966 28.0632 379.205 28.2574C379.448 28.4515 379.57 28.7298 379.57 29.0922V29.1705C379.57 29.4244 379.508 29.628 379.384 29.7812C379.265 29.9306 379.1 30.0388 378.887 30.106C378.674 30.1696 378.429 30.2012 378.154 30.2012H377.354Z" fill="white"/>
</svg>
