<svg width="51" height="51" viewBox="0 0 51 51" fill="none" xmlns="http://www.w3.org/2000/svg">
<path d="M16.9249 37.45C16.925 37.971 16.8095 38.4856 16.5867 38.9566C16.364 39.4276 16.0395 39.8434 15.6368 40.1739C15.234 40.5044 14.763 40.7415 14.2575 40.8681C13.7521 40.9947 13.2249 41.0076 12.7139 40.9059C12.0304 40.77 11.4025 40.4344 10.9098 39.9416C10.417 39.4488 10.0814 38.821 9.94553 38.1375C9.79819 37.3961 9.89314 36.627 10.2164 35.9438C10.5396 35.2605 11.074 34.6993 11.7406 34.343C12.4072 33.9866 13.1707 33.8541 13.9184 33.9649C14.6661 34.0758 15.3583 34.4241 15.8929 34.9585C16.5537 35.6193 16.9249 36.5155 16.9249 37.45ZM47.6674 33.7822C46.5442 25.9723 42.9219 18.7361 37.3426 13.1568C31.7633 7.57753 24.5271 3.95521 16.7171 2.83203C14.8506 3.82289 13.1284 5.06449 11.5984 6.52228V9.92677C19.2768 9.93302 26.6393 12.9844 32.071 18.4116C37.5027 23.8388 40.5601 31.1987 40.5727 38.8771H43.9774C45.4221 37.3452 46.6623 35.6326 47.6674 33.7822Z" fill="url(#paint0_linear_85_7407)"/>
<path d="M50.4238 23.093C50.424 18.5479 49.0718 14.1055 46.5393 10.3313C44.0069 6.5571 40.4087 3.62175 36.2028 1.89889C33.4103 0.754911 30.4192 0.174077 27.4016 0.189763C26.5922 0.189763 25.8064 0.189763 25.0208 0.308887L24.4971 1.83264C30.0713 3.78612 35.1351 6.96782 39.3139 11.1424C43.4926 15.317 46.6793 20.3776 48.6383 25.95L50.1619 25.4024C50.1619 24.6405 50.3048 23.8786 50.3048 23.0216M27.6651 50.185C20.4621 50.185 13.5525 47.3318 8.44813 42.2497C3.34376 37.1677 0.46034 30.2706 0.428836 23.0677C0.417952 19.4893 1.1173 15.9443 2.48636 12.6381C3.85542 9.33193 5.86696 6.3303 8.40445 3.80713L9.95195 5.25951C7.59375 7.59688 5.72191 10.3782 4.44448 13.443C3.16706 16.5077 2.50936 19.7951 2.50936 23.1154C2.50936 26.4357 3.16706 29.7231 4.44448 32.7879C5.72191 35.8526 7.59375 38.634 9.95195 40.9713C12.2894 43.3295 15.0707 45.2012 18.1355 46.4786C21.2002 47.7559 24.4876 48.4136 27.8079 48.4136C31.1281 48.4136 34.4155 47.7559 37.4803 46.4786C40.545 45.2012 43.3264 43.3295 45.6638 40.9713L47.1162 42.4236C44.5535 44.9464 41.5131 46.9324 38.173 48.2652C34.833 49.5979 31.2606 50.2506 27.6651 50.185Z" fill="url(#paint1_linear_85_7407)"/>
<path d="M27.3584 40.4487C27.604 37.7685 27.1624 35.07 26.0751 32.608C24.9878 30.1461 23.2909 28.0019 21.1445 26.3782C18.845 24.5675 16.0798 23.4449 13.1689 23.1403C12.8049 23.0929 12.4724 22.9094 12.2383 22.6267C12.0042 22.344 11.8858 21.9831 11.907 21.6167C11.9294 21.3351 12.0362 21.0669 12.2133 20.8469C12.3905 20.6269 12.6298 20.4655 12.9001 20.3835C13.0796 20.3292 13.2681 20.3113 13.4546 20.331C18.3683 20.8421 22.8797 23.2778 26.0026 27.1056C29.1255 30.9334 30.6059 35.842 30.1201 40.7581C30.0221 41.8476 29.8147 42.9244 29.5011 43.9723L33.6436 45.1388C34.8696 44.7863 36.0641 44.3324 37.2149 43.7818C37.523 42.1733 37.6745 40.5388 37.6672 38.9012C37.6601 32.6496 35.4169 26.6069 31.3431 21.865C27.2692 17.1232 21.6335 13.995 15.4545 13.0458C14.0772 12.7927 12.6653 12.7927 11.288 13.0458C9.54461 13.5064 7.97806 14.4762 6.78839 15.8313C5.82924 16.9419 5.15943 18.2723 4.83854 19.7042C4.51766 21.1362 4.55564 22.6252 4.94912 24.0389C5.34259 25.4526 6.07936 26.7471 7.09389 27.8074C8.10842 28.8676 9.36926 29.6607 10.7643 30.116C11.5022 30.292 12.2494 30.4272 13.0023 30.5208C14.9469 30.8525 16.7115 31.8614 17.9837 33.369C19.256 34.8765 19.954 36.7856 19.9541 38.7583C19.9541 40.3555 19.4909 41.9185 18.6209 43.258L21.4779 45.0913C22.8781 45.4754 24.3141 45.7147 25.7632 45.8054C26.6173 44.0915 27.1499 42.2356 27.3346 40.3297" fill="url(#paint2_linear_85_7407)"/>
<defs>
<linearGradient id="paint0_linear_85_7407" x1="28.7727" y1="2.83203" x2="28.7727" y2="40.9736" gradientUnits="userSpaceOnUse">
<stop stop-color="#E2E2E2"/>
<stop offset="1" stop-color="#353432"/>
</linearGradient>
<linearGradient id="paint1_linear_85_7407" x1="25.4262" y1="0.189453" x2="25.4262" y2="50.1895" gradientUnits="userSpaceOnUse">
<stop stop-color="#E2E2E2"/>
<stop offset="1" stop-color="#353432"/>
</linearGradient>
<linearGradient id="paint2_linear_85_7407" x1="21.1453" y1="12.856" x2="21.1453" y2="45.8054" gradientUnits="userSpaceOnUse">
<stop stop-color="#E2E2E2"/>
<stop offset="1" stop-color="#353432"/>
</linearGradient>
</defs>
</svg>
