<svg width="265" height="51" viewBox="0 0 265 51" fill="none" xmlns="http://www.w3.org/2000/svg">
<path d="M71.9824 43.8254V6.30664H81.5303V36.3408H98.3448V43.8493L71.9824 43.8254Z" fill="url(#paint0_linear_85_7411)"/>
<path d="M264.887 43.8288L246.255 25.1838L264.887 6.53531H251.254L239.439 18.3612V6.30664H229.897V43.8288H239.439V32.0029L251.254 43.8288H264.887Z" fill="url(#paint1_linear_85_7411)"/>
<path d="M156.051 36.549L153.78 43.8254H143.782L156.733 6.30664H169.456L182.414 43.8288H172.412L170.138 36.5524L167.867 29.5148L163.093 13.8152L158.097 29.5148L156.051 36.549Z" fill="url(#paint2_linear_85_7411)"/>
<path d="M197.847 19.2759V43.8493H188.77V6.30664H200.575L214.661 32.0063V6.30664H223.762V43.8254H211.947L197.847 19.2759Z" fill="url(#paint3_linear_85_7411)"/>
<path d="M136.737 29.274C136.267 28.2114 135.656 27.2172 134.92 26.3184C134.142 25.5341 133.214 24.9153 132.192 24.4993C131.281 24.0419 130.146 23.8167 129.239 23.588C130.179 23.3872 131.094 23.0827 131.967 22.6801C132.809 22.2834 133.578 21.7442 134.238 21.0863C134.953 20.4236 135.432 19.5451 135.602 18.5846C136.055 17.6767 136.055 16.5368 136.055 15.4003C136.017 14.2504 135.865 13.1072 135.602 11.9873C135.148 10.8508 134.695 9.93953 133.556 9.03168C132.545 8.03949 131.289 7.33294 129.917 6.98389C128.066 6.4912 126.155 6.26142 124.24 6.3013H104.462V43.844H125.604C129.467 43.844 132.195 42.9361 134.238 41.1136C136.28 39.2911 137.194 36.7928 137.194 33.6051C137.395 32.1456 137.238 30.6593 136.737 29.274ZM114.245 12.4515H124.243C125.02 12.4721 125.788 12.6256 126.514 12.9054C127.112 13.0697 127.659 13.3832 128.103 13.8167C128.484 14.2149 128.792 14.677 129.014 15.1818C129.242 15.6358 129.242 16.0897 129.242 16.7723C129.25 17.8663 128.843 18.9226 128.103 19.7279C127.421 20.6392 126.057 20.8679 124.243 20.8679H114.245V12.4515ZM129.249 35.8747C128.567 36.7859 127.203 37.0112 125.385 37.0112H114.245V28.5914H125.379C126.156 28.612 126.924 28.7655 127.65 29.0453C128.249 29.2095 128.797 29.523 129.242 29.9566C129.621 30.3559 129.928 30.8178 130.149 31.3218C130.378 31.7757 130.378 32.2296 130.378 32.9122C130.378 34.0487 130.149 35.1853 129.242 35.8678L129.249 35.8747Z" fill="url(#paint4_linear_85_7411)"/>
<path d="M25.4017 50.1895C39.1967 50.1895 50.3797 38.9966 50.3797 25.1895C50.3797 11.3823 39.1967 0.189453 25.4017 0.189453C11.6068 0.189453 0.423828 11.3823 0.423828 25.1895C0.423828 38.9966 11.6068 50.1895 25.4017 50.1895Z" fill="url(#paint5_linear_85_7411)"/>
<path d="M32.0109 28.4736C33.9337 28.4736 35.4924 26.8951 35.4924 24.948C35.4924 23.0008 33.9337 21.4224 32.0109 21.4224C30.088 21.4224 28.5293 23.0008 28.5293 24.948C28.5293 26.8951 30.088 28.4736 32.0109 28.4736Z" fill="#131313"/>
<path d="M41.5276 30.1535L41.4253 29.9931L41.398 29.9487C41.0161 29.348 40.9001 29.2218 40.716 28.9453C38.1688 25.0204 39.6248 22.4982 40.7705 21.2115C40.9104 21.0545 41.0399 20.8702 41.1593 20.7269C41.3339 20.5247 41.4839 20.3024 41.606 20.0648L41.6264 20.0306C41.8567 19.5676 41.9736 19.0564 41.9674 18.5392C41.8913 17.6902 41.5006 16.9004 40.8721 16.3253C40.2436 15.7501 39.4228 15.4312 38.5711 15.4312C37.7195 15.4312 36.8987 15.7501 36.2702 16.3253C35.6416 16.9004 35.2509 17.6902 35.1748 18.5392C35.1736 19.1051 35.3168 19.6619 35.5908 20.1569C35.6317 20.2388 35.8261 20.4982 35.8466 20.5426C35.867 20.5869 35.9386 20.6654 35.9898 20.7235C36.109 20.8695 36.2365 21.0085 36.3717 21.1398C36.7133 21.519 37.0107 21.9358 37.2583 22.3822C37.7474 23.3845 37.9505 24.5025 37.8452 25.613C37.7399 26.7235 37.3303 27.7833 36.6616 28.6757L35.8091 29.8839C35.7821 29.9189 35.7571 29.9554 35.734 29.9931L35.7136 30.0204C35.3672 30.5621 35.1859 31.193 35.1919 31.8361C35.268 32.6851 35.6587 33.4748 36.2872 34.05C36.9157 34.6251 37.7365 34.9441 38.5882 34.9441C39.4398 34.9441 40.2606 34.6251 40.8891 34.05C41.5177 33.4748 41.9084 32.6851 41.9845 31.8361C41.9838 31.2442 41.8248 30.6632 41.5241 30.1535H41.5276Z" fill="#131313"/>
<path d="M28.3411 30.1577L28.2422 29.9973L28.2115 29.9529C27.8296 29.3522 27.7137 29.2259 27.5295 28.9495C24.9823 25.0246 26.4383 22.5024 27.5841 21.2157C27.7239 21.0587 27.8535 20.8744 27.9728 20.7311C28.1475 20.5289 28.2974 20.3066 28.4195 20.0689L28.44 20.0348C28.6687 19.5712 28.7855 19.0604 28.781 18.5433C28.7908 18.0184 28.6795 17.4983 28.4558 17.0235C28.232 16.5486 27.9018 16.1319 27.4909 15.8056C27.0799 15.4793 26.5993 15.2523 26.0865 15.1422C25.5736 15.0322 25.0422 15.042 24.5338 15.171C24.0253 15.3 23.5534 15.5447 23.1549 15.886C22.7563 16.2273 22.4418 16.656 22.2357 17.1388C22.0297 17.6216 21.9377 18.1455 21.967 18.6697C21.9962 19.1939 22.1459 19.7042 22.4044 20.1611C22.4453 20.243 22.6397 20.5024 22.6601 20.5468C22.6806 20.5911 22.7522 20.6696 22.8033 20.7276C22.9225 20.8737 23.05 21.0127 23.1852 21.144C23.5274 21.5235 23.826 21.9402 24.0752 22.3863C24.566 23.3873 24.7715 24.5044 24.6692 25.6147C24.5669 26.7249 24.1608 27.7855 23.4955 28.6799C23.2897 28.9712 23.0617 29.2462 22.8136 29.5024L22.7556 29.5604C22.3765 29.9029 21.9601 30.2017 21.5144 30.4512C17.9612 32.1372 15.073 29.7925 15.073 29.7925L14.7831 29.5536C14.5676 29.3864 14.384 29.1818 14.2409 28.9495C11.6937 25.0246 13.1497 22.5024 14.2955 21.2157C14.4353 21.0587 14.5649 20.8744 14.6842 20.7311C14.8589 20.5289 15.0088 20.3066 15.1309 20.0689L15.1514 20.0348C15.3876 19.5732 15.5103 19.0619 15.5094 18.5433C15.4333 17.6944 15.0426 16.9046 14.4141 16.3295C13.7856 15.7543 12.9647 15.4353 12.1131 15.4353C11.2615 15.4353 10.4407 15.7543 9.81216 16.3295C9.18364 16.9046 8.7929 17.6944 8.7168 18.5433C8.71564 19.1092 8.85883 19.6661 9.13282 20.1611C9.17374 20.243 9.36811 20.5024 9.38856 20.5468C9.40902 20.5911 9.48063 20.6696 9.53178 20.7276C9.65096 20.8737 9.77847 21.0127 9.9137 21.144C10.2553 21.5232 10.5527 21.94 10.8003 22.3863C11.2894 23.3887 11.4925 24.5067 11.3872 25.6172C11.2819 26.7277 10.8723 27.7875 10.2035 28.6799L9.77048 29.2942C9.43738 29.6129 9.17227 29.9959 8.99117 30.42C8.81007 30.8441 8.71674 31.3005 8.7168 31.7618C8.7168 31.7618 8.7168 31.7925 8.7168 31.8096C8.7168 31.8266 8.7168 31.83 8.7168 31.8403C8.72888 32.5095 8.93732 33.1605 9.31619 33.7121C9.69506 34.2637 10.2276 34.6917 10.8476 34.9426C11.4677 35.1936 12.1477 35.2566 12.8032 35.1237C13.4587 34.9908 14.0606 34.6679 14.5342 34.1952C14.7013 34.0792 14.8104 33.9973 14.9638 33.8983C18.8853 31.3488 21.4052 32.8061 22.6942 33.9529C22.7965 34.045 22.9056 34.1338 23.0147 34.2157C23.4914 34.6834 24.0946 35.0008 24.7498 35.1286C25.405 35.2564 26.0832 35.1889 26.7004 34.9346C27.3176 34.6802 27.8466 34.2501 28.2219 33.6977C28.5972 33.1452 28.8023 32.4946 28.8117 31.8266C28.8109 31.2347 28.652 30.6537 28.3513 30.144L28.3411 30.1577Z" fill="#131313"/>
<defs>
<linearGradient id="paint0_linear_85_7411" x1="85.1636" y1="6.30664" x2="85.1636" y2="43.8493" gradientUnits="userSpaceOnUse">
<stop stop-color="white"/>
<stop offset="1" stop-color="#5E5E5E"/>
</linearGradient>
<linearGradient id="paint1_linear_85_7411" x1="247.392" y1="6.30664" x2="247.392" y2="43.8288" gradientUnits="userSpaceOnUse">
<stop stop-color="white"/>
<stop offset="1" stop-color="#5E5E5E"/>
</linearGradient>
<linearGradient id="paint2_linear_85_7411" x1="163.098" y1="6.30664" x2="163.098" y2="43.8288" gradientUnits="userSpaceOnUse">
<stop stop-color="white"/>
<stop offset="1" stop-color="#5E5E5E"/>
</linearGradient>
<linearGradient id="paint3_linear_85_7411" x1="206.266" y1="6.30664" x2="206.266" y2="43.8493" gradientUnits="userSpaceOnUse">
<stop stop-color="white"/>
<stop offset="1" stop-color="#5E5E5E"/>
</linearGradient>
<linearGradient id="paint4_linear_85_7411" x1="120.87" y1="6.29687" x2="120.87" y2="43.844" gradientUnits="userSpaceOnUse">
<stop stop-color="white"/>
<stop offset="1" stop-color="#5E5E5E"/>
</linearGradient>
<linearGradient id="paint5_linear_85_7411" x1="25.4017" y1="0.189453" x2="25.4017" y2="50.1895" gradientUnits="userSpaceOnUse">
<stop stop-color="white"/>
<stop offset="1" stop-color="#323232"/>
</linearGradient>
</defs>
</svg>
