<svg width="43" height="51" viewBox="0 0 43 51" fill="none" xmlns="http://www.w3.org/2000/svg">
<path d="M20.5889 9.47705H21.9686V12.5364H20.5889V9.47705Z" fill="url(#paint0_linear_85_7384)"/>
<path d="M34.7541 0.189453H7.78458C5.85294 0.189453 4.30762 1.75599 4.30762 3.67269V31.6492C4.30762 33.5843 5.87133 35.1508 7.78458 35.1508H34.7541C36.6857 35.1508 38.231 33.5843 38.231 31.6492V3.69112C38.2494 1.75599 36.6857 0.189453 34.7541 0.189453ZM32.7304 9.4228H30.5412V9.40437H23.9V12.4822H30.0261C30.8172 12.4822 31.5531 12.8323 32.2337 13.5142C32.896 14.1777 33.2087 15.0623 33.2087 16.1865L33.2271 25.4568C33.2271 25.4568 33.2455 27.3366 32.013 28.3502C30.946 29.2164 29.3822 29.069 29.3822 29.069H26.8619C26.5676 29.069 25.9789 28.6267 25.9789 27.8711C25.9789 26.5994 27.0091 26.4704 27.0091 26.4704H29.1799C30.7252 26.4704 30.67 25.0513 30.67 25.0513V16.721C30.67 15.6152 30.0997 15.0623 28.9407 15.0623H23.9V29.9536C23.9 29.9536 23.8265 30.8198 22.925 30.8198H21.95V15.0623H20.5886V30.8198H19.6136C18.7122 30.8198 18.6386 29.9536 18.6386 29.9536V15.0623H13.5979C12.4573 15.0623 11.8686 15.6152 11.8686 16.721V25.0513C11.8686 25.0513 11.8134 26.4704 13.3588 26.4704H15.5296C15.5296 26.4704 16.5598 26.5994 16.5598 27.8711C16.5598 28.6267 15.9711 29.069 15.6767 29.069H13.1564C13.1564 29.069 11.5743 29.2164 10.5257 28.3502C9.29311 27.3366 9.31151 25.4568 9.31151 25.4568L9.3299 16.1865C9.3299 15.0623 9.66104 14.1777 10.3049 13.5142C10.9856 12.8323 11.7215 12.4822 12.5125 12.4822H18.6386V9.4228H11.9974V9.44123H10.0842C10.0842 9.44123 9.38509 9.18321 9.38509 8.11428C9.38509 7.04535 10.0842 6.86105 10.0842 6.86105H32.7304C32.7304 6.86105 33.4295 7.04535 33.4295 8.11428C33.4295 9.18321 32.7304 9.4228 32.7304 9.4228Z" fill="url(#paint1_linear_85_7384)"/>
<path d="M1.6586 41.3983L4.32611 48.5859L7.03042 41.3983H8.57574L8.55734 49.9682H7.49034L7.50873 42.8358H7.47194L4.82282 49.9682H3.8478L1.21708 42.8358H1.18029V49.9497H0.113281V41.3983H1.6586ZM15.7136 49.9497C15.5481 50.0603 15.2905 50.0972 14.9962 50.0972C14.7386 50.0972 14.5179 50.0235 14.3707 49.876C14.2235 49.7286 14.1315 49.489 14.1315 49.1573C13.8556 49.489 13.5244 49.7286 13.1565 49.876C12.7886 50.0235 12.3838 50.0972 11.9607 50.0972C11.6848 50.0972 11.4272 50.0603 11.1697 50.005C10.9121 49.9497 10.7097 49.8392 10.5258 49.7101C10.3418 49.5811 10.1946 49.3968 10.0843 49.1757C9.97388 48.9545 9.91869 48.6965 9.91869 48.3832C9.91869 48.033 9.97388 47.7382 10.1027 47.517C10.213 47.2958 10.3786 47.1115 10.581 46.9641C10.7833 46.8167 11.0041 46.7245 11.2433 46.6508C11.5008 46.5771 11.74 46.5218 12.0159 46.4665C12.2919 46.4112 12.5494 46.3743 12.807 46.3375C13.0645 46.3191 13.2853 46.2638 13.4692 46.2269C13.6532 46.1716 13.8188 46.0979 13.9292 46.0058C14.0395 45.9136 14.0947 45.7662 14.0947 45.5634C14.0947 45.3423 14.0579 45.158 13.966 45.029C13.8924 44.9 13.782 44.7894 13.6532 44.7157C13.5244 44.6419 13.3773 44.5867 13.2117 44.5682C13.0461 44.5498 12.8806 44.5314 12.7334 44.5314C12.3103 44.5314 11.9423 44.6051 11.6664 44.7709C11.372 44.9368 11.2249 45.2501 11.2065 45.6924H10.1946C10.213 45.3054 10.2866 44.9921 10.4338 44.7157C10.581 44.4576 10.7649 44.2365 11.0041 44.0706C11.2433 43.9047 11.5192 43.7942 11.8135 43.7204C12.1263 43.6467 12.439 43.6099 12.7886 43.6099C13.0645 43.6099 13.3405 43.6283 13.6164 43.6652C13.8924 43.702 14.1315 43.7942 14.3523 43.9047C14.573 44.0338 14.757 44.1996 14.8858 44.4208C15.0146 44.6419 15.0882 44.9368 15.0882 45.287V48.4753C15.0882 48.7149 15.1065 48.8808 15.1249 49.0098C15.1433 49.1204 15.2537 49.1757 15.4009 49.1757C15.4929 49.1757 15.5849 49.1573 15.7136 49.1204V49.9497ZM14.0763 46.7798C13.9476 46.872 13.782 46.9457 13.5796 46.9825C13.3773 47.0194 13.1565 47.0562 12.9357 47.0931C12.715 47.1115 12.4758 47.1484 12.2551 47.1853C12.0159 47.2221 11.8135 47.2774 11.6296 47.3511C11.4456 47.4248 11.2984 47.5354 11.1881 47.6829C11.0777 47.8303 11.0225 48.033 11.0225 48.291C11.0225 48.4569 11.0593 48.6044 11.1145 48.7149C11.1881 48.8255 11.2616 48.9177 11.372 48.9914C11.4824 49.0651 11.6112 49.1204 11.74 49.1388C11.8871 49.1757 12.0343 49.1941 12.1999 49.1941C12.531 49.1941 12.8254 49.1573 13.0645 49.0651C13.3037 48.973 13.506 48.8624 13.6532 48.7149C13.8004 48.5675 13.9108 48.4201 13.9844 48.2542C14.0579 48.0883 14.0947 47.9409 14.0947 47.7934L14.0763 46.7798ZM17.7373 43.7757V49.9682H16.7255V43.7757H17.7373ZM16.7255 42.6699V41.4167H17.7373V42.6699H16.7255ZM24.5992 42.6331C24.1761 42.3198 23.661 42.1723 23.0539 42.1723C22.5388 42.1723 22.1157 42.2645 21.7477 42.4672C21.3798 42.6515 21.0855 42.9095 20.8463 43.2413C20.6071 43.573 20.4416 43.9416 20.3312 44.3471C20.2208 44.771 20.1656 45.1948 20.1656 45.6372C20.1656 46.1163 20.2208 46.5955 20.3312 47.0194C20.4416 47.4617 20.6071 47.8303 20.8463 48.162C21.0855 48.4938 21.3798 48.7518 21.7477 48.9361C22.1157 49.1204 22.5388 49.231 23.0539 49.231C23.4218 49.231 23.753 49.1757 24.0473 49.0467C24.3417 48.9177 24.5808 48.7518 24.8016 48.5306C25.0039 48.3095 25.1695 48.0515 25.2983 47.7382C25.4087 47.4433 25.4823 47.1115 25.5191 46.7614H26.6412C26.5309 47.8487 26.1629 48.6781 25.5374 49.2863C24.912 49.876 24.0473 50.1893 22.9619 50.1893C22.2996 50.1893 21.7293 50.0787 21.2326 49.8392C20.7359 49.618 20.3312 49.3047 20.0185 48.8992C19.6873 48.4938 19.4482 48.033 19.2826 47.4801C19.117 46.9272 19.0434 46.3559 19.0434 45.7293C19.0434 45.1027 19.1354 44.5129 19.301 43.9785C19.4849 43.4256 19.7241 42.9464 20.0736 42.5409C20.4048 42.1355 20.8279 41.8037 21.343 41.5826C21.8397 41.343 22.4284 41.2324 23.0723 41.2324C23.5138 41.2324 23.9369 41.2877 24.3233 41.4167C24.728 41.5457 25.0775 41.7116 25.3719 41.9512C25.6846 42.1908 25.9422 42.4672 26.1445 42.8174C26.3469 43.1676 26.4757 43.573 26.5493 44.0153H25.4271C25.3167 43.4071 25.0223 42.9464 24.5992 42.6331ZM27.745 45.6187C27.8738 45.2317 28.0578 44.8815 28.3153 44.5867C28.5729 44.2918 28.8856 44.0706 29.2536 43.9047C29.6215 43.7389 30.063 43.6467 30.5413 43.6467C31.038 43.6467 31.4612 43.7389 31.8291 43.9047C32.197 44.0706 32.5098 44.3102 32.7673 44.5867C33.0249 44.8815 33.2088 45.2317 33.3376 45.6187C33.4664 46.0242 33.5216 46.4481 33.5216 46.8904C33.5216 47.3511 33.4664 47.775 33.3376 48.162C33.2088 48.5491 33.0249 48.8992 32.7673 49.1941C32.5098 49.489 32.197 49.7101 31.8291 49.876C31.4612 50.0419 31.038 50.1156 30.5413 50.1156C30.063 50.1156 29.6215 50.0235 29.2536 49.876C28.8856 49.7101 28.5729 49.489 28.3153 49.1941C28.0578 48.8992 27.8738 48.5675 27.745 48.162C27.6163 47.775 27.5611 47.3511 27.5611 46.8904C27.5427 46.4481 27.6163 46.0242 27.745 45.6187ZM28.7569 47.904C28.8488 48.1989 28.996 48.4385 29.1616 48.6412C29.3272 48.8439 29.5479 48.9914 29.7687 49.0835C30.0078 49.1941 30.247 49.2494 30.5045 49.2494C30.7621 49.2494 31.0196 49.1941 31.2404 49.102C31.4796 48.9914 31.6819 48.8439 31.8475 48.6596C32.0315 48.4569 32.1602 48.2173 32.2522 47.9225C32.3442 47.6276 32.3994 47.2958 32.3994 46.9272C32.3994 46.5586 32.3442 46.2269 32.2522 45.932C32.1602 45.6372 32.0131 45.3976 31.8475 45.1948C31.6819 44.9921 31.4612 44.8447 31.2404 44.7341C31.0012 44.6235 30.7621 44.5682 30.5045 44.5682C30.247 44.5682 29.9894 44.6235 29.7687 44.7157C29.5295 44.8262 29.3272 44.9737 29.1616 45.1764C28.996 45.3791 28.8488 45.6187 28.7569 45.9136C28.6649 46.2085 28.6097 46.5402 28.6097 46.9088C28.6097 47.2774 28.6649 47.6091 28.7569 47.904ZM35.7844 43.8126L35.766 50.005H34.7542V43.8126H35.7844ZM34.7726 42.6884V41.4352H35.7844V42.6884H34.7726ZM38.3047 43.8126V44.7894H38.3231C38.7462 44.0338 39.4085 43.6652 40.3284 43.6652C40.7331 43.6652 41.0642 43.7205 41.3402 43.831C41.6161 43.9416 41.8185 44.1075 42.0024 44.2918C42.168 44.4945 42.2784 44.7341 42.352 45.0105C42.4256 45.287 42.444 45.6003 42.444 45.932V50.005H41.4321V45.803C41.4321 45.416 41.3218 45.1211 41.101 44.9C40.8802 44.6788 40.5675 44.5682 40.1812 44.5682C39.8684 44.5682 39.6109 44.6235 39.3717 44.7157C39.151 44.8078 38.9486 44.9552 38.8014 45.1211C38.6543 45.3054 38.5439 45.5081 38.4703 45.7293C38.3967 45.9689 38.3599 46.2269 38.3599 46.5034V50.005H37.3481V43.8126H38.3047Z" fill="url(#paint2_linear_85_7384)"/>
<defs>
<linearGradient id="paint0_linear_85_7384" x1="21.2787" y1="9.47705" x2="21.2787" y2="12.5364" gradientUnits="userSpaceOnUse">
<stop stop-color="white"/>
<stop offset="1" stop-color="#585858"/>
</linearGradient>
<linearGradient id="paint1_linear_85_7384" x1="21.2694" y1="0.189453" x2="21.2694" y2="35.1508" gradientUnits="userSpaceOnUse">
<stop stop-color="white"/>
<stop offset="1" stop-color="#585858"/>
</linearGradient>
<linearGradient id="paint2_linear_85_7384" x1="21.2786" y1="41.2324" x2="21.2786" y2="50.1893" gradientUnits="userSpaceOnUse">
<stop stop-color="white"/>
<stop offset="1" stop-color="#2F2F2F"/>
</linearGradient>
</defs>
</svg>
