<svg width="441" height="262" viewBox="0 0 441 262" fill="none" xmlns="http://www.w3.org/2000/svg">
<mask id="mask0_124_963" style="mask-type:alpha" maskUnits="userSpaceOnUse" x="0" y="0" width="441" height="342">
<rect width="440.384" height="342" fill="url(#paint0_radial_124_963)"/>
</mask>
<g mask="url(#mask0_124_963)">
<path d="M21.6482 225.876C10.0409 224.067 -6.62872 228.281 -8.19922 244.788H528.225V152.598C514.577 145.346 503.281 152.598 482.102 173.928C460.922 195.259 454.333 163.732 435.036 171.015C415.74 178.297 414.328 246.556 406.327 221.118C398.326 195.679 395.031 178.721 376.676 173.928C358.32 169.136 354.555 146.108 338.553 129.149C322.551 112.19 310.314 121.974 294.311 146.108C278.309 170.242 276.918 149.996 259.954 152.598C237.69 156.012 242.779 220.882 218.606 198.203C194.434 175.524 185.846 132.6 169.386 159.849C166.762 163.732 165.656 171.015 153.877 173.928C142.098 176.842 139.939 219.565 127.375 225.876C114.811 232.188 117.363 188.493 108.333 163.732C102.78 148.508 91.2535 154.022 83.9899 171.015C76.7264 188.007 76.3685 204.249 64.555 198.203C57.4968 194.59 45.3203 198.783 42.3756 209.949C39.4309 221.116 40.9579 228.886 21.6482 225.876Z" fill="url(#paint1_linear_124_963)"/>
<path d="M-8.19922 244.788C-6.62872 228.281 10.0409 224.067 21.6482 225.876C40.9579 228.886 39.4309 221.116 42.3756 209.949C45.3203 198.783 57.4968 194.59 64.555 198.203C76.3685 204.249 76.7264 188.007 83.9899 171.015C91.2535 154.022 102.78 148.508 108.333 163.732C117.363 188.493 114.811 232.188 127.375 225.876C139.939 219.565 142.098 176.842 153.877 173.928C165.656 171.015 166.762 163.732 169.386 159.849C185.846 132.6 194.434 175.524 218.606 198.203C242.779 220.881 237.69 156.012 259.954 152.598C276.918 149.996 278.309 170.242 294.311 146.108C310.314 121.974 322.551 112.19 338.553 129.149C354.555 146.108 358.32 169.136 376.676 173.928C395.031 178.721 398.326 195.679 406.327 221.118C414.328 246.556 415.74 178.297 435.036 171.015C454.333 163.732 460.922 195.259 482.102 173.928C503.281 152.598 514.577 145.346 528.225 152.598" stroke="url(#paint2_linear_124_963)" stroke-width="4.68493" stroke-linecap="round"/>
<path d="M248.301 263.527L248.301 160.459" stroke="#FBA643" stroke-width="2.34247" stroke-linecap="round" stroke-dasharray="4.68 9.37"/>
<g filter="url(#filter0_d_124_963)">
<path d="M261.185 159.873C261.185 164.078 255.679 167.486 248.887 167.486C242.095 167.486 236.589 164.078 236.589 159.873C236.589 155.669 242.095 152.26 248.887 152.26C255.679 152.26 261.185 155.669 261.185 159.873Z" fill="#FFBC8C"/>
<path d="M261.185 159.873C261.185 164.078 255.679 167.486 248.887 167.486C242.095 167.486 236.589 164.078 236.589 159.873C236.589 155.669 242.095 152.26 248.887 152.26C255.679 152.26 261.185 155.669 261.185 159.873Z" stroke="white" stroke-width="3.5137" stroke-linecap="round"/>
</g>
<path d="M188.03 99.1842L174.734 113.021V169.727C174.734 170.385 175.267 170.918 175.925 170.918H192.069C192.726 170.918 193.26 170.385 193.26 169.727V100.555L189.536 99.1842H188.03Z" fill="url(#paint3_radial_124_963)"/>
<path d="M220.915 110.036H204.771C204.114 110.036 203.58 110.57 203.58 111.227V136.368C203.58 137.025 204.114 137.559 204.771 137.559H220.915C221.573 137.559 222.106 137.025 222.106 136.368V111.227C222.106 110.57 221.573 110.036 220.915 110.036Z" fill="url(#paint4_radial_124_963)"/>
<path d="M249.17 84.9397C248.554 85.262 247.859 85.4327 247.162 85.4327C246.149 85.4327 245.16 85.0754 244.383 84.4244L241.45 81.9727L230.839 93.5483V136.369C230.839 137.026 231.373 137.559 232.03 137.559H248.174C248.832 137.559 249.365 137.026 249.365 136.369V84.8182C249.298 84.8579 249.239 84.9039 249.17 84.9397Z" fill="url(#paint5_radial_124_963)"/>
<path d="M214.295 104.474C215.203 104.806 216.22 104.56 216.874 103.848L241.358 77.1378L247.088 81.9268C247.368 82.1602 247.76 82.2039 248.084 82.0348C248.407 81.8649 248.596 81.5203 248.564 81.1559L247.322 67.2707C247.278 66.7745 246.841 66.4085 246.345 66.4538L232.459 67.6947C232.095 67.7273 231.787 67.9758 231.679 68.3227C231.642 68.4386 231.63 68.5561 231.64 68.672C231.661 68.9055 231.773 69.1262 231.96 69.2826L237.7 74.0803L214.44 99.4522L187.887 89.682C187 89.3565 186.003 89.5859 185.348 90.2655L169.072 107.203C168.161 108.151 168.191 109.66 169.139 110.57C169.602 111.016 170.197 111.235 170.79 111.235C171.415 111.235 172.039 110.99 172.508 110.504L187.705 94.6886L214.295 104.474Z" fill="url(#paint6_radial_124_963)"/>
<path d="M212.83 37.6802C261.329 34.6958 302.165 65.2061 301.242 114.917L301.278 119.416L322.349 156.624C323.483 158.629 323.583 161.056 322.618 163.154C321.661 165.252 319.75 166.759 317.49 167.2L304.469 170.794L300.381 210.254C300.269 214.054 298.578 217.629 295.713 220.135C292.845 222.625 289.056 223.811 285.279 223.388L274.879 224.219C272.852 223.991 270.817 224.637 269.299 225.999C267.777 227.364 266.909 229.312 266.909 231.354V262.221H178.935C178.935 262.221 178.935 247.324 178.935 241.326C178.935 235.327 176.867 221.613 172.933 215.337C158.672 192.535 135.455 180.403 131.54 133.632C127.624 86.8677 155.535 41.2107 212.83 37.6802ZM152.187 124.648C152.187 124.648 152.142 124.161 153.44 131.87C157.588 148.987 169.013 155.435 180.468 148.965C184.447 146.714 188.161 135.804 198.001 127.55C202.207 123.952 211.439 123.903 225.22 123.903C228.953 123.903 232.397 123.874 235.61 123.813C236.884 123.813 238.164 123.813 242.831 123.616C272.036 122.479 276.329 117.785 278.626 105.982C278.719 105.279 278.786 104.584 278.846 103.891C278.865 96.6734 278.626 101.127 278.865 96.6734C277.983 86.6281 273.237 78.4154 265.861 70.9054C260.225 65.157 253.273 60.703 245.385 57.6773C236.445 54.9663 238.164 55.3882 238.164 55.3882C232.177 53.84 225.785 53.021 219.102 53.021C217.404 53.021 215.684 53.0732 213.963 53.1816C198.817 54.1131 185.704 58.8625 175.435 67.0225C170.164 72.1563 171.481 70.1994 168.213 73.8341C168.022 74.047 167.824 74.2528 167.633 74.4697C157.289 86.4411 151.713 102.96 151.859 120.481C151.929 121.93 152.187 124.648 152.187 124.648Z" fill="url(#paint7_radial_124_963)"/>
</g>
<defs>
<filter id="filter0_d_124_963" x="232.49" y="150.503" width="37.4792" height="35.137" filterUnits="userSpaceOnUse" color-interpolation-filters="sRGB">
<feFlood flood-opacity="0" result="BackgroundImageFix"/>
<feColorMatrix in="SourceAlpha" type="matrix" values="0 0 0 0 0 0 0 0 0 0 0 0 0 0 0 0 0 0 127 0" result="hardAlpha"/>
<feOffset dx="2.34247" dy="11.7123"/>
<feGaussianBlur stdDeviation="2.34247"/>
<feComposite in2="hardAlpha" operator="out"/>
<feColorMatrix type="matrix" values="0 0 0 0 0.333333 0 0 0 0 0.588235 0 0 0 0 0.972549 0 0 0 0.16 0"/>
<feBlend mode="normal" in2="BackgroundImageFix" result="effect1_dropShadow_124_963"/>
<feBlend mode="normal" in="SourceGraphic" in2="effect1_dropShadow_124_963" result="shape"/>
</filter>
<radialGradient id="paint0_radial_124_963" cx="0" cy="0" r="1" gradientUnits="userSpaceOnUse" gradientTransform="translate(220 37.5) rotate(90) scale(327 327)">
<stop offset="0.312922"/>
<stop offset="0.778507" stop-opacity="0"/>
</radialGradient>
<linearGradient id="paint1_linear_124_963" x1="304.572" y1="120.637" x2="300.556" y2="250.867" gradientUnits="userSpaceOnUse">
<stop stop-color="#98FFD4" stop-opacity="0.42"/>
<stop offset="1" stop-color="#EDDC46" stop-opacity="0"/>
</linearGradient>
<linearGradient id="paint2_linear_124_963" x1="260.013" y1="128.396" x2="281.611" y2="298.103" gradientUnits="userSpaceOnUse">
<stop stop-color="#1CAC70"/>
<stop offset="1" stop-color="#EDDC46"/>
</linearGradient>
<radialGradient id="paint3_radial_124_963" cx="0" cy="0" r="1" gradientUnits="userSpaceOnUse" gradientTransform="translate(141.275 149.85) scale(182.002 212.928)">
<stop stop-color="#ECB45D"/>
<stop offset="0.581399" stop-color="#FFD38D"/>
<stop offset="1" stop-color="#FFB644"/>
</radialGradient>
<radialGradient id="paint4_radial_124_963" cx="0" cy="0" r="1" gradientUnits="userSpaceOnUse" gradientTransform="translate(141.275 149.85) scale(182.002 212.928)">
<stop stop-color="#ECB45D"/>
<stop offset="0.581399" stop-color="#FFD38D"/>
<stop offset="1" stop-color="#FFB644"/>
</radialGradient>
<radialGradient id="paint5_radial_124_963" cx="0" cy="0" r="1" gradientUnits="userSpaceOnUse" gradientTransform="translate(141.275 149.85) scale(182.002 212.928)">
<stop stop-color="#ECB45D"/>
<stop offset="0.581399" stop-color="#FFD38D"/>
<stop offset="1" stop-color="#FFB644"/>
</radialGradient>
<radialGradient id="paint6_radial_124_963" cx="0" cy="0" r="1" gradientUnits="userSpaceOnUse" gradientTransform="translate(141.275 149.85) scale(182.002 212.928)">
<stop stop-color="#ECB45D"/>
<stop offset="0.581399" stop-color="#FFD38D"/>
<stop offset="1" stop-color="#FFB644"/>
</radialGradient>
<radialGradient id="paint7_radial_124_963" cx="0" cy="0" r="1" gradientUnits="userSpaceOnUse" gradientTransform="translate(141.275 149.85) scale(182.002 212.928)">
<stop stop-color="#ECB45D"/>
<stop offset="0.581399" stop-color="#FFD38D"/>
<stop offset="1" stop-color="#FFB644"/>
</radialGradient>
</defs>
</svg>
