<svg width="11" height="12" viewBox="0 0 11 12" fill="none" xmlns="http://www.w3.org/2000/svg">
<path d="M6.10556 8.62421C6.10556 8.74399 6.07004 8.86107 6.0035 8.96066C5.93695 9.06025 5.84237 9.13787 5.73172 9.18371C5.62106 9.22954 5.49929 9.24154 5.38182 9.21817C5.26434 9.1948 5.15644 9.13713 5.07174 9.05243C4.98705 8.96774 4.92937 8.85983 4.906 8.74236C4.88264 8.62488 4.89463 8.50312 4.94047 8.39246C4.9863 8.2818 5.06392 8.18722 5.16351 8.12068C5.2631 8.05413 5.38019 8.01862 5.49996 8.01862C5.66058 8.01862 5.81461 8.08242 5.92818 8.19599C6.04176 8.30956 6.10556 8.4636 6.10556 8.62421ZM5.49996 3.17385C4.38668 3.17385 3.48131 3.98888 3.48131 4.99064V5.1925C3.48131 5.29958 3.52385 5.40227 3.59956 5.47798C3.67528 5.5537 3.77797 5.59623 3.88504 5.59623C3.99212 5.59623 4.09481 5.5537 4.17052 5.47798C4.24624 5.40227 4.28877 5.29958 4.28877 5.1925V4.99064C4.28877 4.43551 4.83229 3.98131 5.49996 3.98131C6.16763 3.98131 6.71116 4.43551 6.71116 4.99064C6.71116 5.54577 6.16763 5.99996 5.49996 5.99996C5.39289 5.99996 5.2902 6.0425 5.21448 6.11821C5.13877 6.19393 5.09623 6.29662 5.09623 6.40369V6.80742C5.09623 6.9145 5.13877 7.01719 5.21448 7.0929C5.2902 7.16862 5.39289 7.21115 5.49996 7.21115C5.60704 7.21115 5.70973 7.16862 5.78545 7.0929C5.86116 7.01719 5.9037 6.9145 5.9037 6.80742V6.77109C6.8242 6.60203 7.51862 5.86774 7.51862 4.99064C7.51862 3.98888 6.61325 3.17385 5.49996 3.17385ZM10.7485 5.99996C10.7485 7.03802 10.4406 8.05276 9.86393 8.91587C9.28722 9.77898 8.46751 10.4517 7.50848 10.8489C6.54944 11.2462 5.49414 11.3501 4.47603 11.1476C3.45792 10.9451 2.52273 10.4452 1.78872 9.71121C1.0547 8.97719 0.55483 8.042 0.352316 7.02389C0.149801 6.00578 0.253739 4.95049 0.650985 3.99145C1.04823 3.03241 1.72094 2.21271 2.58406 1.636C3.44717 1.05928 4.46191 0.751465 5.49996 0.751465C6.8915 0.752934 8.22562 1.30637 9.20959 2.29034C10.1936 3.2743 10.747 4.60843 10.7485 5.99996ZM9.941 5.99996C9.941 5.12161 9.68054 4.26298 9.19255 3.53265C8.70456 2.80233 8.01097 2.23311 7.19948 1.89698C6.38798 1.56085 5.49504 1.4729 4.63356 1.64426C3.77208 1.81562 2.98077 2.23859 2.35968 2.85968C1.73859 3.48077 1.31562 4.27208 1.14426 5.13356C0.972903 5.99504 1.06085 6.88798 1.39698 7.69947C1.73311 8.51097 2.30233 9.20456 3.03266 9.69255C3.76298 10.1805 4.62161 10.441 5.49996 10.441C6.67739 10.4397 7.80621 9.97134 8.63878 9.13877C9.47134 8.30621 9.93966 7.17739 9.941 5.99996Z" fill="url(#paint0_linear_429_3071)"/>
<path d="M6.10556 8.62421C6.10556 8.74399 6.07004 8.86107 6.0035 8.96066C5.93695 9.06025 5.84237 9.13787 5.73172 9.18371C5.62106 9.22954 5.49929 9.24154 5.38182 9.21817C5.26434 9.1948 5.15644 9.13713 5.07174 9.05243C4.98705 8.96774 4.92937 8.85983 4.906 8.74236C4.88264 8.62488 4.89463 8.50312 4.94047 8.39246C4.9863 8.2818 5.06392 8.18722 5.16351 8.12068C5.2631 8.05413 5.38019 8.01862 5.49996 8.01862C5.66058 8.01862 5.81461 8.08242 5.92818 8.19599C6.04176 8.30956 6.10556 8.4636 6.10556 8.62421ZM5.49996 3.17385C4.38668 3.17385 3.48131 3.98888 3.48131 4.99064V5.1925C3.48131 5.29958 3.52385 5.40227 3.59956 5.47798C3.67528 5.5537 3.77797 5.59623 3.88504 5.59623C3.99212 5.59623 4.09481 5.5537 4.17052 5.47798C4.24624 5.40227 4.28877 5.29958 4.28877 5.1925V4.99064C4.28877 4.43551 4.83229 3.98131 5.49996 3.98131C6.16763 3.98131 6.71116 4.43551 6.71116 4.99064C6.71116 5.54577 6.16763 5.99996 5.49996 5.99996C5.39289 5.99996 5.2902 6.0425 5.21448 6.11821C5.13877 6.19393 5.09623 6.29662 5.09623 6.40369V6.80742C5.09623 6.9145 5.13877 7.01719 5.21448 7.0929C5.2902 7.16862 5.39289 7.21115 5.49996 7.21115C5.60704 7.21115 5.70973 7.16862 5.78545 7.0929C5.86116 7.01719 5.9037 6.9145 5.9037 6.80742V6.77109C6.8242 6.60203 7.51862 5.86774 7.51862 4.99064C7.51862 3.98888 6.61325 3.17385 5.49996 3.17385ZM10.7485 5.99996C10.7485 7.03802 10.4406 8.05276 9.86393 8.91587C9.28722 9.77898 8.46751 10.4517 7.50848 10.8489C6.54944 11.2462 5.49414 11.3501 4.47603 11.1476C3.45792 10.9451 2.52273 10.4452 1.78872 9.71121C1.0547 8.97719 0.55483 8.042 0.352316 7.02389C0.149801 6.00578 0.253739 4.95049 0.650985 3.99145C1.04823 3.03241 1.72094 2.21271 2.58406 1.636C3.44717 1.05928 4.46191 0.751465 5.49996 0.751465C6.8915 0.752934 8.22562 1.30637 9.20959 2.29034C10.1936 3.2743 10.747 4.60843 10.7485 5.99996ZM9.941 5.99996C9.941 5.12161 9.68054 4.26298 9.19255 3.53265C8.70456 2.80233 8.01097 2.23311 7.19948 1.89698C6.38798 1.56085 5.49504 1.4729 4.63356 1.64426C3.77208 1.81562 2.98077 2.23859 2.35968 2.85968C1.73859 3.48077 1.31562 4.27208 1.14426 5.13356C0.972903 5.99504 1.06085 6.88798 1.39698 7.69947C1.73311 8.51097 2.30233 9.20456 3.03266 9.69255C3.76298 10.1805 4.62161 10.441 5.49996 10.441C6.67739 10.4397 7.80621 9.97134 8.63878 9.13877C9.47134 8.30621 9.93966 7.17739 9.941 5.99996Z" fill="white" fill-opacity="0.4"/>
<defs>
<linearGradient id="paint0_linear_429_3071" x1="0.251261" y1="5.99584" x2="10.7487" y2="5.99625" gradientUnits="userSpaceOnUse">
<stop offset="0.0001" stop-color="#F29B1E"/>
<stop offset="0.5001" stop-color="#D18D2C"/>
<stop offset="1" stop-color="#DFAB60"/>
</linearGradient>
</defs>
</svg>
