<svg width="18" height="14" viewBox="0 0 18 14" fill="none" xmlns="http://www.w3.org/2000/svg">
<path d="M15.2056 1.25014C14.0608 0.72485 12.8331 0.337828 11.5495 0.116164C11.5261 0.111887 11.5028 0.122578 11.4907 0.143961C11.3328 0.424783 11.158 0.791135 11.0355 1.07908C9.65488 0.872388 8.28136 0.872388 6.92908 1.07908C6.8066 0.78472 6.62535 0.424783 6.46676 0.143961C6.45472 0.123291 6.43136 0.1126 6.40799 0.116164C5.1251 0.337115 3.89743 0.724137 2.75188 1.25014C2.74197 1.25442 2.73348 1.26155 2.72781 1.27081C0.3992 4.74973 -0.238708 8.14312 0.0742281 11.4945C0.0756441 11.5108 0.0848481 11.5265 0.0975921 11.5365C1.63395 12.6648 3.12217 13.3497 4.58277 13.8038C4.60613 13.8109 4.63091 13.8023 4.64578 13.7831C4.99129 13.3112 5.29927 12.8138 5.56335 12.2906C5.57893 12.2599 5.56406 12.2236 5.5322 12.2115C5.04368 12.0262 4.57852 11.8002 4.13107 11.5436C4.09567 11.523 4.09283 11.4724 4.1254 11.4481C4.21957 11.3776 4.31373 11.3042 4.40365 11.23C4.41993 11.2165 4.44259 11.2136 4.4617 11.2222C7.40132 12.5643 10.5838 12.5643 13.4887 11.2222C13.5078 11.2129 13.5305 11.2158 13.5475 11.2293C13.6374 11.3034 13.7315 11.3776 13.8264 11.4481C13.859 11.4724 13.8569 11.523 13.8215 11.5436C13.374 11.8052 12.9088 12.0262 12.4196 12.2108C12.3878 12.2229 12.3736 12.2599 12.3892 12.2906C12.6589 12.813 12.9669 13.3105 13.306 13.7824C13.3202 13.8023 13.3457 13.8109 13.369 13.8038C14.8367 13.3497 16.3249 12.6648 17.8613 11.5365C17.8748 11.5265 17.8833 11.5116 17.8847 11.4952C18.2592 7.62068 17.2574 4.25509 15.229 1.27153C15.224 1.26155 15.2155 1.25442 15.2056 1.25014ZM6.00231 9.45386C5.11731 9.45386 4.38807 8.64133 4.38807 7.64348C4.38807 6.64564 5.10315 5.83311 6.00231 5.83311C6.90855 5.83311 7.63071 6.65277 7.61655 7.64348C7.61655 8.64133 6.90147 9.45386 6.00231 9.45386ZM11.9707 9.45386C11.0857 9.45386 10.3565 8.64133 10.3565 7.64348C10.3565 6.64564 11.0716 5.83311 11.9707 5.83311C12.877 5.83311 13.5991 6.65277 13.585 7.64348C13.585 8.64133 12.877 9.45386 11.9707 9.45386Z" fill="url(#paint0_radial_102_8211)"/>
<defs>
<radialGradient id="paint0_radial_102_8211" cx="0" cy="0" r="1" gradientUnits="userSpaceOnUse" gradientTransform="translate(0.944157 6.96074) scale(17.0179 12.9714)">
<stop stop-color="#ECB45D"/>
<stop offset="0.581399" stop-color="#FFD38D"/>
<stop offset="1" stop-color="#FFB644"/>
</radialGradient>
</defs>
</svg>
